<?xml version='1.0' encoding='utf-8'?>
<svg xmlns:xlink="http://www.w3.org/1999/xlink" xmlns="http://www.w3.org/2000/svg" id="chart-580965a5-0801-4dd1-a204-cccc0fa5ae4b" class="pygal-chart" viewBox="0 0 800 600"><!--Generated with pygal 3.0.5 (etree) ©Kozea 2012-2016 on 2025-03-15--><!--http://pygal.org--><!--http://github.com/Kozea/pygal--><defs><style type="text/css">#chart-580965a5-0801-4dd1-a204-cccc0fa5ae4b{-webkit-user-select:none;-webkit-font-smoothing:antialiased;font-family:Consolas,"Liberation Mono",Menlo,Courier,monospace}#chart-580965a5-0801-4dd1-a204-cccc0fa5ae4b .title{font-family:Noto Sans CJK SC;font-size:16px}#chart-580965a5-0801-4dd1-a204-cccc0fa5ae4b .legends .legend text{font-family:Noto Sans CJK SC;font-size:14px}#chart-580965a5-0801-4dd1-a204-cccc0fa5ae4b .axis text{font-family:Noto Sans CJK SC;font-size:10px}#chart-580965a5-0801-4dd1-a204-cccc0fa5ae4b .axis text.major{font-family:Noto Sans CJK SC;font-size:10px}#chart-580965a5-0801-4dd1-a204-cccc0fa5ae4b .text-overlay text.value{font-family:Noto Sans CJK SC;font-size:16px}#chart-580965a5-0801-4dd1-a204-cccc0fa5ae4b .text-overlay text.label{font-family:Consolas,"Liberation Mono",Menlo,Courier,monospace;font-size:10px}#chart-580965a5-0801-4dd1-a204-cccc0fa5ae4b .tooltip{font-family:Consolas,"Liberation Mono",Menlo,Courier,monospace;font-size:14px}#chart-580965a5-0801-4dd1-a204-cccc0fa5ae4b text.no_data{font-family:Consolas,"Liberation Mono",Menlo,Courier,monospace;font-size:64px}
#chart-580965a5-0801-4dd1-a204-cccc0fa5ae4b{background-color:rgba(249,249,249,1)}#chart-580965a5-0801-4dd1-a204-cccc0fa5ae4b path,#chart-580965a5-0801-4dd1-a204-cccc0fa5ae4b line,#chart-580965a5-0801-4dd1-a204-cccc0fa5ae4b rect,#chart-580965a5-0801-4dd1-a204-cccc0fa5ae4b circle{-webkit-transition:150ms;-moz-transition:150ms;transition:150ms}#chart-580965a5-0801-4dd1-a204-cccc0fa5ae4b .graph &gt; .background{fill:rgba(249,249,249,1)}#chart-580965a5-0801-4dd1-a204-cccc0fa5ae4b .plot &gt; .background{fill:rgba(255,255,255,1)}#chart-580965a5-0801-4dd1-a204-cccc0fa5ae4b .graph{fill:rgba(0,0,0,.87)}#chart-580965a5-0801-4dd1-a204-cccc0fa5ae4b text.no_data{fill:rgba(0,0,0,1)}#chart-580965a5-0801-4dd1-a204-cccc0fa5ae4b .title{fill:rgba(0,0,0,1)}#chart-580965a5-0801-4dd1-a204-cccc0fa5ae4b .legends .legend text{fill:rgba(0,0,0,.87)}#chart-580965a5-0801-4dd1-a204-cccc0fa5ae4b .legends .legend:hover text{fill:rgba(0,0,0,1)}#chart-580965a5-0801-4dd1-a204-cccc0fa5ae4b .axis .line{stroke:rgba(0,0,0,1)}#chart-580965a5-0801-4dd1-a204-cccc0fa5ae4b .axis .guide.line{stroke:rgba(0,0,0,.54)}#chart-580965a5-0801-4dd1-a204-cccc0fa5ae4b .axis .major.line{stroke:rgba(0,0,0,.87)}#chart-580965a5-0801-4dd1-a204-cccc0fa5ae4b .axis text.major{fill:rgba(0,0,0,1)}#chart-580965a5-0801-4dd1-a204-cccc0fa5ae4b .axis.y .guides:hover .guide.line,#chart-580965a5-0801-4dd1-a204-cccc0fa5ae4b .line-graph .axis.x .guides:hover .guide.line,#chart-580965a5-0801-4dd1-a204-cccc0fa5ae4b .stackedline-graph .axis.x .guides:hover .guide.line,#chart-580965a5-0801-4dd1-a204-cccc0fa5ae4b .xy-graph .axis.x .guides:hover .guide.line{stroke:rgba(0,0,0,1)}#chart-580965a5-0801-4dd1-a204-cccc0fa5ae4b .axis .guides:hover text{fill:rgba(0,0,0,1)}#chart-580965a5-0801-4dd1-a204-cccc0fa5ae4b .reactive{fill-opacity:.7;stroke-opacity:.8;stroke-width:1}#chart-580965a5-0801-4dd1-a204-cccc0fa5ae4b .ci{stroke:rgba(0,0,0,.87)}#chart-580965a5-0801-4dd1-a204-cccc0fa5ae4b .reactive.active,#chart-580965a5-0801-4dd1-a204-cccc0fa5ae4b .active .reactive{fill-opacity:.8;stroke-opacity:.9;stroke-width:4}#chart-580965a5-0801-4dd1-a204-cccc0fa5ae4b .ci .reactive.active{stroke-width:1.5}#chart-580965a5-0801-4dd1-a204-cccc0fa5ae4b .series text{fill:rgba(0,0,0,1)}#chart-580965a5-0801-4dd1-a204-cccc0fa5ae4b .tooltip rect{fill:rgba(255,255,255,1);stroke:rgba(0,0,0,1);-webkit-transition:opacity 150ms;-moz-transition:opacity 150ms;transition:opacity 150ms}#chart-580965a5-0801-4dd1-a204-cccc0fa5ae4b .tooltip .label{fill:rgba(0,0,0,.87)}#chart-580965a5-0801-4dd1-a204-cccc0fa5ae4b .tooltip .label{fill:rgba(0,0,0,.87)}#chart-580965a5-0801-4dd1-a204-cccc0fa5ae4b .tooltip .legend{font-size:.8em;fill:rgba(0,0,0,.54)}#chart-580965a5-0801-4dd1-a204-cccc0fa5ae4b .tooltip .x_label{font-size:.6em;fill:rgba(0,0,0,1)}#chart-580965a5-0801-4dd1-a204-cccc0fa5ae4b .tooltip .xlink{font-size:.5em;text-decoration:underline}#chart-580965a5-0801-4dd1-a204-cccc0fa5ae4b .tooltip .value{font-size:1.5em}#chart-580965a5-0801-4dd1-a204-cccc0fa5ae4b .bound{font-size:.5em}#chart-580965a5-0801-4dd1-a204-cccc0fa5ae4b .max-value{font-size:.75em;fill:rgba(0,0,0,.54)}#chart-580965a5-0801-4dd1-a204-cccc0fa5ae4b .map-element{fill:rgba(255,255,255,1);stroke:rgba(0,0,0,.54) !important}#chart-580965a5-0801-4dd1-a204-cccc0fa5ae4b .map-element .reactive{fill-opacity:inherit;stroke-opacity:inherit}#chart-580965a5-0801-4dd1-a204-cccc0fa5ae4b .color-0,#chart-580965a5-0801-4dd1-a204-cccc0fa5ae4b .color-0 a:visited{stroke:#F44336;fill:#F44336}#chart-580965a5-0801-4dd1-a204-cccc0fa5ae4b .text-overlay .color-0 text{fill:black}
#chart-580965a5-0801-4dd1-a204-cccc0fa5ae4b text.no_data{text-anchor:middle}#chart-580965a5-0801-4dd1-a204-cccc0fa5ae4b .guide.line{fill:none}#chart-580965a5-0801-4dd1-a204-cccc0fa5ae4b .centered{text-anchor:middle}#chart-580965a5-0801-4dd1-a204-cccc0fa5ae4b .title{text-anchor:middle}#chart-580965a5-0801-4dd1-a204-cccc0fa5ae4b .legends .legend text{fill-opacity:1}#chart-580965a5-0801-4dd1-a204-cccc0fa5ae4b .axis.x text{text-anchor:middle}#chart-580965a5-0801-4dd1-a204-cccc0fa5ae4b .axis.x:not(.web) text[transform]{text-anchor:start}#chart-580965a5-0801-4dd1-a204-cccc0fa5ae4b .axis.x:not(.web) text[transform].backwards{text-anchor:end}#chart-580965a5-0801-4dd1-a204-cccc0fa5ae4b .axis.y text{text-anchor:end}#chart-580965a5-0801-4dd1-a204-cccc0fa5ae4b .axis.y text[transform].backwards{text-anchor:start}#chart-580965a5-0801-4dd1-a204-cccc0fa5ae4b .axis.y2 text{text-anchor:start}#chart-580965a5-0801-4dd1-a204-cccc0fa5ae4b .axis.y2 text[transform].backwards{text-anchor:end}#chart-580965a5-0801-4dd1-a204-cccc0fa5ae4b .axis .guide.line{stroke-dasharray:4,4;stroke:black}#chart-580965a5-0801-4dd1-a204-cccc0fa5ae4b .axis .major.guide.line{stroke-dasharray:6,6;stroke:black}#chart-580965a5-0801-4dd1-a204-cccc0fa5ae4b .horizontal .axis.y .guide.line,#chart-580965a5-0801-4dd1-a204-cccc0fa5ae4b .horizontal .axis.y2 .guide.line,#chart-580965a5-0801-4dd1-a204-cccc0fa5ae4b .vertical .axis.x .guide.line{opacity:0}#chart-580965a5-0801-4dd1-a204-cccc0fa5ae4b .horizontal .axis.always_show .guide.line,#chart-580965a5-0801-4dd1-a204-cccc0fa5ae4b .vertical .axis.always_show .guide.line{opacity:1 !important}#chart-580965a5-0801-4dd1-a204-cccc0fa5ae4b .axis.y .guides:hover .guide.line,#chart-580965a5-0801-4dd1-a204-cccc0fa5ae4b .axis.y2 .guides:hover .guide.line,#chart-580965a5-0801-4dd1-a204-cccc0fa5ae4b .axis.x .guides:hover .guide.line{opacity:1}#chart-580965a5-0801-4dd1-a204-cccc0fa5ae4b .axis .guides:hover text{opacity:1}#chart-580965a5-0801-4dd1-a204-cccc0fa5ae4b .nofill{fill:none}#chart-580965a5-0801-4dd1-a204-cccc0fa5ae4b .subtle-fill{fill-opacity:.2}#chart-580965a5-0801-4dd1-a204-cccc0fa5ae4b .dot{stroke-width:1px;fill-opacity:1;stroke-opacity:1}#chart-580965a5-0801-4dd1-a204-cccc0fa5ae4b .dot.active{stroke-width:5px}#chart-580965a5-0801-4dd1-a204-cccc0fa5ae4b .dot.negative{fill:transparent}#chart-580965a5-0801-4dd1-a204-cccc0fa5ae4b text,#chart-580965a5-0801-4dd1-a204-cccc0fa5ae4b tspan{stroke:none !important}#chart-580965a5-0801-4dd1-a204-cccc0fa5ae4b .series text.active{opacity:1}#chart-580965a5-0801-4dd1-a204-cccc0fa5ae4b .tooltip rect{fill-opacity:.95;stroke-width:.5}#chart-580965a5-0801-4dd1-a204-cccc0fa5ae4b .tooltip text{fill-opacity:1}#chart-580965a5-0801-4dd1-a204-cccc0fa5ae4b .showable{visibility:hidden}#chart-580965a5-0801-4dd1-a204-cccc0fa5ae4b .showable.shown{visibility:visible}#chart-580965a5-0801-4dd1-a204-cccc0fa5ae4b .gauge-background{fill:rgba(229,229,229,1);stroke:none}#chart-580965a5-0801-4dd1-a204-cccc0fa5ae4b .bg-lines{stroke:rgba(249,249,249,1);stroke-width:2px}</style><script type="text/javascript">window.pygal = window.pygal || {};window.pygal.config = window.pygal.config || {};window.pygal.config['580965a5-0801-4dd1-a204-cccc0fa5ae4b'] = {"allow_interruptions": false, "box_mode": "extremes", "classes": ["pygal-chart"], "css": ["file://style.css", "file://graph.css"], "defs": [], "disable_xml_declaration": false, "dots_size": 2.5, "dynamic_print_values": false, "explicit_size": false, "fill": false, "force_uri_protocol": "https", "formatter": null, "half_pie": false, "height": 600, "include_x_axis": false, "inner_radius": 0, "interpolate": "cubic", "interpolation_parameters": {}, "interpolation_precision": 250, "inverse_y_axis": false, "js": ["//kozea.github.io/pygal.js/2.0.x/pygal-tooltips.min.js"], "legend_at_bottom": false, "legend_at_bottom_columns": null, "legend_box_size": 12, "logarithmic": false, "margin": 20, "margin_bottom": null, "margin_left": null, "margin_right": null, "margin_top": null, "max_scale": 16, "min_scale": 4, "missing_value_fill_truncation": "x", "no_data_text": "No data", "no_prefix": false, "order_min": null, "pretty_print": false, "print_labels": false, "print_values": false, "print_values_position": "center", "print_zeroes": true, "range": [0, 100], "rounded_bars": null, "secondary_range": null, "show_dots": true, "show_legend": true, "show_minor_x_labels": true, "show_minor_y_labels": true, "show_only_major_dots": false, "show_x_guides": false, "show_x_labels": true, "show_y_guides": true, "show_y_labels": true, "spacing": 10, "stack_from_top": false, "strict": false, "stroke": true, "stroke_style": null, "style": {"background": "rgba(249, 249, 249, 1)", "ci_colors": [], "colors": ["#F44336", "#3F51B5", "#009688", "#FFC107", "#FF5722", "#9C27B0", "#03A9F4", "#8BC34A", "#FF9800", "#E91E63", "#2196F3", "#4CAF50", "#FFEB3B", "#673AB7", "#00BCD4", "#CDDC39", "#9E9E9E", "#607D8B"], "dot_opacity": "1", "font_family": "Consolas, \"Liberation Mono\", Menlo, Courier, monospace", "foreground": "rgba(0, 0, 0, .87)", "foreground_strong": "rgba(0, 0, 0, 1)", "foreground_subtle": "rgba(0, 0, 0, .54)", "guide_stroke_color": "black", "guide_stroke_dasharray": "4,4", "label_font_family": "Noto Sans CJK SC", "label_font_size": 10, "legend_font_family": "Noto Sans CJK SC", "legend_font_size": 14, "major_guide_stroke_color": "black", "major_guide_stroke_dasharray": "6,6", "major_label_font_family": "Noto Sans CJK SC", "major_label_font_size": 10, "no_data_font_family": "Consolas, \"Liberation Mono\", Menlo, Courier, monospace", "no_data_font_size": 64, "opacity": ".7", "opacity_hover": ".8", "plot_background": "rgba(255, 255, 255, 1)", "stroke_opacity": ".8", "stroke_opacity_hover": ".9", "stroke_width": "1", "stroke_width_hover": "4", "title_font_family": "Noto Sans CJK SC", "title_font_size": 16, "tooltip_font_family": "Consolas, \"Liberation Mono\", Menlo, Courier, monospace", "tooltip_font_size": 14, "transition": "150ms", "value_background": "rgba(229, 229, 229, 1)", "value_colors": [], "value_font_family": "Noto Sans CJK SC", "value_font_size": 16, "value_label_font_family": "Consolas, \"Liberation Mono\", Menlo, Courier, monospace", "value_label_font_size": 10}, "title": "\u4e3b\u9898: \u8def\u7531\u5668\u5185\u5b58\u5229\u7528\u7387", "tooltip_border_radius": 0, "tooltip_fancy_mode": true, "truncate_label": null, "truncate_legend": null, "width": 800, "x_label_rotation": 45, "x_labels": ["10:46:02", "10:46:31", "10:47:01", "10:47:31", "10:48:01", "10:48:31", "10:49:02", "10:49:31", "10:50:01", "10:50:31"], "x_labels_major": null, "x_labels_major_count": null, "x_labels_major_every": null, "x_title": null, "xrange": null, "y_label_rotation": 0, "y_labels": null, "y_labels_major": null, "y_labels_major_count": null, "y_labels_major_every": null, "y_title": null, "zero": 0, "legends": ["MEM\u5229\u7528\u7387"]}</script><script type="text/javascript" xlink:href="https://kozea.github.io/pygal.js/2.0.x/pygal-tooltips.min.js" /></defs><title>主题: 路由器内存利用率</title><g class="graph line-graph vertical"><rect x="0" y="0" width="800" height="600" class="background" /><g transform="translate(120, 46)" class="plot"><rect x="0" y="0" width="645.6588745030457" height="490.05887450304573" class="background" /><g class="axis y always_show"><g class="guides"><path d="M0.000000 480.634665 h645.658875" class="axis major line" /><text x="-5" y="484.1346653779872" class="major">0</text><title>0</title></g><g class="guides"><path d="M0.000000 433.513620 h645.658875" class="guide line" /><text x="-5" y="437.0136197526943" class="">10</text><title>10</title></g><g class="guides"><path d="M0.000000 386.392574 h645.658875" class="guide line" /><text x="-5" y="389.8925741274014" class="">20</text><title>20</title></g><g class="guides"><path d="M0.000000 339.271529 h645.658875" class="guide line" /><text x="-5" y="342.7715285021086" class="">30</text><title>30</title></g><g class="guides"><path d="M0.000000 292.150483 h645.658875" class="guide line" /><text x="-5" y="295.6504828768158" class="">40</text><title>40</title></g><g class="guides"><path d="M0.000000 245.029437 h645.658875" class="major guide line" /><text x="-5" y="248.52943725152286" class="major">50</text><title>50</title></g><g class="guides"><path d="M0.000000 197.908392 h645.658875" class="guide line" /><text x="-5" y="201.40839162623" class="">60</text><title>60</title></g><g class="guides"><path d="M0.000000 150.787346 h645.658875" class="guide line" /><text x="-5" y="154.28734600093713" class="">70</text><title>70</title></g><g class="guides"><path d="M0.000000 103.666300 h645.658875" class="guide line" /><text x="-5" y="107.16630037564425" class="">80</text><title>80</title></g><g class="guides"><path d="M0.000000 56.545255 h645.658875" class="guide line" /><text x="-5" y="60.045254750351376" class="">90</text><title>90</title></g><g class="guides"><path d="M0.000000 9.424209 h645.658875" class="major guide line" /><text x="-5" y="12.92420912505861" class="major">100</text><title>100</title></g></g><g class="axis x"><g class="guides"><path d="M12.416517 0.000000 v490.058875" class="line" /><text x="12.416516817366263" y="505.05887450304573" class="" transform="rotate(45 12.416517 505.058875)">10:46:02</text></g><g class="guides"><path d="M81.397166 0.000000 v490.058875" class="guide line" /><text x="81.39716580273438" y="505.05887450304573" class="" transform="rotate(45 81.397166 505.058875)">10:46:31</text></g><g class="guides"><path d="M150.377815 0.000000 v490.058875" class="guide line" /><text x="150.37781478810248" y="505.05887450304573" class="" transform="rotate(45 150.377815 505.058875)">10:47:01</text></g><g class="guides"><path d="M219.358464 0.000000 v490.058875" class="guide line" /><text x="219.35846377347065" y="505.05887450304573" class="" transform="rotate(45 219.358464 505.058875)">10:47:31</text></g><g class="guides"><path d="M288.339113 0.000000 v490.058875" class="guide line" /><text x="288.3391127588387" y="505.05887450304573" class="" transform="rotate(45 288.339113 505.058875)">10:48:01</text></g><g class="guides"><path d="M357.319762 0.000000 v490.058875" class="guide line" /><text x="357.3197617442069" y="505.05887450304573" class="" transform="rotate(45 357.319762 505.058875)">10:48:31</text></g><g class="guides"><path d="M426.300411 0.000000 v490.058875" class="guide line" /><text x="426.300410729575" y="505.05887450304573" class="" transform="rotate(45 426.300411 505.058875)">10:49:02</text></g><g class="guides"><path d="M495.281060 0.000000 v490.058875" class="guide line" /><text x="495.2810597149431" y="505.05887450304573" class="" transform="rotate(45 495.281060 505.058875)">10:49:31</text></g><g class="guides"><path d="M564.261709 0.000000 v490.058875" class="guide line" /><text x="564.2617087003113" y="505.05887450304573" class="" transform="rotate(45 564.261709 505.058875)">10:50:01</text></g><g class="guides"><path d="M633.242358 0.000000 v490.058875" class="guide line" /><text x="633.2423576856794" y="505.05887450304573" class="" transform="rotate(45 633.242358 505.058875)">10:50:31</text></g></g><g class="series serie-0 color-0"><path d="M12.416517 150.787346 L12.692439 150.787346 12.968362 150.787346 13.244285 150.787346 13.520207 150.787346 13.796130 150.787346 14.072052 150.787346 14.347975 150.787346 14.623898 150.787346 14.899820 150.787346 15.175743 150.787346 15.451665 150.787346 15.727588 150.787346 16.003511 150.787346 16.279433 150.787346 16.555356 150.787346 16.831278 150.787346 17.107201 150.787346 17.383124 150.787346 17.659046 150.787346 17.934969 150.787346 18.210891 150.787346 18.486814 150.787346 18.762737 150.787346 19.038659 150.787346 19.314582 150.787346 19.590504 150.787346 19.866427 150.787346 20.142350 150.787346 20.418272 150.787346 20.694195 150.787346 20.970117 150.787346 21.246040 150.787346 21.521962 150.787346 21.797885 150.787346 22.073808 150.787346 22.349730 150.787346 22.625653 150.787346 22.901575 150.787346 23.177498 150.787346 23.453421 150.787346 23.729343 150.787346 24.005266 150.787346 24.281188 150.787346 24.557111 150.787346 24.833034 150.787346 25.108956 150.787346 25.384879 150.787346 25.660801 150.787346 25.936724 150.787346 26.212647 150.787346 26.488569 150.787346 26.764492 150.787346 27.040414 150.787346 27.316337 150.787346 27.592260 150.787346 27.868182 150.787346 28.144105 150.787346 28.420027 150.787346 28.695950 150.787346 28.971873 150.787346 29.247795 150.787346 29.523718 150.787346 29.799640 150.787346 30.075563 150.787346 30.351486 150.787346 30.627408 150.787346 30.903331 150.787346 31.179253 150.787346 31.455176 150.787346 31.731099 150.787346 32.007021 150.787346 32.282944 150.787346 32.558866 150.787346 32.834789 150.787346 33.110712 150.787346 33.386634 150.787346 33.662557 150.787346 33.938479 150.787346 34.214402 150.787346 34.490324 150.787346 34.766247 150.787346 35.042170 150.787346 35.318092 150.787346 35.594015 150.787346 35.869937 150.787346 36.145860 150.787346 36.421783 150.787346 36.697705 150.787346 36.973628 150.787346 37.249550 150.787346 37.525473 150.787346 37.801396 150.787346 38.077318 150.787346 38.353241 150.787346 38.629163 150.787346 38.905086 150.787346 39.181009 150.787346 39.456931 150.787346 39.732854 150.787346 40.008776 150.787346 40.284699 150.787346 40.560622 150.787346 40.836544 150.787346 41.112467 150.787346 41.388389 150.787346 41.664312 150.787346 41.940235 150.787346 42.216157 150.787346 42.492080 150.787346 42.768002 150.787346 43.043925 150.787346 43.319848 150.787346 43.595770 150.787346 43.871693 150.787346 44.147615 150.787346 44.423538 150.787346 44.699461 150.787346 44.975383 150.787346 45.251306 150.787346 45.527228 150.787346 45.803151 150.787346 46.079074 150.787346 46.354996 150.787346 46.630919 150.787346 46.906841 150.787346 47.182764 150.787346 47.458687 150.787346 47.734609 150.787346 48.010532 150.787346 48.286454 150.787346 48.562377 150.787346 48.838299 150.787346 49.114222 150.787346 49.390145 150.787346 49.666067 150.787346 49.941990 150.787346 50.217912 150.787346 50.493835 150.787346 50.769758 150.787346 51.045680 150.787346 51.321603 150.787346 51.597525 150.787346 51.873448 150.787346 52.149371 150.787346 52.425293 150.787346 52.701216 150.787346 52.977138 150.787346 53.253061 150.787346 53.528984 150.787346 53.804906 150.787346 54.080829 150.787346 54.356751 150.787346 54.632674 150.787346 54.908597 150.787346 55.184519 150.787346 55.460442 150.787346 55.736364 150.787346 56.012287 150.787346 56.288210 150.787346 56.564132 150.787346 56.840055 150.787346 57.115977 150.787346 57.391900 150.787346 57.667823 150.787346 57.943745 150.787346 58.219668 150.787346 58.495590 150.787346 58.771513 150.787346 59.047436 150.787346 59.323358 150.787346 59.599281 150.787346 59.875203 150.787346 60.151126 150.787346 60.427049 150.787346 60.702971 150.787346 60.978894 150.787346 61.254816 150.787346 61.530739 150.787346 61.806661 150.787346 62.082584 150.787346 62.358507 150.787346 62.634429 150.787346 62.910352 150.787346 63.186274 150.787346 63.462197 150.787346 63.738120 150.787346 64.014042 150.787346 64.289965 150.787346 64.565887 150.787346 64.841810 150.787346 65.117733 150.787346 65.393655 150.787346 65.669578 150.787346 65.945500 150.787346 66.221423 150.787346 66.497346 150.787346 66.773268 150.787346 67.049191 150.787346 67.325113 150.787346 67.601036 150.787346 67.876959 150.787346 68.152881 150.787346 68.428804 150.787346 68.704726 150.787346 68.980649 150.787346 69.256572 150.787346 69.532494 150.787346 69.808417 150.787346 70.084339 150.787346 70.360262 150.787346 70.636185 150.787346 70.912107 150.787346 71.188030 150.787346 71.463952 150.787346 71.739875 150.787346 72.015798 150.787346 72.291720 150.787346 72.567643 150.787346 72.843565 150.787346 73.119488 150.787346 73.395411 150.787346 73.671333 150.787346 73.947256 150.787346 74.223178 150.787346 74.499101 150.787346 74.775024 150.787346 75.050946 150.787346 75.326869 150.787346 75.602791 150.787346 75.878714 150.787346 76.154636 150.787346 76.430559 150.787346 76.706482 150.787346 76.982404 150.787346 77.258327 150.787346 77.534249 150.787346 77.810172 150.787346 78.086095 150.787346 78.362017 150.787346 78.637940 150.787346 78.913862 150.787346 79.189785 150.787346 79.465708 150.787346 79.741630 150.787346 80.017553 150.787346 80.293475 150.787346 80.569398 150.787346 80.845321 150.787346 81.121243 150.787346 81.397166 150.787346 81.673088 150.787346 81.949011 150.787346 82.224934 150.787346 82.500856 150.787346 82.776779 150.787346 83.052701 150.787346 83.328624 150.787346 83.604547 150.787346 83.880469 150.787346 84.156392 150.787346 84.432314 150.787346 84.708237 150.787346 84.984160 150.787346 85.260082 150.787346 85.536005 150.787346 85.811927 150.787346 86.087850 150.787346 86.363773 150.787346 86.639695 150.787346 86.915618 150.787346 87.191540 150.787346 87.467463 150.787346 87.743386 150.787346 88.019308 150.787346 88.295231 150.787346 88.571153 150.787346 88.847076 150.787346 89.122998 150.787346 89.398921 150.787346 89.674844 150.787346 89.950766 150.787346 90.226689 150.787346 90.502611 150.787346 90.778534 150.787346 91.054457 150.787346 91.330379 150.787346 91.606302 150.787346 91.882224 150.787346 92.158147 150.787346 92.434070 150.787346 92.709992 150.787346 92.985915 150.787346 93.261837 150.787346 93.537760 150.787346 93.813683 150.787346 94.089605 150.787346 94.365528 150.787346 94.641450 150.787346 94.917373 150.787346 95.193296 150.787346 95.469218 150.787346 95.745141 150.787346 96.021063 150.787346 96.296986 150.787346 96.572909 150.787346 96.848831 150.787346 97.124754 150.787346 97.400676 150.787346 97.676599 150.787346 97.952522 150.787346 98.228444 150.787346 98.504367 150.787346 98.780289 150.787346 99.056212 150.787346 99.332135 150.787346 99.608057 150.787346 99.883980 150.787346 100.159902 150.787346 100.435825 150.787346 100.711748 150.787346 100.987670 150.787346 101.263593 150.787346 101.539515 150.787346 101.815438 150.787346 102.091360 150.787346 102.367283 150.787346 102.643206 150.787346 102.919128 150.787346 103.195051 150.787346 103.470973 150.787346 103.746896 150.787346 104.022819 150.787346 104.298741 150.787346 104.574664 150.787346 104.850586 150.787346 105.126509 150.787346 105.402432 150.787346 105.678354 150.787346 105.954277 150.787346 106.230199 150.787346 106.506122 150.787346 106.782045 150.787346 107.057967 150.787346 107.333890 150.787346 107.609812 150.787346 107.885735 150.787346 108.161658 150.787346 108.437580 150.787346 108.713503 150.787346 108.989425 150.787346 109.265348 150.787346 109.541271 150.787346 109.817193 150.787346 110.093116 150.787346 110.369038 150.787346 110.644961 150.787346 110.920884 150.787346 111.196806 150.787346 111.472729 150.787346 111.748651 150.787346 112.024574 150.787346 112.300497 150.787346 112.576419 150.787346 112.852342 150.787346 113.128264 150.787346 113.404187 150.787346 113.680110 150.787346 113.956032 150.787346 114.231955 150.787346 114.507877 150.787346 114.783800 150.787346 115.059723 150.787346 115.335645 150.787346 115.611568 150.787346 115.887490 150.787346 116.163413 150.787346 116.439335 150.787346 116.715258 150.787346 116.991181 150.787346 117.267103 150.787346 117.543026 150.787346 117.818948 150.787346 118.094871 150.787346 118.370794 150.787346 118.646716 150.787346 118.922639 150.787346 119.198561 150.787346 119.474484 150.787346 119.750407 150.787346 120.026329 150.787346 120.302252 150.787346 120.578174 150.787346 120.854097 150.787346 121.130020 150.787346 121.405942 150.787346 121.681865 150.787346 121.957787 150.787346 122.233710 150.787346 122.509633 150.787346 122.785555 150.787346 123.061478 150.787346 123.337400 150.787346 123.613323 150.787346 123.889246 150.787346 124.165168 150.787346 124.441091 150.787346 124.717013 150.787346 124.992936 150.787346 125.268859 150.787346 125.544781 150.787346 125.820704 150.787346 126.096626 150.787346 126.372549 150.787346 126.648472 150.787346 126.924394 150.787346 127.200317 150.787346 127.476239 150.787346 127.752162 150.787346 128.028085 150.787346 128.304007 150.787346 128.579930 150.787346 128.855852 150.787346 129.131775 150.787346 129.407697 150.787346 129.683620 150.787346 129.959543 150.787346 130.235465 150.787346 130.511388 150.787346 130.787310 150.787346 131.063233 150.787346 131.339156 150.787346 131.615078 150.787346 131.891001 150.787346 132.166923 150.787346 132.442846 150.787346 132.718769 150.787346 132.994691 150.787346 133.270614 150.787346 133.546536 150.787346 133.822459 150.787346 134.098382 150.787346 134.374304 150.787346 134.650227 150.787346 134.926149 150.787346 135.202072 150.787346 135.477995 150.787346 135.753917 150.787346 136.029840 150.787346 136.305762 150.787346 136.581685 150.787346 136.857608 150.787346 137.133530 150.787346 137.409453 150.787346 137.685375 150.787346 137.961298 150.787346 138.237221 150.787346 138.513143 150.787346 138.789066 150.787346 139.064988 150.787346 139.340911 150.787346 139.616834 150.787346 139.892756 150.787346 140.168679 150.787346 140.444601 150.787346 140.720524 150.787346 140.996447 150.787346 141.272369 150.787346 141.548292 150.787346 141.824214 150.787346 142.100137 150.787346 142.376060 150.787346 142.651982 150.787346 142.927905 150.787346 143.203827 150.787346 143.479750 150.787346 143.755672 150.787346 144.031595 150.787346 144.307518 150.787346 144.583440 150.787346 144.859363 150.787346 145.135285 150.787346 145.411208 150.787346 145.687131 150.787346 145.963053 150.787346 146.238976 150.787346 146.514898 150.787346 146.790821 150.787346 147.066744 150.787346 147.342666 150.787346 147.618589 150.787346 147.894511 150.787346 148.170434 150.787346 148.446357 150.787346 148.722279 150.787346 148.998202 150.787346 149.274124 150.787346 149.550047 150.787346 149.825970 150.787346 150.101892 150.787346 150.377815 150.787346 150.653737 150.787346 150.929660 150.787346 151.205583 150.787346 151.481505 150.787346 151.757428 150.787346 152.033350 150.787346 152.309273 150.787346 152.585196 150.787346 152.861118 150.787346 153.137041 150.787346 153.412963 150.787346 153.688886 150.787346 153.964809 150.787346 154.240731 150.787346 154.516654 150.787346 154.792576 150.787346 155.068499 150.787346 155.344422 150.787346 155.620344 150.787346 155.896267 150.787346 156.172189 150.787346 156.448112 150.787346 156.724034 150.787346 156.999957 150.787346 157.275880 150.787346 157.551802 150.787346 157.827725 150.787346 158.103647 150.787346 158.379570 150.787346 158.655493 150.787346 158.931415 150.787346 159.207338 150.787346 159.483260 150.787346 159.759183 150.787346 160.035106 150.787346 160.311028 150.787346 160.586951 150.787346 160.862873 150.787346 161.138796 150.787346 161.414719 150.787346 161.690641 150.787346 161.966564 150.787346 162.242486 150.787346 162.518409 150.787346 162.794332 150.787346 163.070254 150.787346 163.346177 150.787346 163.622099 150.787346 163.898022 150.787346 164.173945 150.787346 164.449867 150.787346 164.725790 150.787346 165.001712 150.787346 165.277635 150.787346 165.553558 150.787346 165.829480 150.787346 166.105403 150.787346 166.381325 150.787346 166.657248 150.787346 166.933171 150.787346 167.209093 150.787346 167.485016 150.787346 167.760938 150.787346 168.036861 150.787346 168.312784 150.787346 168.588706 150.787346 168.864629 150.787346 169.140551 150.787346 169.416474 150.787346 169.692397 150.787346 169.968319 150.787346 170.244242 150.787346 170.520164 150.787346 170.796087 150.787346 171.072009 150.787346 171.347932 150.787346 171.623855 150.787346 171.899777 150.787346 172.175700 150.787346 172.451622 150.787346 172.727545 150.787346 173.003468 150.787346 173.279390 150.787346 173.555313 150.787346 173.831235 150.787346 174.107158 150.787346 174.383081 150.787346 174.659003 150.787346 174.934926 150.787346 175.210848 150.787346 175.486771 150.787346 175.762694 150.787346 176.038616 150.787346 176.314539 150.787346 176.590461 150.787346 176.866384 150.787346 177.142307 150.787346 177.418229 150.787346 177.694152 150.787346 177.970074 150.787346 178.245997 150.787346 178.521920 150.787346 178.797842 150.787346 179.073765 150.787346 179.349687 150.787346 179.625610 150.787346 179.901533 150.787346 180.177455 150.787346 180.453378 150.787346 180.729300 150.787346 181.005223 150.787346 181.281146 150.787346 181.557068 150.787346 181.832991 150.787346 182.108913 150.787346 182.384836 150.787346 182.660759 150.787346 182.936681 150.787346 183.212604 150.787346 183.488526 150.787346 183.764449 150.787346 184.040371 150.787346 184.316294 150.787346 184.592217 150.787346 184.868139 150.787346 185.144062 150.787346 185.419984 150.787346 185.695907 150.787346 185.971830 150.787346 186.247752 150.787346 186.523675 150.787346 186.799597 150.787346 187.075520 150.787346 187.351443 150.787346 187.627365 150.787346 187.903288 150.787346 188.179210 150.787346 188.455133 150.787346 188.731056 150.787346 189.006978 150.787346 189.282901 150.787346 189.558823 150.787346 189.834746 150.787346 190.110669 150.787346 190.386591 150.787346 190.662514 150.787346 190.938436 150.787346 191.214359 150.787346 191.490282 150.787346 191.766204 150.787346 192.042127 150.787346 192.318049 150.787346 192.593972 150.787346 192.869895 150.787346 193.145817 150.787346 193.421740 150.787346 193.697662 150.787346 193.973585 150.787346 194.249508 150.787346 194.525430 150.787346 194.801353 150.787346 195.077275 150.787346 195.353198 150.787346 195.629121 150.787346 195.905043 150.787346 196.180966 150.787346 196.456888 150.787346 196.732811 150.787346 197.008734 150.787346 197.284656 150.787346 197.560579 150.787346 197.836501 150.787346 198.112424 150.787346 198.388346 150.787346 198.664269 150.787346 198.940192 150.787346 199.216114 150.787346 199.492037 150.787346 199.767959 150.787346 200.043882 150.787346 200.319805 150.787346 200.595727 150.787346 200.871650 150.787346 201.147572 150.787346 201.423495 150.787346 201.699418 150.787346 201.975340 150.787346 202.251263 150.787346 202.527185 150.787346 202.803108 150.787346 203.079031 150.787346 203.354953 150.787346 203.630876 150.787346 203.906798 150.787346 204.182721 150.787346 204.458644 150.787346 204.734566 150.787346 205.010489 150.787346 205.286411 150.787346 205.562334 150.787346 205.838257 150.787346 206.114179 150.787346 206.390102 150.787346 206.666024 150.787346 206.941947 150.787346 207.217870 150.787346 207.493792 150.787346 207.769715 150.787346 208.045637 150.787346 208.321560 150.787346 208.597483 150.787346 208.873405 150.787346 209.149328 150.787346 209.425250 150.787346 209.701173 150.787346 209.977096 150.787346 210.253018 150.787346 210.528941 150.787346 210.804863 150.787346 211.080786 150.787346 211.356708 150.787346 211.632631 150.787346 211.908554 150.787346 212.184476 150.787346 212.460399 150.787346 212.736321 150.787346 213.012244 150.787346 213.288167 150.787346 213.564089 150.787346 213.840012 150.787346 214.115934 150.787346 214.391857 150.787346 214.667780 150.787346 214.943702 150.787346 215.219625 150.787346 215.495547 150.787346 215.771470 150.787346 216.047393 150.787346 216.323315 150.787346 216.599238 150.787346 216.875160 150.787346 217.151083 150.787346 217.427006 150.787346 217.702928 150.787346 217.978851 150.787346 218.254773 150.787346 218.530696 150.787346 218.806619 150.787346 219.082541 150.787346 219.358464 150.787346 219.634386 150.787346 219.910309 150.787346 220.186232 150.787346 220.462154 150.787346 220.738077 150.787346 221.013999 150.787346 221.289922 150.787346 221.565845 150.787346 221.841767 150.787346 222.117690 150.787346 222.393612 150.787346 222.669535 150.787346 222.945458 150.787346 223.221380 150.787346 223.497303 150.787346 223.773225 150.787346 224.049148 150.787346 224.325071 150.787346 224.600993 150.787346 224.876916 150.787346 225.152838 150.787346 225.428761 150.787346 225.704683 150.787346 225.980606 150.787346 226.256529 150.787346 226.532451 150.787346 226.808374 150.787346 227.084296 150.787346 227.360219 150.787346 227.636142 150.787346 227.912064 150.787346 228.187987 150.787346 228.463909 150.787346 228.739832 150.787346 229.015755 150.787346 229.291677 150.787346 229.567600 150.787346 229.843522 150.787346 230.119445 150.787346 230.395368 150.787346 230.671290 150.787346 230.947213 150.787346 231.223135 150.787346 231.499058 150.787346 231.774981 150.787346 232.050903 150.787346 232.326826 150.787346 232.602748 150.787346 232.878671 150.787346 233.154594 150.787346 233.430516 150.787346 233.706439 150.787346 233.982361 150.787346 234.258284 150.787346 234.534207 150.787346 234.810129 150.787346 235.086052 150.787346 235.361974 150.787346 235.637897 150.787346 235.913820 150.787346 236.189742 150.787346 236.465665 150.787346 236.741587 150.787346 237.017510 150.787346 237.293433 150.787346 237.569355 150.787346 237.845278 150.787346 238.121200 150.787346 238.397123 150.787346 238.673045 150.787346 238.948968 150.787346 239.224891 150.787346 239.500813 150.787346 239.776736 150.787346 240.052658 150.787346 240.328581 150.787346 240.604504 150.787346 240.880426 150.787346 241.156349 150.787346 241.432271 150.787346 241.708194 150.787346 241.984117 150.787346 242.260039 150.787346 242.535962 150.787346 242.811884 150.787346 243.087807 150.787346 243.363730 150.787346 243.639652 150.787346 243.915575 150.787346 244.191497 150.787346 244.467420 150.787346 244.743343 150.787346 245.019265 150.787346 245.295188 150.787346 245.571110 150.787346 245.847033 150.787346 246.122956 150.787346 246.398878 150.787346 246.674801 150.787346 246.950723 150.787346 247.226646 150.787346 247.502569 150.787346 247.778491 150.787346 248.054414 150.787346 248.330336 150.787346 248.606259 150.787346 248.882182 150.787346 249.158104 150.787346 249.434027 150.787346 249.709949 150.787346 249.985872 150.787346 250.261795 150.787346 250.537717 150.787346 250.813640 150.787346 251.089562 150.787346 251.365485 150.787346 251.641407 150.787346 251.917330 150.787346 252.193253 150.787346 252.469175 150.787346 252.745098 150.787346 253.021020 150.787346 253.296943 150.787346 253.572866 150.787346 253.848788 150.787346 254.124711 150.787346 254.400633 150.787346 254.676556 150.787346 254.952479 150.787346 255.228401 150.787346 255.504324 150.787346 255.780246 150.787346 256.056169 150.787346 256.332092 150.787346 256.608014 150.787346 256.883937 150.787346 257.159859 150.787346 257.435782 150.787346 257.711705 150.787346 257.987627 150.787346 258.263550 150.787346 258.539472 150.787346 258.815395 150.787346 259.091318 150.787346 259.367240 150.787346 259.643163 150.787346 259.919085 150.787346 260.195008 150.787346 260.470931 150.787346 260.746853 150.787346 261.022776 150.787346 261.298698 150.787346 261.574621 150.787346 261.850544 150.787346 262.126466 150.787346 262.402389 150.787346 262.678311 150.787346 262.954234 150.787346 263.230157 150.787346 263.506079 150.787346 263.782002 150.787346 264.057924 150.787346 264.333847 150.787346 264.609770 150.787346 264.885692 150.787346 265.161615 150.787346 265.437537 150.787346 265.713460 150.787346 265.989382 150.787346 266.265305 150.787346 266.541228 150.787346 266.817150 150.787346 267.093073 150.787346 267.368995 150.787346 267.644918 150.787346 267.920841 150.787346 268.196763 150.787346 268.472686 150.787346 268.748608 150.787346 269.024531 150.787346 269.300454 150.787346 269.576376 150.787346 269.852299 150.787346 270.128221 150.787346 270.404144 150.787346 270.680067 150.787346 270.955989 150.787346 271.231912 150.787346 271.507834 150.787346 271.783757 150.787346 272.059680 150.787346 272.335602 150.787346 272.611525 150.787346 272.887447 150.787346 273.163370 150.787346 273.439293 150.787346 273.715215 150.787346 273.991138 150.787346 274.267060 150.787346 274.542983 150.787346 274.818906 150.787346 275.094828 150.787346 275.370751 150.787346 275.646673 150.787346 275.922596 150.787346 276.198519 150.787346 276.474441 150.787346 276.750364 150.787346 277.026286 150.787346 277.302209 150.787346 277.578132 150.787346 277.854054 150.787346 278.129977 150.787346 278.405899 150.787346 278.681822 150.787346 278.957744 150.787346 279.233667 150.787346 279.509590 150.787346 279.785512 150.787346 280.061435 150.787346 280.337357 150.787346 280.613280 150.787346 280.889203 150.787346 281.165125 150.787346 281.441048 150.787346 281.716970 150.787346 281.992893 150.787346 282.268816 150.787346 282.544738 150.787346 282.820661 150.787346 283.096583 150.787346 283.372506 150.787346 283.648429 150.787346 283.924351 150.787346 284.200274 150.787346 284.476196 150.787346 284.752119 150.787346 285.028042 150.787346 285.303964 150.787346 285.579887 150.787346 285.855809 150.787346 286.131732 150.787346 286.407655 150.787346 286.683577 150.787346 286.959500 150.787346 287.235422 150.787346 287.511345 150.787346 287.787268 150.787346 288.063190 150.787346 288.339113 150.787346 288.615035 150.787346 288.890958 150.787346 289.166881 150.787346 289.442803 150.787346 289.718726 150.787346 289.994648 150.787346 290.270571 150.787346 290.546494 150.787346 290.822416 150.787346 291.098339 150.787346 291.374261 150.787346 291.650184 150.787346 291.926107 150.787346 292.202029 150.787346 292.477952 150.787346 292.753874 150.787346 293.029797 150.787346 293.305719 150.787346 293.581642 150.787346 293.857565 150.787346 294.133487 150.787346 294.409410 150.787346 294.685332 150.787346 294.961255 150.787346 295.237178 150.787346 295.513100 150.787346 295.789023 150.787346 296.064945 150.787346 296.340868 150.787346 296.616791 150.787346 296.892713 150.787346 297.168636 150.787346 297.444558 150.787346 297.720481 150.787346 297.996404 150.787346 298.272326 150.787346 298.548249 150.787346 298.824171 150.787346 299.100094 150.787346 299.376017 150.787346 299.651939 150.787346 299.927862 150.787346 300.203784 150.787346 300.479707 150.787346 300.755630 150.787346 301.031552 150.787346 301.307475 150.787346 301.583397 150.787346 301.859320 150.787346 302.135243 150.787346 302.411165 150.787346 302.687088 150.787346 302.963010 150.787346 303.238933 150.787346 303.514856 150.787346 303.790778 150.787346 304.066701 150.787346 304.342623 150.787346 304.618546 150.787346 304.894469 150.787346 305.170391 150.787346 305.446314 150.787346 305.722236 150.787346 305.998159 150.787346 306.274081 150.787346 306.550004 150.787346 306.825927 150.787346 307.101849 150.787346 307.377772 150.787346 307.653694 150.787346 307.929617 150.787346 308.205540 150.787346 308.481462 150.787346 308.757385 150.787346 309.033307 150.787346 309.309230 150.787346 309.585153 150.787346 309.861075 150.787346 310.136998 150.787346 310.412920 150.787346 310.688843 150.787346 310.964766 150.787346 311.240688 150.787346 311.516611 150.787346 311.792533 150.787346 312.068456 150.787346 312.344379 150.787346 312.620301 150.787346 312.896224 150.787346 313.172146 150.787346 313.448069 150.787346 313.723992 150.787346 313.999914 150.787346 314.275837 150.787346 314.551759 150.787346 314.827682 150.787346 315.103605 150.787346 315.379527 150.787346 315.655450 150.787346 315.931372 150.787346 316.207295 150.787346 316.483218 150.787346 316.759140 150.787346 317.035063 150.787346 317.310985 150.787346 317.586908 150.787346 317.862831 150.787346 318.138753 150.787346 318.414676 150.787346 318.690598 150.787346 318.966521 150.787346 319.242444 150.787346 319.518366 150.787346 319.794289 150.787346 320.070211 150.787346 320.346134 150.787346 320.622056 150.787346 320.897979 150.787346 321.173902 150.787346 321.449824 150.787346 321.725747 150.787346 322.001669 150.787346 322.277592 150.787346 322.553515 150.787346 322.829437 150.787346 323.105360 150.787346 323.381282 150.787346 323.657205 150.787346 323.933128 150.787346 324.209050 150.787346 324.484973 150.787346 324.760895 150.787346 325.036818 150.787346 325.312741 150.787346 325.588663 150.787346 325.864586 150.787346 326.140508 150.787346 326.416431 150.787346 326.692354 150.787346 326.968276 150.787346 327.244199 150.787346 327.520121 150.787346 327.796044 150.787346 328.071967 150.787346 328.347889 150.787346 328.623812 150.787346 328.899734 150.787346 329.175657 150.787346 329.451580 150.787346 329.727502 150.787346 330.003425 150.787346 330.279347 150.787346 330.555270 150.787346 330.831193 150.787346 331.107115 150.787346 331.383038 150.787346 331.658960 150.787346 331.934883 150.787346 332.210806 150.787346 332.486728 150.787346 332.762651 150.787346 333.038573 150.787346 333.314496 150.787346 333.590418 150.787346 333.866341 150.787346 334.142264 150.787346 334.418186 150.787346 334.694109 150.787346 334.970031 150.787346 335.245954 150.787346 335.521877 150.787346 335.797799 150.787346 336.073722 150.787346 336.349644 150.787346 336.625567 150.787346 336.901490 150.787346 337.177412 150.787346 337.453335 150.787346 337.729257 150.787346 338.005180 150.787346 338.281103 150.787346 338.557025 150.787346 338.832948 150.787346 339.108870 150.787346 339.384793 150.787346 339.660716 150.787346 339.936638 150.787346 340.212561 150.787346 340.488483 150.787346 340.764406 150.787346 341.040329 150.787346 341.316251 150.787346 341.592174 150.787346 341.868096 150.787346 342.144019 150.787346 342.419942 150.787346 342.695864 150.787346 342.971787 150.787346 343.247709 150.787346 343.523632 150.787346 343.799555 150.787346 344.075477 150.787346 344.351400 150.787346 344.627322 150.787346 344.903245 150.787346 345.179168 150.787346 345.455090 150.787346 345.731013 150.787346 346.006935 150.787346 346.282858 150.787346 346.558781 150.787346 346.834703 150.787346 347.110626 150.787346 347.386548 150.787346 347.662471 150.787346 347.938393 150.787346 348.214316 150.787346 348.490239 150.787346 348.766161 150.787346 349.042084 150.787346 349.318006 150.787346 349.593929 150.787346 349.869852 150.787346 350.145774 150.787346 350.421697 150.787346 350.697619 150.787346 350.973542 150.787346 351.249465 150.787346 351.525387 150.787346 351.801310 150.787346 352.077232 150.787346 352.353155 150.787346 352.629078 150.787346 352.905000 150.787346 353.180923 150.787346 353.456845 150.787346 353.732768 150.787346 354.008691 150.787346 354.284613 150.787346 354.560536 150.787346 354.836458 150.787346 355.112381 150.787346 355.388304 150.787346 355.664226 150.787346 355.940149 150.787346 356.216071 150.787346 356.491994 150.787346 356.767917 150.787346 357.043839 150.787346 357.319762 150.787346 357.595684 150.787346 357.871607 150.787346 358.147530 150.787346 358.423452 150.787346 358.699375 150.787346 358.975297 150.787346 359.251220 150.787346 359.527143 150.787346 359.803065 150.787346 360.078988 150.787346 360.354910 150.787346 360.630833 150.787346 360.906755 150.787346 361.182678 150.787346 361.458601 150.787346 361.734523 150.787346 362.010446 150.787346 362.286368 150.787346 362.562291 150.787346 362.838214 150.787346 363.114136 150.787346 363.390059 150.787346 363.665981 150.787346 363.941904 150.787346 364.217827 150.787346 364.493749 150.787346 364.769672 150.787346 365.045594 150.787346 365.321517 150.787346 365.597440 150.787346 365.873362 150.787346 366.149285 150.787346 366.425207 150.787346 366.701130 150.787346 366.977053 150.787346 367.252975 150.787346 367.528898 150.787346 367.804820 150.787346 368.080743 150.787346 368.356666 150.787346 368.632588 150.787346 368.908511 150.787346 369.184433 150.787346 369.460356 150.787346 369.736279 150.787346 370.012201 150.787346 370.288124 150.787346 370.564046 150.787346 370.839969 150.787346 371.115892 150.787346 371.391814 150.787346 371.667737 150.787346 371.943659 150.787346 372.219582 150.787346 372.495505 150.787346 372.771427 150.787346 373.047350 150.787346 373.323272 150.787346 373.599195 150.787346 373.875118 150.787346 374.151040 150.787346 374.426963 150.787346 374.702885 150.787346 374.978808 150.787346 375.254730 150.787346 375.530653 150.787346 375.806576 150.787346 376.082498 150.787346 376.358421 150.787346 376.634343 150.787346 376.910266 150.787346 377.186189 150.787346 377.462111 150.787346 377.738034 150.787346 378.013956 150.787346 378.289879 150.787346 378.565802 150.787346 378.841724 150.787346 379.117647 150.787346 379.393569 150.787346 379.669492 150.787346 379.945415 150.787346 380.221337 150.787346 380.497260 150.787346 380.773182 150.787346 381.049105 150.787346 381.325028 150.787346 381.600950 150.787346 381.876873 150.787346 382.152795 150.787346 382.428718 150.787346 382.704641 150.787346 382.980563 150.787346 383.256486 150.787346 383.532408 150.787346 383.808331 150.787346 384.084254 150.787346 384.360176 150.787346 384.636099 150.787346 384.912021 150.787346 385.187944 150.787346 385.463867 150.787346 385.739789 150.787346 386.015712 150.787346 386.291634 150.787346 386.567557 150.787346 386.843480 150.787346 387.119402 150.787346 387.395325 150.787346 387.671247 150.787346 387.947170 150.787346 388.223092 150.787346 388.499015 150.787346 388.774938 150.787346 389.050860 150.787346 389.326783 150.787346 389.602705 150.787346 389.878628 150.787346 390.154551 150.787346 390.430473 150.787346 390.706396 150.787346 390.982318 150.787346 391.258241 150.787346 391.534164 150.787346 391.810086 150.787346 392.086009 150.787346 392.361931 150.787346 392.637854 150.787346 392.913777 150.787346 393.189699 150.787346 393.465622 150.787346 393.741544 150.787346 394.017467 150.787346 394.293390 150.787346 394.569312 150.787346 394.845235 150.787346 395.121157 150.787346 395.397080 150.787346 395.673003 150.787346 395.948925 150.787346 396.224848 150.787346 396.500770 150.787346 396.776693 150.787346 397.052616 150.787346 397.328538 150.787346 397.604461 150.787346 397.880383 150.787346 398.156306 150.787346 398.432229 150.787346 398.708151 150.787346 398.984074 150.787346 399.259996 150.787346 399.535919 150.787346 399.811842 150.787346 400.087764 150.787346 400.363687 150.787346 400.639609 150.787346 400.915532 150.787346 401.191454 150.787346 401.467377 150.787346 401.743300 150.787346 402.019222 150.787346 402.295145 150.787346 402.571067 150.787346 402.846990 150.787346 403.122913 150.787346 403.398835 150.787346 403.674758 150.787346 403.950680 150.787346 404.226603 150.787346 404.502526 150.787346 404.778448 150.787346 405.054371 150.787346 405.330293 150.787346 405.606216 150.787346 405.882139 150.787346 406.158061 150.787346 406.433984 150.787346 406.709906 150.787346 406.985829 150.787346 407.261752 150.787346 407.537674 150.787346 407.813597 150.787346 408.089519 150.787346 408.365442 150.787346 408.641365 150.787346 408.917287 150.787346 409.193210 150.787346 409.469132 150.787346 409.745055 150.787346 410.020978 150.787346 410.296900 150.787346 410.572823 150.787346 410.848745 150.787346 411.124668 150.787346 411.400591 150.787346 411.676513 150.787346 411.952436 150.787346 412.228358 150.787346 412.504281 150.787346 412.780204 150.787346 413.056126 150.787346 413.332049 150.787346 413.607971 150.787346 413.883894 150.787346 414.159817 150.787346 414.435739 150.787346 414.711662 150.787346 414.987584 150.787346 415.263507 150.787346 415.539429 150.787346 415.815352 150.787346 416.091275 150.787346 416.367197 150.787346 416.643120 150.787346 416.919042 150.787346 417.194965 150.787346 417.470888 150.787346 417.746810 150.787346 418.022733 150.787346 418.298655 150.787346 418.574578 150.787346 418.850501 150.787346 419.126423 150.787346 419.402346 150.787346 419.678268 150.787346 419.954191 150.787346 420.230114 150.787346 420.506036 150.787346 420.781959 150.787346 421.057881 150.787346 421.333804 150.787346 421.609727 150.787346 421.885649 150.787346 422.161572 150.787346 422.437494 150.787346 422.713417 150.787346 422.989340 150.787346 423.265262 150.787346 423.541185 150.787346 423.817107 150.787346 424.093030 150.787346 424.368953 150.787346 424.644875 150.787346 424.920798 150.787346 425.196720 150.787346 425.472643 150.787346 425.748566 150.787346 426.024488 150.787346 426.300411 150.787346 426.576333 150.787346 426.852256 150.787346 427.128179 150.787346 427.404101 150.787346 427.680024 150.787346 427.955946 150.787346 428.231869 150.787346 428.507791 150.787346 428.783714 150.787346 429.059637 150.787346 429.335559 150.787346 429.611482 150.787346 429.887404 150.787346 430.163327 150.787346 430.439250 150.787346 430.715172 150.787346 430.991095 150.787346 431.267017 150.787346 431.542940 150.787346 431.818863 150.787346 432.094785 150.787346 432.370708 150.787346 432.646630 150.787346 432.922553 150.787346 433.198476 150.787346 433.474398 150.787346 433.750321 150.787346 434.026243 150.787346 434.302166 150.787346 434.578089 150.787346 434.854011 150.787346 435.129934 150.787346 435.405856 150.787346 435.681779 150.787346 435.957702 150.787346 436.233624 150.787346 436.509547 150.787346 436.785469 150.787346 437.061392 150.787346 437.337315 150.787346 437.613237 150.787346 437.889160 150.787346 438.165082 150.787346 438.441005 150.787346 438.716928 150.787346 438.992850 150.787346 439.268773 150.787346 439.544695 150.787346 439.820618 150.787346 440.096541 150.787346 440.372463 150.787346 440.648386 150.787346 440.924308 150.787346 441.200231 150.787346 441.476154 150.787346 441.752076 150.787346 442.027999 150.787346 442.303921 150.787346 442.579844 150.787346 442.855766 150.787346 443.131689 150.787346 443.407612 150.787346 443.683534 150.787346 443.959457 150.787346 444.235379 150.787346 444.511302 150.787346 444.787225 150.787346 445.063147 150.787346 445.339070 150.787346 445.614992 150.787346 445.890915 150.787346 446.166838 150.787346 446.442760 150.787346 446.718683 150.787346 446.994605 150.787346 447.270528 150.787346 447.546451 150.787346 447.822373 150.787346 448.098296 150.787346 448.374218 150.787346 448.650141 150.787346 448.926064 150.787346 449.201986 150.787346 449.477909 150.787346 449.753831 150.787346 450.029754 150.787346 450.305677 150.787346 450.581599 150.787346 450.857522 150.787346 451.133444 150.787346 451.409367 150.787346 451.685290 150.787346 451.961212 150.787346 452.237135 150.787346 452.513057 150.787346 452.788980 150.787346 453.064903 150.787346 453.340825 150.787346 453.616748 150.787346 453.892670 150.787346 454.168593 150.787346 454.444516 150.787346 454.720438 150.787346 454.996361 150.787346 455.272283 150.787346 455.548206 150.787346 455.824128 150.787346 456.100051 150.787346 456.375974 150.787346 456.651896 150.787346 456.927819 150.787346 457.203741 150.787346 457.479664 150.787346 457.755587 150.787346 458.031509 150.787346 458.307432 150.787346 458.583354 150.787346 458.859277 150.787346 459.135200 150.787346 459.411122 150.787346 459.687045 150.787346 459.962967 150.787346 460.238890 150.787346 460.514813 150.787346 460.790735 150.787346 461.066658 150.787346 461.342580 150.787346 461.618503 150.787346 461.894426 150.787346 462.170348 150.787346 462.446271 150.787346 462.722193 150.787346 462.998116 150.787346 463.274039 150.787346 463.549961 150.787346 463.825884 150.787346 464.101806 150.787346 464.377729 150.787346 464.653652 150.787346 464.929574 150.787346 465.205497 150.787346 465.481419 150.787346 465.757342 150.787346 466.033265 150.787346 466.309187 150.787346 466.585110 150.787346 466.861032 150.787346 467.136955 150.787346 467.412878 150.787346 467.688800 150.787346 467.964723 150.787346 468.240645 150.787346 468.516568 150.787346 468.792491 150.787346 469.068413 150.787346 469.344336 150.787346 469.620258 150.787346 469.896181 150.787346 470.172103 150.787346 470.448026 150.787346 470.723949 150.787346 470.999871 150.787346 471.275794 150.787346 471.551716 150.787346 471.827639 150.787346 472.103562 150.787346 472.379484 150.787346 472.655407 150.787346 472.931329 150.787346 473.207252 150.787346 473.483175 150.787346 473.759097 150.787346 474.035020 150.787346 474.310942 150.787346 474.586865 150.787346 474.862788 150.787346 475.138710 150.787346 475.414633 150.787346 475.690555 150.787346 475.966478 150.787346 476.242401 150.787346 476.518323 150.787346 476.794246 150.787346 477.070168 150.787346 477.346091 150.787346 477.622014 150.787346 477.897936 150.787346 478.173859 150.787346 478.449781 150.787346 478.725704 150.787346 479.001627 150.787346 479.277549 150.787346 479.553472 150.787346 479.829394 150.787346 480.105317 150.787346 480.381240 150.787346 480.657162 150.787346 480.933085 150.787346 481.209007 150.787346 481.484930 150.787346 481.760853 150.787346 482.036775 150.787346 482.312698 150.787346 482.588620 150.787346 482.864543 150.787346 483.140465 150.787346 483.416388 150.787346 483.692311 150.787346 483.968233 150.787346 484.244156 150.787346 484.520078 150.787346 484.796001 150.787346 485.071924 150.787346 485.347846 150.787346 485.623769 150.787346 485.899691 150.787346 486.175614 150.787346 486.451537 150.787346 486.727459 150.787346 487.003382 150.787346 487.279304 150.787346 487.555227 150.787346 487.831150 150.787346 488.107072 150.787346 488.382995 150.787346 488.658917 150.787346 488.934840 150.787346 489.210763 150.787346 489.486685 150.787346 489.762608 150.787346 490.038530 150.787346 490.314453 150.787346 490.590376 150.787346 490.866298 150.787346 491.142221 150.787346 491.418143 150.787346 491.694066 150.787346 491.969989 150.787346 492.245911 150.787346 492.521834 150.787346 492.797756 150.787346 493.073679 150.787346 493.349602 150.787346 493.625524 150.787346 493.901447 150.787346 494.177369 150.787346 494.453292 150.787346 494.729215 150.787346 495.005137 150.787346 495.281060 150.787346 495.556982 150.787346 495.832905 150.787346 496.108828 150.787346 496.384750 150.787346 496.660673 150.787346 496.936595 150.787346 497.212518 150.787346 497.488440 150.787346 497.764363 150.787346 498.040286 150.787346 498.316208 150.787346 498.592131 150.787346 498.868053 150.787346 499.143976 150.787346 499.419899 150.787346 499.695821 150.787346 499.971744 150.787346 500.247666 150.787346 500.523589 150.787346 500.799512 150.787346 501.075434 150.787346 501.351357 150.787346 501.627279 150.787346 501.903202 150.787346 502.179125 150.787346 502.455047 150.787346 502.730970 150.787346 503.006892 150.787346 503.282815 150.787346 503.558738 150.787346 503.834660 150.787346 504.110583 150.787346 504.386505 150.787346 504.662428 150.787346 504.938351 150.787346 505.214273 150.787346 505.490196 150.787346 505.766118 150.787346 506.042041 150.787346 506.317964 150.787346 506.593886 150.787346 506.869809 150.787346 507.145731 150.787346 507.421654 150.787346 507.697577 150.787346 507.973499 150.787346 508.249422 150.787346 508.525344 150.787346 508.801267 150.787346 509.077190 150.787346 509.353112 150.787346 509.629035 150.787346 509.904957 150.787346 510.180880 150.787346 510.456802 150.787346 510.732725 150.787346 511.008648 150.787346 511.284570 150.787346 511.560493 150.787346 511.836415 150.787346 512.112338 150.787346 512.388261 150.787346 512.664183 150.787346 512.940106 150.787346 513.216028 150.787346 513.491951 150.787346 513.767874 150.787346 514.043796 150.787346 514.319719 150.787346 514.595641 150.787346 514.871564 150.787346 515.147487 150.787346 515.423409 150.787346 515.699332 150.787346 515.975254 150.787346 516.251177 150.787346 516.527100 150.787346 516.803022 150.787346 517.078945 150.787346 517.354867 150.787346 517.630790 150.787346 517.906713 150.787346 518.182635 150.787346 518.458558 150.787346 518.734480 150.787346 519.010403 150.787346 519.286326 150.787346 519.562248 150.787346 519.838171 150.787346 520.114093 150.787346 520.390016 150.787346 520.665939 150.787346 520.941861 150.787346 521.217784 150.787346 521.493706 150.787346 521.769629 150.787346 522.045552 150.787346 522.321474 150.787346 522.597397 150.787346 522.873319 150.787346 523.149242 150.787346 523.425165 150.787346 523.701087 150.787346 523.977010 150.787346 524.252932 150.787346 524.528855 150.787346 524.804777 150.787346 525.080700 150.787346 525.356623 150.787346 525.632545 150.787346 525.908468 150.787346 526.184390 150.787346 526.460313 150.787346 526.736236 150.787346 527.012158 150.787346 527.288081 150.787346 527.564003 150.787346 527.839926 150.787346 528.115849 150.787346 528.391771 150.787346 528.667694 150.787346 528.943616 150.787346 529.219539 150.787346 529.495462 150.787346 529.771384 150.787346 530.047307 150.787346 530.323229 150.787346 530.599152 150.787346 530.875075 150.787346 531.150997 150.787346 531.426920 150.787346 531.702842 150.787346 531.978765 150.787346 532.254688 150.787346 532.530610 150.787346 532.806533 150.787346 533.082455 150.787346 533.358378 150.787346 533.634301 150.787346 533.910223 150.787346 534.186146 150.787346 534.462068 150.787346 534.737991 150.787346 535.013914 150.787346 535.289836 150.787346 535.565759 150.787346 535.841681 150.787346 536.117604 150.787346 536.393527 150.787346 536.669449 150.787346 536.945372 150.787346 537.221294 150.787346 537.497217 150.787346 537.773139 150.787346 538.049062 150.787346 538.324985 150.787346 538.600907 150.787346 538.876830 150.787346 539.152752 150.787346 539.428675 150.787346 539.704598 150.787346 539.980520 150.787346 540.256443 150.787346 540.532365 150.787346 540.808288 150.787346 541.084211 150.787346 541.360133 150.787346 541.636056 150.787346 541.911978 150.787346 542.187901 150.787346 542.463824 150.787346 542.739746 150.787346 543.015669 150.787346 543.291591 150.787346 543.567514 150.787346 543.843437 150.787346 544.119359 150.787346 544.395282 150.787346 544.671204 150.787346 544.947127 150.787346 545.223050 150.787346 545.498972 150.787346 545.774895 150.787346 546.050817 150.787346 546.326740 150.787346 546.602663 150.787346 546.878585 150.787346 547.154508 150.787346 547.430430 150.787346 547.706353 150.787346 547.982276 150.787346 548.258198 150.787346 548.534121 150.787346 548.810043 150.787346 549.085966 150.787346 549.361889 150.787346 549.637811 150.787346 549.913734 150.787346 550.189656 150.787346 550.465579 150.787346 550.741501 150.787346 551.017424 150.787346 551.293347 150.787346 551.569269 150.787346 551.845192 150.787346 552.121114 150.787346 552.397037 150.787346 552.672960 150.787346 552.948882 150.787346 553.224805 150.787346 553.500727 150.787346 553.776650 150.787346 554.052573 150.787346 554.328495 150.787346 554.604418 150.787346 554.880340 150.787346 555.156263 150.787346 555.432186 150.787346 555.708108 150.787346 555.984031 150.787346 556.259953 150.787346 556.535876 150.787346 556.811799 150.787346 557.087721 150.787346 557.363644 150.787346 557.639566 150.787346 557.915489 150.787346 558.191412 150.787346 558.467334 150.787346 558.743257 150.787346 559.019179 150.787346 559.295102 150.787346 559.571025 150.787346 559.846947 150.787346 560.122870 150.787346 560.398792 150.787346 560.674715 150.787346 560.950638 150.787346 561.226560 150.787346 561.502483 150.787346 561.778405 150.787346 562.054328 150.787346 562.330251 150.787346 562.606173 150.787346 562.882096 150.787346 563.158018 150.787346 563.433941 150.787346 563.709864 150.787346 563.985786 150.787346 564.261709 150.787346 564.537631 150.787346 564.813554 150.787346 565.089476 150.787346 565.365399 150.787346 565.641322 150.787346 565.917244 150.787346 566.193167 150.787346 566.469089 150.787346 566.745012 150.787346 567.020935 150.787346 567.296857 150.787346 567.572780 150.787346 567.848702 150.787346 568.124625 150.787346 568.400548 150.787346 568.676470 150.787346 568.952393 150.787346 569.228315 150.787346 569.504238 150.787346 569.780161 150.787346 570.056083 150.787346 570.332006 150.787346 570.607928 150.787346 570.883851 150.787346 571.159774 150.787346 571.435696 150.787346 571.711619 150.787346 571.987541 150.787346 572.263464 150.787346 572.539387 150.787346 572.815309 150.787346 573.091232 150.787346 573.367154 150.787346 573.643077 150.787346 573.919000 150.787346 574.194922 150.787346 574.470845 150.787346 574.746767 150.787346 575.022690 150.787346 575.298613 150.787346 575.574535 150.787346 575.850458 150.787346 576.126380 150.787346 576.402303 150.787346 576.678226 150.787346 576.954148 150.787346 577.230071 150.787346 577.505993 150.787346 577.781916 150.787346 578.057838 150.787346 578.333761 150.787346 578.609684 150.787346 578.885606 150.787346 579.161529 150.787346 579.437451 150.787346 579.713374 150.787346 579.989297 150.787346 580.265219 150.787346 580.541142 150.787346 580.817064 150.787346 581.092987 150.787346 581.368910 150.787346 581.644832 150.787346 581.920755 150.787346 582.196677 150.787346 582.472600 150.787346 582.748523 150.787346 583.024445 150.787346 583.300368 150.787346 583.576290 150.787346 583.852213 150.787346 584.128136 150.787346 584.404058 150.787346 584.679981 150.787346 584.955903 150.787346 585.231826 150.787346 585.507749 150.787346 585.783671 150.787346 586.059594 150.787346 586.335516 150.787346 586.611439 150.787346 586.887362 150.787346 587.163284 150.787346 587.439207 150.787346 587.715129 150.787346 587.991052 150.787346 588.266975 150.787346 588.542897 150.787346 588.818820 150.787346 589.094742 150.787346 589.370665 150.787346 589.646588 150.787346 589.922510 150.787346 590.198433 150.787346 590.474355 150.787346 590.750278 150.787346 591.026201 150.787346 591.302123 150.787346 591.578046 150.787346 591.853968 150.787346 592.129891 150.787346 592.405813 150.787346 592.681736 150.787346 592.957659 150.787346 593.233581 150.787346 593.509504 150.787346 593.785426 150.787346 594.061349 150.787346 594.337272 150.787346 594.613194 150.787346 594.889117 150.787346 595.165039 150.787346 595.440962 150.787346 595.716885 150.787346 595.992807 150.787346 596.268730 150.787346 596.544652 150.787346 596.820575 150.787346 597.096498 150.787346 597.372420 150.787346 597.648343 150.787346 597.924265 150.787346 598.200188 150.787346 598.476111 150.787346 598.752033 150.787346 599.027956 150.787346 599.303878 150.787346 599.579801 150.787346 599.855724 150.787346 600.131646 150.787346 600.407569 150.787346 600.683491 150.787346 600.959414 150.787346 601.235337 150.787346 601.511259 150.787346 601.787182 150.787346 602.063104 150.787346 602.339027 150.787346 602.614950 150.787346 602.890872 150.787346 603.166795 150.787346 603.442717 150.787346 603.718640 150.787346 603.994563 150.787346 604.270485 150.787346 604.546408 150.787346 604.822330 150.787346 605.098253 150.787346 605.374175 150.787346 605.650098 150.787346 605.926021 150.787346 606.201943 150.787346 606.477866 150.787346 606.753788 150.787346 607.029711 150.787346 607.305634 150.787346 607.581556 150.787346 607.857479 150.787346 608.133401 150.787346 608.409324 150.787346 608.685247 150.787346 608.961169 150.787346 609.237092 150.787346 609.513014 150.787346 609.788937 150.787346 610.064860 150.787346 610.340782 150.787346 610.616705 150.787346 610.892627 150.787346 611.168550 150.787346 611.444473 150.787346 611.720395 150.787346 611.996318 150.787346 612.272240 150.787346 612.548163 150.787346 612.824086 150.787346 613.100008 150.787346 613.375931 150.787346 613.651853 150.787346 613.927776 150.787346 614.203699 150.787346 614.479621 150.787346 614.755544 150.787346 615.031466 150.787346 615.307389 150.787346 615.583312 150.787346 615.859234 150.787346 616.135157 150.787346 616.411079 150.787346 616.687002 150.787346 616.962925 150.787346 617.238847 150.787346 617.514770 150.787346 617.790692 150.787346 618.066615 150.787346 618.342538 150.787346 618.618460 150.787346 618.894383 150.787346 619.170305 150.787346 619.446228 150.787346 619.722150 150.787346 619.998073 150.787346 620.273996 150.787346 620.549918 150.787346 620.825841 150.787346 621.101763 150.787346 621.377686 150.787346 621.653609 150.787346 621.929531 150.787346 622.205454 150.787346 622.481376 150.787346 622.757299 150.787346 623.033222 150.787346 623.309144 150.787346 623.585067 150.787346 623.860989 150.787346 624.136912 150.787346 624.412835 150.787346 624.688757 150.787346 624.964680 150.787346 625.240602 150.787346 625.516525 150.787346 625.792448 150.787346 626.068370 150.787346 626.344293 150.787346 626.620215 150.787346 626.896138 150.787346 627.172061 150.787346 627.447983 150.787346 627.723906 150.787346 627.999828 150.787346 628.275751 150.787346 628.551674 150.787346 628.827596 150.787346 629.103519 150.787346 629.379441 150.787346 629.655364 150.787346 629.931287 150.787346 630.207209 150.787346 630.483132 150.787346 630.759054 150.787346 631.034977 150.787346 631.310900 150.787346 631.586822 150.787346 631.862745 150.787346 632.138667 150.787346 632.414590 150.787346 632.690512 150.787346 632.966435 150.787346 633.242358 150.787346" class="line reactive nofill" /></g></g><g class="titles"><text x="400.0" y="26" class="title plot_title">主题: 路由器内存利用率</text></g><g transform="translate(120, 46)" class="plot overlay"><g class="series serie-0 color-0"><g class="dots"><circle cx="12.416516817366263" cy="150.78734600093713" r="2.5" class="dot reactive tooltip-trigger" /><desc class="value">70</desc><desc class="x ">12.416516817366263</desc><desc class="y ">150.78734600093713</desc><desc class="x_label">10:46:02</desc></g><g class="dots"><circle cx="81.39716580273438" cy="150.78734600093713" r="2.5" class="dot reactive tooltip-trigger" /><desc class="value">70</desc><desc class="x ">81.39716580273438</desc><desc class="y ">150.78734600093713</desc><desc class="x_label">10:46:31</desc></g><g class="dots"><circle cx="150.37781478810248" cy="150.78734600093713" r="2.5" class="dot reactive tooltip-trigger" /><desc class="value">70</desc><desc class="x ">150.37781478810248</desc><desc class="y ">150.78734600093713</desc><desc class="x_label">10:47:01</desc></g><g class="dots"><circle cx="219.35846377347065" cy="150.78734600093713" r="2.5" class="dot reactive tooltip-trigger" /><desc class="value">70</desc><desc class="x ">219.35846377347065</desc><desc class="y ">150.78734600093713</desc><desc class="x_label">10:47:31</desc></g><g class="dots"><circle cx="288.3391127588387" cy="150.78734600093713" r="2.5" class="dot reactive tooltip-trigger" /><desc class="value">70</desc><desc class="x ">288.3391127588387</desc><desc class="y ">150.78734600093713</desc><desc class="x_label">10:48:01</desc></g><g class="dots"><circle cx="357.3197617442069" cy="150.78734600093713" r="2.5" class="dot reactive tooltip-trigger" /><desc class="value">70</desc><desc class="x left">357.3197617442069</desc><desc class="y left">150.78734600093713</desc><desc class="x_label">10:48:31</desc></g><g class="dots"><circle cx="426.300410729575" cy="150.78734600093713" r="2.5" class="dot reactive tooltip-trigger" /><desc class="value">70</desc><desc class="x left">426.300410729575</desc><desc class="y left">150.78734600093713</desc><desc class="x_label">10:49:02</desc></g><g class="dots"><circle cx="495.2810597149431" cy="150.78734600093713" r="2.5" class="dot reactive tooltip-trigger" /><desc class="value">70</desc><desc class="x left">495.2810597149431</desc><desc class="y left">150.78734600093713</desc><desc class="x_label">10:49:31</desc></g><g class="dots"><circle cx="564.2617087003113" cy="150.78734600093713" r="2.5" class="dot reactive tooltip-trigger" /><desc class="value">70</desc><desc class="x left">564.2617087003113</desc><desc class="y left">150.78734600093713</desc><desc class="x_label">10:50:01</desc></g><g class="dots"><circle cx="633.2423576856794" cy="150.78734600093713" r="2.5" class="dot reactive tooltip-trigger" /><desc class="value">70</desc><desc class="x left">633.2423576856794</desc><desc class="y left">150.78734600093713</desc><desc class="x_label">10:50:31</desc></g></g></g><g transform="translate(120, 46)" class="plot text-overlay"><g class="series serie-0 color-0" /></g><g transform="translate(120, 46)" class="plot tooltip-overlay"><g transform="translate(0 0)" style="opacity: 0" class="tooltip"><rect rx="0" ry="0" width="0" height="0" class="tooltip-box" /><g class="text" /></g></g><g transform="translate(10, 56)" class="legends"><g id="activate-serie-0" class="legend reactive activate-serie"><rect x="0.0" y="1.0" width="12" height="12" class="color-0 reactive" /><text x="17.0" y="11.2">MEM利用率</text></g></g><g transform="translate(776, 56)" class="legends" /></g></svg>