<?xml version='1.0' encoding='utf-8'?>
<svg xmlns:xlink="http://www.w3.org/1999/xlink" xmlns="http://www.w3.org/2000/svg" id="chart-2ec9b827-477b-432b-af70-7b8367e82f04" class="pygal-chart" viewBox="0 0 800 600"><!--Generated with pygal 3.0.5 (etree) ©Kozea 2012-2016 on 2025-03-15--><!--http://pygal.org--><!--http://github.com/Kozea/pygal--><defs><style type="text/css">#chart-2ec9b827-477b-432b-af70-7b8367e82f04{-webkit-user-select:none;-webkit-font-smoothing:antialiased;font-family:Consolas,"Liberation Mono",Menlo,Courier,monospace}#chart-2ec9b827-477b-432b-af70-7b8367e82f04 .title{font-family:Noto Sans CJK SC;font-size:16px}#chart-2ec9b827-477b-432b-af70-7b8367e82f04 .legends .legend text{font-family:Noto Sans CJK SC;font-size:14px}#chart-2ec9b827-477b-432b-af70-7b8367e82f04 .axis text{font-family:Noto Sans CJK SC;font-size:10px}#chart-2ec9b827-477b-432b-af70-7b8367e82f04 .axis text.major{font-family:Noto Sans CJK SC;font-size:10px}#chart-2ec9b827-477b-432b-af70-7b8367e82f04 .text-overlay text.value{font-family:Noto Sans CJK SC;font-size:16px}#chart-2ec9b827-477b-432b-af70-7b8367e82f04 .text-overlay text.label{font-family:Consolas,"Liberation Mono",Menlo,Courier,monospace;font-size:10px}#chart-2ec9b827-477b-432b-af70-7b8367e82f04 .tooltip{font-family:Consolas,"Liberation Mono",Menlo,Courier,monospace;font-size:14px}#chart-2ec9b827-477b-432b-af70-7b8367e82f04 text.no_data{font-family:Consolas,"Liberation Mono",Menlo,Courier,monospace;font-size:64px}
#chart-2ec9b827-477b-432b-af70-7b8367e82f04{background-color:rgba(249,249,249,1)}#chart-2ec9b827-477b-432b-af70-7b8367e82f04 path,#chart-2ec9b827-477b-432b-af70-7b8367e82f04 line,#chart-2ec9b827-477b-432b-af70-7b8367e82f04 rect,#chart-2ec9b827-477b-432b-af70-7b8367e82f04 circle{-webkit-transition:150ms;-moz-transition:150ms;transition:150ms}#chart-2ec9b827-477b-432b-af70-7b8367e82f04 .graph &gt; .background{fill:rgba(249,249,249,1)}#chart-2ec9b827-477b-432b-af70-7b8367e82f04 .plot &gt; .background{fill:rgba(255,255,255,1)}#chart-2ec9b827-477b-432b-af70-7b8367e82f04 .graph{fill:rgba(0,0,0,.87)}#chart-2ec9b827-477b-432b-af70-7b8367e82f04 text.no_data{fill:rgba(0,0,0,1)}#chart-2ec9b827-477b-432b-af70-7b8367e82f04 .title{fill:rgba(0,0,0,1)}#chart-2ec9b827-477b-432b-af70-7b8367e82f04 .legends .legend text{fill:rgba(0,0,0,.87)}#chart-2ec9b827-477b-432b-af70-7b8367e82f04 .legends .legend:hover text{fill:rgba(0,0,0,1)}#chart-2ec9b827-477b-432b-af70-7b8367e82f04 .axis .line{stroke:rgba(0,0,0,1)}#chart-2ec9b827-477b-432b-af70-7b8367e82f04 .axis .guide.line{stroke:rgba(0,0,0,.54)}#chart-2ec9b827-477b-432b-af70-7b8367e82f04 .axis .major.line{stroke:rgba(0,0,0,.87)}#chart-2ec9b827-477b-432b-af70-7b8367e82f04 .axis text.major{fill:rgba(0,0,0,1)}#chart-2ec9b827-477b-432b-af70-7b8367e82f04 .axis.y .guides:hover .guide.line,#chart-2ec9b827-477b-432b-af70-7b8367e82f04 .line-graph .axis.x .guides:hover .guide.line,#chart-2ec9b827-477b-432b-af70-7b8367e82f04 .stackedline-graph .axis.x .guides:hover .guide.line,#chart-2ec9b827-477b-432b-af70-7b8367e82f04 .xy-graph .axis.x .guides:hover .guide.line{stroke:rgba(0,0,0,1)}#chart-2ec9b827-477b-432b-af70-7b8367e82f04 .axis .guides:hover text{fill:rgba(0,0,0,1)}#chart-2ec9b827-477b-432b-af70-7b8367e82f04 .reactive{fill-opacity:.7;stroke-opacity:.8;stroke-width:1}#chart-2ec9b827-477b-432b-af70-7b8367e82f04 .ci{stroke:rgba(0,0,0,.87)}#chart-2ec9b827-477b-432b-af70-7b8367e82f04 .reactive.active,#chart-2ec9b827-477b-432b-af70-7b8367e82f04 .active .reactive{fill-opacity:.8;stroke-opacity:.9;stroke-width:4}#chart-2ec9b827-477b-432b-af70-7b8367e82f04 .ci .reactive.active{stroke-width:1.5}#chart-2ec9b827-477b-432b-af70-7b8367e82f04 .series text{fill:rgba(0,0,0,1)}#chart-2ec9b827-477b-432b-af70-7b8367e82f04 .tooltip rect{fill:rgba(255,255,255,1);stroke:rgba(0,0,0,1);-webkit-transition:opacity 150ms;-moz-transition:opacity 150ms;transition:opacity 150ms}#chart-2ec9b827-477b-432b-af70-7b8367e82f04 .tooltip .label{fill:rgba(0,0,0,.87)}#chart-2ec9b827-477b-432b-af70-7b8367e82f04 .tooltip .label{fill:rgba(0,0,0,.87)}#chart-2ec9b827-477b-432b-af70-7b8367e82f04 .tooltip .legend{font-size:.8em;fill:rgba(0,0,0,.54)}#chart-2ec9b827-477b-432b-af70-7b8367e82f04 .tooltip .x_label{font-size:.6em;fill:rgba(0,0,0,1)}#chart-2ec9b827-477b-432b-af70-7b8367e82f04 .tooltip .xlink{font-size:.5em;text-decoration:underline}#chart-2ec9b827-477b-432b-af70-7b8367e82f04 .tooltip .value{font-size:1.5em}#chart-2ec9b827-477b-432b-af70-7b8367e82f04 .bound{font-size:.5em}#chart-2ec9b827-477b-432b-af70-7b8367e82f04 .max-value{font-size:.75em;fill:rgba(0,0,0,.54)}#chart-2ec9b827-477b-432b-af70-7b8367e82f04 .map-element{fill:rgba(255,255,255,1);stroke:rgba(0,0,0,.54) !important}#chart-2ec9b827-477b-432b-af70-7b8367e82f04 .map-element .reactive{fill-opacity:inherit;stroke-opacity:inherit}#chart-2ec9b827-477b-432b-af70-7b8367e82f04 .color-0,#chart-2ec9b827-477b-432b-af70-7b8367e82f04 .color-0 a:visited{stroke:#F44336;fill:#F44336}#chart-2ec9b827-477b-432b-af70-7b8367e82f04 .text-overlay .color-0 text{fill:black}
#chart-2ec9b827-477b-432b-af70-7b8367e82f04 text.no_data{text-anchor:middle}#chart-2ec9b827-477b-432b-af70-7b8367e82f04 .guide.line{fill:none}#chart-2ec9b827-477b-432b-af70-7b8367e82f04 .centered{text-anchor:middle}#chart-2ec9b827-477b-432b-af70-7b8367e82f04 .title{text-anchor:middle}#chart-2ec9b827-477b-432b-af70-7b8367e82f04 .legends .legend text{fill-opacity:1}#chart-2ec9b827-477b-432b-af70-7b8367e82f04 .axis.x text{text-anchor:middle}#chart-2ec9b827-477b-432b-af70-7b8367e82f04 .axis.x:not(.web) text[transform]{text-anchor:start}#chart-2ec9b827-477b-432b-af70-7b8367e82f04 .axis.x:not(.web) text[transform].backwards{text-anchor:end}#chart-2ec9b827-477b-432b-af70-7b8367e82f04 .axis.y text{text-anchor:end}#chart-2ec9b827-477b-432b-af70-7b8367e82f04 .axis.y text[transform].backwards{text-anchor:start}#chart-2ec9b827-477b-432b-af70-7b8367e82f04 .axis.y2 text{text-anchor:start}#chart-2ec9b827-477b-432b-af70-7b8367e82f04 .axis.y2 text[transform].backwards{text-anchor:end}#chart-2ec9b827-477b-432b-af70-7b8367e82f04 .axis .guide.line{stroke-dasharray:4,4;stroke:black}#chart-2ec9b827-477b-432b-af70-7b8367e82f04 .axis .major.guide.line{stroke-dasharray:6,6;stroke:black}#chart-2ec9b827-477b-432b-af70-7b8367e82f04 .horizontal .axis.y .guide.line,#chart-2ec9b827-477b-432b-af70-7b8367e82f04 .horizontal .axis.y2 .guide.line,#chart-2ec9b827-477b-432b-af70-7b8367e82f04 .vertical .axis.x .guide.line{opacity:0}#chart-2ec9b827-477b-432b-af70-7b8367e82f04 .horizontal .axis.always_show .guide.line,#chart-2ec9b827-477b-432b-af70-7b8367e82f04 .vertical .axis.always_show .guide.line{opacity:1 !important}#chart-2ec9b827-477b-432b-af70-7b8367e82f04 .axis.y .guides:hover .guide.line,#chart-2ec9b827-477b-432b-af70-7b8367e82f04 .axis.y2 .guides:hover .guide.line,#chart-2ec9b827-477b-432b-af70-7b8367e82f04 .axis.x .guides:hover .guide.line{opacity:1}#chart-2ec9b827-477b-432b-af70-7b8367e82f04 .axis .guides:hover text{opacity:1}#chart-2ec9b827-477b-432b-af70-7b8367e82f04 .nofill{fill:none}#chart-2ec9b827-477b-432b-af70-7b8367e82f04 .subtle-fill{fill-opacity:.2}#chart-2ec9b827-477b-432b-af70-7b8367e82f04 .dot{stroke-width:1px;fill-opacity:1;stroke-opacity:1}#chart-2ec9b827-477b-432b-af70-7b8367e82f04 .dot.active{stroke-width:5px}#chart-2ec9b827-477b-432b-af70-7b8367e82f04 .dot.negative{fill:transparent}#chart-2ec9b827-477b-432b-af70-7b8367e82f04 text,#chart-2ec9b827-477b-432b-af70-7b8367e82f04 tspan{stroke:none !important}#chart-2ec9b827-477b-432b-af70-7b8367e82f04 .series text.active{opacity:1}#chart-2ec9b827-477b-432b-af70-7b8367e82f04 .tooltip rect{fill-opacity:.95;stroke-width:.5}#chart-2ec9b827-477b-432b-af70-7b8367e82f04 .tooltip text{fill-opacity:1}#chart-2ec9b827-477b-432b-af70-7b8367e82f04 .showable{visibility:hidden}#chart-2ec9b827-477b-432b-af70-7b8367e82f04 .showable.shown{visibility:visible}#chart-2ec9b827-477b-432b-af70-7b8367e82f04 .gauge-background{fill:rgba(229,229,229,1);stroke:none}#chart-2ec9b827-477b-432b-af70-7b8367e82f04 .bg-lines{stroke:rgba(249,249,249,1);stroke-width:2px}</style><script type="text/javascript">window.pygal = window.pygal || {};window.pygal.config = window.pygal.config || {};window.pygal.config['2ec9b827-477b-432b-af70-7b8367e82f04'] = {"allow_interruptions": false, "box_mode": "extremes", "classes": ["pygal-chart"], "css": ["file://style.css", "file://graph.css"], "defs": [], "disable_xml_declaration": false, "dots_size": 2.5, "dynamic_print_values": false, "explicit_size": false, "fill": false, "force_uri_protocol": "https", "formatter": null, "half_pie": false, "height": 600, "include_x_axis": false, "inner_radius": 0, "interpolate": "cubic", "interpolation_parameters": {}, "interpolation_precision": 250, "inverse_y_axis": false, "js": ["//kozea.github.io/pygal.js/2.0.x/pygal-tooltips.min.js"], "legend_at_bottom": false, "legend_at_bottom_columns": null, "legend_box_size": 12, "logarithmic": false, "margin": 20, "margin_bottom": null, "margin_left": null, "margin_right": null, "margin_top": null, "max_scale": 16, "min_scale": 4, "missing_value_fill_truncation": "x", "no_data_text": "No data", "no_prefix": false, "order_min": null, "pretty_print": false, "print_labels": false, "print_values": false, "print_values_position": "center", "print_zeroes": true, "range": [0, 100], "rounded_bars": null, "secondary_range": null, "show_dots": true, "show_legend": true, "show_minor_x_labels": true, "show_minor_y_labels": true, "show_only_major_dots": false, "show_x_guides": false, "show_x_labels": true, "show_y_guides": true, "show_y_labels": true, "spacing": 10, "stack_from_top": false, "strict": false, "stroke": true, "stroke_style": null, "style": {"background": "rgba(249, 249, 249, 1)", "ci_colors": [], "colors": ["#F44336", "#3F51B5", "#009688", "#FFC107", "#FF5722", "#9C27B0", "#03A9F4", "#8BC34A", "#FF9800", "#E91E63", "#2196F3", "#4CAF50", "#FFEB3B", "#673AB7", "#00BCD4", "#CDDC39", "#9E9E9E", "#607D8B"], "dot_opacity": "1", "font_family": "Consolas, \"Liberation Mono\", Menlo, Courier, monospace", "foreground": "rgba(0, 0, 0, .87)", "foreground_strong": "rgba(0, 0, 0, 1)", "foreground_subtle": "rgba(0, 0, 0, .54)", "guide_stroke_color": "black", "guide_stroke_dasharray": "4,4", "label_font_family": "Noto Sans CJK SC", "label_font_size": 10, "legend_font_family": "Noto Sans CJK SC", "legend_font_size": 14, "major_guide_stroke_color": "black", "major_guide_stroke_dasharray": "6,6", "major_label_font_family": "Noto Sans CJK SC", "major_label_font_size": 10, "no_data_font_family": "Consolas, \"Liberation Mono\", Menlo, Courier, monospace", "no_data_font_size": 64, "opacity": ".7", "opacity_hover": ".8", "plot_background": "rgba(255, 255, 255, 1)", "stroke_opacity": ".8", "stroke_opacity_hover": ".9", "stroke_width": "1", "stroke_width_hover": "4", "title_font_family": "Noto Sans CJK SC", "title_font_size": 16, "tooltip_font_family": "Consolas, \"Liberation Mono\", Menlo, Courier, monospace", "tooltip_font_size": 14, "transition": "150ms", "value_background": "rgba(229, 229, 229, 1)", "value_colors": [], "value_font_family": "Noto Sans CJK SC", "value_font_size": 16, "value_label_font_family": "Consolas, \"Liberation Mono\", Menlo, Courier, monospace", "value_label_font_size": 10}, "title": "\u4e3b\u9898: \u8def\u7531\u5668CPU\u5229\u7528\u7387", "tooltip_border_radius": 0, "tooltip_fancy_mode": true, "truncate_label": null, "truncate_legend": null, "width": 800, "x_label_rotation": 45, "x_labels": ["10:46:02", "10:46:31", "10:47:01", "10:47:31", "10:48:01", "10:48:31", "10:49:02", "10:49:31", "10:50:01", "10:50:31"], "x_labels_major": null, "x_labels_major_count": null, "x_labels_major_every": null, "x_title": null, "xrange": null, "y_label_rotation": 0, "y_labels": null, "y_labels_major": null, "y_labels_major_count": null, "y_labels_major_every": null, "y_title": null, "zero": 0, "legends": ["CPU\u5229\u7528\u7387"]}</script><script type="text/javascript" xlink:href="https://kozea.github.io/pygal.js/2.0.x/pygal-tooltips.min.js" /></defs><title>主题: 路由器CPU利用率</title><g class="graph line-graph vertical"><rect x="0" y="0" width="800" height="600" class="background" /><g transform="translate(120, 46)" class="plot"><rect x="0" y="0" width="645.6588745030457" height="490.05887450304573" class="background" /><g class="axis y always_show"><g class="guides"><path d="M0.000000 480.634665 h645.658875" class="axis major line" /><text x="-5" y="484.1346653779872" class="major">0</text><title>0</title></g><g class="guides"><path d="M0.000000 433.513620 h645.658875" class="guide line" /><text x="-5" y="437.0136197526943" class="">10</text><title>10</title></g><g class="guides"><path d="M0.000000 386.392574 h645.658875" class="guide line" /><text x="-5" y="389.8925741274014" class="">20</text><title>20</title></g><g class="guides"><path d="M0.000000 339.271529 h645.658875" class="guide line" /><text x="-5" y="342.7715285021086" class="">30</text><title>30</title></g><g class="guides"><path d="M0.000000 292.150483 h645.658875" class="guide line" /><text x="-5" y="295.6504828768158" class="">40</text><title>40</title></g><g class="guides"><path d="M0.000000 245.029437 h645.658875" class="major guide line" /><text x="-5" y="248.52943725152286" class="major">50</text><title>50</title></g><g class="guides"><path d="M0.000000 197.908392 h645.658875" class="guide line" /><text x="-5" y="201.40839162623" class="">60</text><title>60</title></g><g class="guides"><path d="M0.000000 150.787346 h645.658875" class="guide line" /><text x="-5" y="154.28734600093713" class="">70</text><title>70</title></g><g class="guides"><path d="M0.000000 103.666300 h645.658875" class="guide line" /><text x="-5" y="107.16630037564425" class="">80</text><title>80</title></g><g class="guides"><path d="M0.000000 56.545255 h645.658875" class="guide line" /><text x="-5" y="60.045254750351376" class="">90</text><title>90</title></g><g class="guides"><path d="M0.000000 9.424209 h645.658875" class="major guide line" /><text x="-5" y="12.92420912505861" class="major">100</text><title>100</title></g></g><g class="axis x"><g class="guides"><path d="M12.416517 0.000000 v490.058875" class="line" /><text x="12.416516817366263" y="505.05887450304573" class="" transform="rotate(45 12.416517 505.058875)">10:46:02</text></g><g class="guides"><path d="M81.397166 0.000000 v490.058875" class="guide line" /><text x="81.39716580273438" y="505.05887450304573" class="" transform="rotate(45 81.397166 505.058875)">10:46:31</text></g><g class="guides"><path d="M150.377815 0.000000 v490.058875" class="guide line" /><text x="150.37781478810248" y="505.05887450304573" class="" transform="rotate(45 150.377815 505.058875)">10:47:01</text></g><g class="guides"><path d="M219.358464 0.000000 v490.058875" class="guide line" /><text x="219.35846377347065" y="505.05887450304573" class="" transform="rotate(45 219.358464 505.058875)">10:47:31</text></g><g class="guides"><path d="M288.339113 0.000000 v490.058875" class="guide line" /><text x="288.3391127588387" y="505.05887450304573" class="" transform="rotate(45 288.339113 505.058875)">10:48:01</text></g><g class="guides"><path d="M357.319762 0.000000 v490.058875" class="guide line" /><text x="357.3197617442069" y="505.05887450304573" class="" transform="rotate(45 357.319762 505.058875)">10:48:31</text></g><g class="guides"><path d="M426.300411 0.000000 v490.058875" class="guide line" /><text x="426.300410729575" y="505.05887450304573" class="" transform="rotate(45 426.300411 505.058875)">10:49:02</text></g><g class="guides"><path d="M495.281060 0.000000 v490.058875" class="guide line" /><text x="495.2810597149431" y="505.05887450304573" class="" transform="rotate(45 495.281060 505.058875)">10:49:31</text></g><g class="guides"><path d="M564.261709 0.000000 v490.058875" class="guide line" /><text x="564.2617087003113" y="505.05887450304573" class="" transform="rotate(45 564.261709 505.058875)">10:50:01</text></g><g class="guides"><path d="M633.242358 0.000000 v490.058875" class="guide line" /><text x="633.2423576856794" y="505.05887450304573" class="" transform="rotate(45 633.242358 505.058875)">10:50:31</text></g></g><g class="series serie-0 color-0"><path d="M12.416517 447.649933 L12.692439 447.759597 12.968362 447.869258 13.244285 447.978912 13.520207 448.088556 13.796130 448.198187 14.072052 448.307801 14.347975 448.417396 14.623898 448.526968 14.899820 448.636513 15.175743 448.746029 15.451665 448.855512 15.727588 448.964958 16.003511 449.074366 16.279433 449.183730 16.555356 449.293048 16.831278 449.402317 17.107201 449.511534 17.383124 449.620694 17.659046 449.729795 17.934969 449.838834 18.210891 449.947807 18.486814 450.056711 18.762737 450.165542 19.038659 450.274298 19.314582 450.382975 19.590504 450.491570 19.866427 450.600079 20.142350 450.708499 20.418272 450.816827 20.694195 450.925060 20.970117 451.033194 21.246040 451.141226 21.521962 451.249152 21.797885 451.356970 22.073808 451.464677 22.349730 451.572268 22.625653 451.679740 22.901575 451.787091 23.177498 451.894317 23.453421 452.001415 23.729343 452.108381 24.005266 452.215212 24.281188 452.321905 24.557111 452.428457 24.833034 452.534863 25.108956 452.641122 25.384879 452.747229 25.660801 452.853182 25.936724 452.958977 26.212647 453.064611 26.488569 453.170080 26.764492 453.275381 27.040414 453.380511 27.316337 453.485467 27.592260 453.590245 27.868182 453.694842 28.144105 453.799255 28.420027 453.903481 28.695950 454.007516 28.971873 454.111356 29.247795 454.214999 29.523718 454.318442 29.799640 454.421680 30.075563 454.524711 30.351486 454.627532 30.627408 454.730139 30.903331 454.832528 31.179253 454.934698 31.455176 455.036643 31.731099 455.138362 32.007021 455.239850 32.282944 455.341105 32.558866 455.442122 32.834789 455.542900 33.110712 455.643434 33.386634 455.743721 33.662557 455.843759 33.938479 455.943543 34.214402 456.043070 34.490324 456.142337 34.766247 456.241342 35.042170 456.340079 35.318092 456.438547 35.594015 456.536742 35.869937 456.634661 36.145860 456.732300 36.421783 456.829656 36.697705 456.926726 36.973628 457.023506 37.249550 457.119993 37.525473 457.216185 37.801396 457.312077 38.077318 457.407666 38.353241 457.502949 38.629163 457.597923 38.905086 457.692585 39.181009 457.786930 39.456931 457.880957 39.732854 457.974661 40.008776 458.068039 40.284699 458.161089 40.560622 458.253806 40.836544 458.346187 41.112467 458.438230 41.388389 458.529930 41.664312 458.621285 41.940235 458.712292 42.216157 458.802946 42.492080 458.893245 42.768002 458.983185 43.043925 459.072764 43.319848 459.161977 43.595770 459.250822 43.871693 459.339295 44.147615 459.427393 44.423538 459.515112 44.699461 459.602450 44.975383 459.689403 45.251306 459.775968 45.527228 459.862142 45.803151 459.947920 46.079074 460.033301 46.354996 460.118280 46.630919 460.202854 46.906841 460.287020 47.182764 460.370776 47.458687 460.454116 47.734609 460.537039 48.010532 460.619541 48.286454 460.701618 48.562377 460.783268 48.838299 460.864486 49.114222 460.945270 49.390145 461.025617 49.666067 461.105523 49.941990 461.184985 50.217912 461.263999 50.493835 461.342563 50.769758 461.420672 51.045680 461.498325 51.321603 461.575516 51.597525 461.652244 51.873448 461.728505 52.149371 461.804295 52.425293 461.879611 52.701216 461.954450 52.977138 462.028809 53.253061 462.102685 53.528984 462.176073 53.804906 462.248971 54.080829 462.321376 54.356751 462.393284 54.632674 462.464692 54.908597 462.535596 55.184519 462.605994 55.460442 462.675882 55.736364 462.745257 56.012287 462.814115 56.288210 462.882453 56.564132 462.950268 56.840055 463.017557 57.115977 463.084316 57.391900 463.150542 57.667823 463.216232 57.943745 463.281382 58.219668 463.345990 58.495590 463.410051 58.771513 463.473563 59.047436 463.536522 59.323358 463.598925 59.599281 463.660769 59.875203 463.722050 60.151126 463.782766 60.427049 463.842912 60.702971 463.902486 60.978894 463.961484 61.254816 464.019903 61.530739 464.077740 61.806661 464.134991 62.082584 464.191653 62.358507 464.247723 62.634429 464.303197 62.910352 464.358073 63.186274 464.412346 63.462197 464.466015 63.738120 464.519074 64.014042 464.571522 64.289965 464.623354 64.565887 464.674568 64.841810 464.725160 65.117733 464.775127 65.393655 464.824466 65.669578 464.873173 65.945500 464.921245 66.221423 464.968679 66.497346 465.015471 66.773268 465.061618 67.049191 465.107117 67.325113 465.151965 67.601036 465.196158 67.876959 465.239693 68.152881 465.282567 68.428804 465.324776 68.704726 465.366318 68.980649 465.407188 69.256572 465.447384 69.532494 465.486902 69.808417 465.525739 70.084339 465.563891 70.360262 465.601356 70.636185 465.638130 70.912107 465.674210 71.188030 465.709593 71.463952 465.744275 71.739875 465.778252 72.015798 465.811523 72.291720 465.844082 72.567643 465.875928 72.843565 465.907057 73.119488 465.937465 73.395411 465.967149 73.671333 465.996106 73.947256 466.024333 74.223178 466.051826 74.499101 466.078582 74.775024 466.104598 75.050946 466.129870 75.326869 466.154396 75.602791 466.178171 75.878714 466.201193 76.154636 466.223459 76.430559 466.244964 76.706482 466.265706 76.982404 466.285682 77.258327 466.304887 77.534249 466.323320 77.810172 466.340976 78.086095 466.357852 78.362017 466.373945 78.637940 466.389252 78.913862 466.403770 79.189785 466.417494 79.465708 466.430423 79.741630 466.442552 80.017553 466.453878 80.293475 466.464398 80.569398 466.474108 80.845321 466.483007 81.121243 466.491089 81.397166 466.498352 81.673088 466.504794 81.949011 466.510419 82.224934 466.515232 82.500856 466.519240 82.776779 466.522448 83.052701 466.524862 83.328624 466.526486 83.604547 466.527327 83.880469 466.527391 84.156392 466.526682 84.432314 466.525206 84.708237 466.522970 84.984160 466.519978 85.260082 466.516237 85.536005 466.511751 85.811927 466.506527 86.087850 466.500570 86.363773 466.493885 86.639695 466.486478 86.915618 466.478356 87.191540 466.469522 87.467463 466.459984 87.743386 466.449746 88.019308 466.438814 88.295231 466.427194 88.571153 466.414892 88.847076 466.401912 89.122998 466.388261 89.398921 466.373944 89.674844 466.358966 89.950766 466.343334 90.226689 466.327053 90.502611 466.310128 90.778534 466.292566 91.054457 466.274371 91.330379 466.255549 91.606302 466.236106 91.882224 466.216048 92.158147 466.195379 92.434070 466.174107 92.709992 466.152235 92.985915 466.129771 93.261837 466.106719 93.537760 466.083084 93.813683 466.058874 94.089605 466.034092 94.365528 466.008746 94.641450 465.982840 94.917373 465.956379 95.193296 465.929371 95.469218 465.901819 95.745141 465.873731 96.021063 465.845110 96.296986 465.815964 96.572909 465.786297 96.848831 465.756115 97.124754 465.725424 97.400676 465.694229 97.676599 465.662537 97.952522 465.630351 98.228444 465.597679 98.504367 465.564526 98.780289 465.530896 99.056212 465.496797 99.332135 465.462233 99.608057 465.427210 99.883980 465.391734 100.159902 465.355810 100.435825 465.319444 100.711748 465.282642 100.987670 465.245408 101.263593 465.207749 101.539515 465.169670 101.815438 465.131177 102.091360 465.092276 102.367283 465.052971 102.643206 465.013269 102.919128 464.973175 103.195051 464.932695 103.470973 464.891835 103.746896 464.850599 104.022819 464.808994 104.298741 464.767025 104.574664 464.724698 104.850586 464.682018 105.126509 464.638991 105.402432 464.595623 105.678354 464.551918 105.954277 464.507884 106.230199 464.463524 106.506122 464.418846 106.782045 464.373854 107.057967 464.328554 107.333890 464.282952 107.609812 464.237053 107.885735 464.190863 108.161658 464.144388 108.437580 464.097632 108.713503 464.050602 108.989425 464.003304 109.265348 463.955742 109.541271 463.907922 109.817193 463.859851 110.093116 463.811533 110.369038 463.762975 110.644961 463.714181 110.920884 463.665158 111.196806 463.615910 111.472729 463.566444 111.748651 463.516766 112.024574 463.466880 112.300497 463.416792 112.576419 463.366509 112.852342 463.316034 113.128264 463.265376 113.404187 463.214537 113.680110 463.163525 113.956032 463.112345 114.231955 463.061003 114.507877 463.009504 114.783800 462.957853 115.059723 462.906057 115.335645 462.854120 115.611568 462.802049 115.887490 462.749849 116.163413 462.697526 116.439335 462.645085 116.715258 462.592531 116.991181 462.539872 117.267103 462.487111 117.543026 462.434255 117.818948 462.381309 118.094871 462.328279 118.370794 462.275170 118.646716 462.221988 118.922639 462.168739 119.198561 462.115428 119.474484 462.062061 119.750407 462.008643 120.026329 461.955181 120.302252 461.901678 120.578174 461.848142 120.854097 461.794578 121.130020 461.740991 121.405942 461.687387 121.681865 461.633771 121.957787 461.580150 122.233710 461.526528 122.509633 461.472912 122.785555 461.419306 123.061478 461.365717 123.337400 461.312150 123.613323 461.258611 123.889246 461.205105 124.165168 461.151638 124.441091 461.098215 124.717013 461.044842 124.992936 460.991525 125.268859 460.938270 125.544781 460.885081 125.820704 460.831964 126.096626 460.778926 126.372549 460.725971 126.648472 460.673105 126.924394 460.620334 127.200317 460.567664 127.476239 460.515099 127.752162 460.462646 128.028085 460.410311 128.304007 460.358097 128.579930 460.306013 128.855852 460.254062 129.131775 460.202251 129.407697 460.150585 129.683620 460.099070 129.959543 460.047711 130.235465 459.996514 130.511388 459.945484 130.787310 459.894628 131.063233 459.843950 131.339156 459.793456 131.615078 459.743153 131.891001 459.693045 132.166923 459.643138 132.442846 459.593437 132.718769 459.543949 132.994691 459.494679 133.270614 459.445632 133.546536 459.396814 133.822459 459.348231 134.098382 459.299888 134.374304 459.251791 134.650227 459.203945 134.926149 459.156356 135.202072 459.109030 135.477995 459.061972 135.753917 459.015188 136.029840 458.968683 136.305762 458.922463 136.581685 458.876534 136.857608 458.830901 137.133530 458.785569 137.409453 458.740545 137.685375 458.695834 137.961298 458.651442 138.237221 458.607373 138.513143 458.563634 138.789066 458.520231 139.064988 458.477168 139.340911 458.434452 139.616834 458.392088 139.892756 458.350082 140.168679 458.308439 140.444601 458.267165 140.720524 458.226265 140.996447 458.185745 141.272369 458.145611 141.548292 458.105868 141.824214 458.066522 142.100137 458.027579 142.376060 457.989043 142.651982 457.950922 142.927905 457.913219 143.203827 457.875941 143.479750 457.839093 143.755672 457.802682 144.031595 457.766712 144.307518 457.731189 144.583440 457.696119 144.859363 457.661507 145.135285 457.627360 145.411208 457.593682 145.687131 457.560478 145.963053 457.527756 146.238976 457.495520 146.514898 457.463776 146.790821 457.432530 147.066744 457.401786 147.342666 457.371551 147.618589 457.341831 147.894511 457.312630 148.170434 457.283955 148.446357 457.255811 148.722279 457.228204 148.998202 457.201139 149.274124 457.174621 149.550047 457.148657 149.825970 457.123253 150.101892 457.098413 150.377815 457.074143 150.653737 457.050447 150.929660 457.027325 151.205583 457.004772 151.481505 456.982787 151.757428 456.961367 152.033350 456.940509 152.309273 456.920209 152.585196 456.900466 152.861118 456.881276 153.137041 456.862637 153.412963 456.844546 153.688886 456.827000 153.964809 456.809996 154.240731 456.793531 154.516654 456.777603 154.792576 456.762209 155.068499 456.747346 155.344422 456.733011 155.620344 456.719202 155.896267 456.705915 156.172189 456.693148 156.448112 456.680899 156.724034 456.669163 156.999957 456.657939 157.275880 456.647224 157.551802 456.637014 157.827725 456.627308 158.103647 456.618102 158.379570 456.609393 158.655493 456.601179 158.931415 456.593457 159.207338 456.586224 159.483260 456.579477 159.759183 456.573214 160.035106 456.567431 160.311028 456.562126 160.586951 456.557297 160.862873 456.552939 161.138796 456.549051 161.414719 456.545630 161.690641 456.542673 161.966564 456.540177 162.242486 456.538139 162.518409 456.536556 162.794332 456.535427 163.070254 456.534747 163.346177 456.534514 163.622099 456.534726 163.898022 456.535379 164.173945 456.536471 164.449867 456.537999 164.725790 456.539960 165.001712 456.542351 165.277635 456.545170 165.553558 456.548413 165.829480 456.552079 166.105403 456.556163 166.381325 456.560664 166.657248 456.565578 166.933171 456.570904 167.209093 456.576637 167.485016 456.582775 167.760938 456.589315 168.036861 456.596255 168.312784 456.603592 168.588706 456.611323 168.864629 456.619445 169.140551 456.627955 169.416474 456.636851 169.692397 456.646130 169.968319 456.655788 170.244242 456.665824 170.520164 456.676234 170.796087 456.687016 171.072009 456.698166 171.347932 456.709683 171.623855 456.721562 171.899777 456.733802 172.175700 456.746399 172.451622 456.759352 172.727545 456.772656 173.003468 456.786309 173.279390 456.800309 173.555313 456.814653 173.831235 456.829337 174.107158 456.844359 174.383081 456.859716 174.659003 456.875406 174.934926 456.891425 175.210848 456.907771 175.486771 456.924442 175.762694 456.941433 176.038616 456.958743 176.314539 456.976368 176.590461 456.994306 176.866384 457.012554 177.142307 457.031110 177.418229 457.049969 177.694152 457.069131 177.970074 457.088591 178.245997 457.108347 178.521920 457.128397 178.797842 457.148736 179.073765 457.169364 179.349687 457.190276 179.625610 457.211471 179.901533 457.232944 180.177455 457.254694 180.453378 457.276718 180.729300 457.299012 181.005223 457.321575 181.281146 457.344403 181.557068 457.367493 181.832991 457.390843 182.108913 457.414449 182.384836 457.438310 182.660759 457.462422 182.936681 457.486782 183.212604 457.511389 183.488526 457.536238 183.764449 457.561327 184.040371 457.586653 184.316294 457.612214 184.592217 457.638006 184.868139 457.664027 185.144062 457.690275 185.419984 457.716745 185.695907 457.743436 185.971830 457.770345 186.247752 457.797469 186.523675 457.824804 186.799597 457.852349 187.075520 457.880101 187.351443 457.908056 187.627365 457.936212 187.903288 457.964566 188.179210 457.993116 188.455133 458.021858 188.731056 458.050789 189.006978 458.079908 189.282901 458.109211 189.558823 458.138694 189.834746 458.168357 190.110669 458.198195 190.386591 458.228206 190.662514 458.258387 190.938436 458.288736 191.214359 458.319249 191.490282 458.349923 191.766204 458.380757 192.042127 458.411747 192.318049 458.442890 192.593972 458.474183 192.869895 458.505625 193.145817 458.537211 193.421740 458.568939 193.697662 458.600807 193.973585 458.632811 194.249508 458.664949 194.525430 458.697218 194.801353 458.729615 195.077275 458.762138 195.353198 458.794783 195.629121 458.827547 195.905043 458.860429 196.180966 458.893425 196.456888 458.926532 196.732811 458.959748 197.008734 458.993069 197.284656 459.026493 197.560579 459.060018 197.836501 459.093640 198.112424 459.127357 198.388346 459.161165 198.664269 459.195062 198.940192 459.229045 199.216114 459.263112 199.492037 459.297260 199.767959 459.331485 200.043882 459.365785 200.319805 459.400157 200.595727 459.434599 200.871650 459.469107 201.147572 459.503679 201.423495 459.538312 201.699418 459.573004 201.975340 459.607750 202.251263 459.642549 202.527185 459.677398 202.803108 459.712294 203.079031 459.747235 203.354953 459.782216 203.630876 459.817237 203.906798 459.852293 204.182721 459.887382 204.458644 459.922501 204.734566 459.957648 205.010489 459.992819 205.286411 460.028012 205.562334 460.063224 205.838257 460.098453 206.114179 460.133694 206.390102 460.168947 206.666024 460.204207 206.941947 460.239472 207.217870 460.274740 207.493792 460.310007 207.769715 460.345270 208.045637 460.380528 208.321560 460.415776 208.597483 460.451013 208.873405 460.486235 209.149328 460.521440 209.425250 460.556624 209.701173 460.591786 209.977096 460.626922 210.253018 460.662029 210.528941 460.697105 210.804863 460.732147 211.080786 460.767152 211.356708 460.802118 211.632631 460.837040 211.908554 460.871918 212.184476 460.906747 212.460399 460.941525 212.736321 460.976250 213.012244 461.010918 213.288167 461.045527 213.564089 461.080073 213.840012 461.114555 214.115934 461.148969 214.391857 461.183312 214.667780 461.217583 214.943702 461.251777 215.219625 461.285892 215.495547 461.319925 215.771470 461.353874 216.047393 461.387736 216.323315 461.421507 216.599238 461.455186 216.875160 461.488769 217.151083 461.522253 217.427006 461.555636 217.702928 461.588915 217.978851 461.622088 218.254773 461.655150 218.530696 461.688100 218.806619 461.720935 219.082541 461.753651 219.358464 461.786247 219.634386 461.818719 219.910309 461.851066 220.186232 461.883286 220.462154 461.915378 220.738077 461.947339 221.013999 461.979168 221.289922 462.010864 221.565845 462.042425 221.841767 462.073849 222.117690 462.105134 222.393612 462.136279 222.669535 462.167283 222.945458 462.198143 223.221380 462.228859 223.497303 462.259427 223.773225 462.289848 224.049148 462.320118 224.325071 462.350237 224.600993 462.380203 224.876916 462.410014 225.152838 462.439669 225.428761 462.469165 225.704683 462.498502 225.980606 462.527677 226.256529 462.556689 226.532451 462.585537 226.808374 462.614218 227.084296 462.642732 227.360219 462.671076 227.636142 462.699248 227.912064 462.727248 228.187987 462.755073 228.463909 462.782722 228.739832 462.810194 229.015755 462.837486 229.291677 462.864597 229.567600 462.891525 229.843522 462.918269 230.119445 462.944827 230.395368 462.971197 230.671290 462.997378 230.947213 463.023368 231.223135 463.049166 231.499058 463.074770 231.774981 463.100177 232.050903 463.125388 232.326826 463.150399 232.602748 463.175209 232.878671 463.199818 233.154594 463.224222 233.430516 463.248420 233.706439 463.272412 233.982361 463.296194 234.258284 463.319766 234.534207 463.343125 234.810129 463.366271 235.086052 463.389201 235.361974 463.411914 235.637897 463.434409 235.913820 463.456683 236.189742 463.478735 236.465665 463.500563 236.741587 463.522166 237.017510 463.543542 237.293433 463.564690 237.569355 463.585607 237.845278 463.606293 238.121200 463.626744 238.397123 463.646961 238.673045 463.666941 238.948968 463.686683 239.224891 463.706184 239.500813 463.725444 239.776736 463.744461 240.052658 463.763232 240.328581 463.781757 240.604504 463.800034 240.880426 463.818060 241.156349 463.835836 241.432271 463.853358 241.708194 463.870625 241.984117 463.887636 242.260039 463.904388 242.535962 463.920881 242.811884 463.937113 243.087807 463.953082 243.363730 463.968785 243.639652 463.984223 243.915575 463.999393 244.191497 464.014293 244.467420 464.028922 244.743343 464.043278 245.019265 464.057360 245.295188 464.071165 245.571110 464.084693 245.847033 464.097941 246.122956 464.110909 246.398878 464.123593 246.674801 464.135994 246.950723 464.148108 247.226646 464.159935 247.502569 464.171472 247.778491 464.182719 248.054414 464.193673 248.330336 464.204333 248.606259 464.214697 248.882182 464.224764 249.158104 464.234532 249.434027 464.243999 249.709949 464.253164 249.985872 464.262024 250.261795 464.270579 250.537717 464.278827 250.813640 464.286766 251.089562 464.294394 251.365485 464.301710 251.641407 464.308713 251.917330 464.315400 252.193253 464.321769 252.469175 464.327820 252.745098 464.333551 253.021020 464.338960 253.296943 464.344045 253.572866 464.348804 253.848788 464.353237 254.124711 464.357341 254.400633 464.361115 254.676556 464.364557 254.952479 464.367666 255.228401 464.370439 255.504324 464.372876 255.780246 464.374974 256.056169 464.376733 256.332092 464.378149 256.608014 464.379222 256.883937 464.379951 257.159859 464.380332 257.435782 464.380366 257.711705 464.380049 257.987627 464.379381 258.263550 464.378360 258.539472 464.376984 258.815395 464.375252 259.091318 464.373161 259.367240 464.370711 259.643163 464.367900 259.919085 464.364725 260.195008 464.361186 260.470931 464.357280 260.746853 464.353007 261.022776 464.348364 261.298698 464.343350 261.574621 464.337963 261.850544 464.332202 262.126466 464.326064 262.402389 464.319549 262.678311 464.312654 262.954234 464.305378 263.230157 464.297720 263.506079 464.289677 263.782002 464.281249 264.057924 464.272432 264.333847 464.263227 264.609770 464.253631 264.885692 464.243642 265.161615 464.233259 265.437537 464.222480 265.713460 464.211304 265.989382 464.199729 266.265305 464.187753 266.541228 464.175375 266.817150 464.162592 267.093073 464.149404 267.368995 464.135809 267.644918 464.121805 267.920841 464.107391 268.196763 464.092564 268.472686 464.077324 268.748608 464.061668 269.024531 464.045595 269.300454 464.029103 269.576376 464.012191 269.852299 463.994856 270.128221 463.977099 270.404144 463.958915 270.680067 463.940305 270.955989 463.921267 271.231912 463.901798 271.507834 463.881897 271.783757 463.861563 272.059680 463.840794 272.335602 463.819588 272.611525 463.797944 272.887447 463.775859 273.163370 463.753333 273.439293 463.730363 273.715215 463.706949 273.991138 463.683088 274.267060 463.658779 274.542983 463.634020 274.818906 463.608809 275.094828 463.583145 275.370751 463.557027 275.646673 463.530452 275.922596 463.503419 276.198519 463.475926 276.474441 463.447972 276.750364 463.419555 277.026286 463.390673 277.302209 463.361325 277.578132 463.331509 277.854054 463.301223 278.129977 463.270467 278.405899 463.239237 278.681822 463.207533 278.957744 463.175353 279.233667 463.142695 279.509590 463.109558 279.785512 463.075940 280.061435 463.041839 280.337357 463.007254 280.613280 462.972183 280.889203 462.936624 281.165125 462.900576 281.441048 462.864038 281.716970 462.827007 281.992893 462.789481 282.268816 462.751460 282.544738 462.712942 282.820661 462.673924 283.096583 462.634406 283.372506 462.594385 283.648429 462.553860 283.924351 462.512830 284.200274 462.471293 284.476196 462.429247 284.752119 462.386690 285.028042 462.343621 285.303964 462.300038 285.579887 462.255940 285.855809 462.211324 286.131732 462.166190 286.407655 462.120536 286.683577 462.074359 286.959500 462.027659 287.235422 461.980434 287.511345 461.932682 287.787268 461.884401 288.063190 461.835590 288.339113 461.786247 288.615035 461.736372 288.890958 461.685969 289.166881 461.635044 289.442803 461.583603 289.718726 461.531652 289.994648 461.479195 290.270571 461.426240 290.546494 461.372791 290.822416 461.318855 291.098339 461.264436 291.374261 461.209542 291.650184 461.154177 291.926107 461.098348 292.202029 461.042060 292.477952 460.985318 292.753874 460.928129 293.029797 460.870499 293.305719 460.812432 293.581642 460.753935 293.857565 460.695014 294.133487 460.635674 294.409410 460.575921 294.685332 460.515761 294.961255 460.455199 295.237178 460.394241 295.513100 460.332893 295.789023 460.271161 296.064945 460.209051 296.340868 460.146567 296.616791 460.083716 296.892713 460.020504 297.168636 459.956936 297.444558 459.893019 297.720481 459.828757 297.996404 459.764156 298.272326 459.699223 298.548249 459.633963 298.824171 459.568382 299.100094 459.502485 299.376017 459.436278 299.651939 459.369768 299.927862 459.302959 300.203784 459.235857 300.479707 459.168469 300.755630 459.100800 301.031552 459.032855 301.307475 458.964640 301.583397 458.896162 301.859320 458.827426 302.135243 458.758437 302.411165 458.689201 302.687088 458.619725 302.963010 458.550013 303.238933 458.480072 303.514856 458.409907 303.790778 458.339524 304.066701 458.268929 304.342623 458.198127 304.618546 458.127124 304.894469 458.055927 305.170391 457.984540 305.446314 457.912969 305.722236 457.841221 305.998159 457.769300 306.274081 457.697213 306.550004 457.624966 306.825927 457.552564 307.101849 457.480012 307.377772 457.407317 307.653694 457.334484 307.929617 457.261520 308.205540 457.188429 308.481462 457.115217 308.757385 457.041891 309.033307 456.968456 309.309230 456.894917 309.585153 456.821281 309.861075 456.747553 310.136998 456.673740 310.412920 456.599845 310.688843 456.525876 310.964766 456.451839 311.240688 456.377738 311.516611 456.303579 311.792533 456.229369 312.068456 456.155114 312.344379 456.080818 312.620301 456.006487 312.896224 455.932128 313.172146 455.857746 313.448069 455.783346 313.723992 455.708935 313.999914 455.634518 314.275837 455.560102 314.551759 455.485690 314.827682 455.411291 315.103605 455.336908 315.379527 455.262549 315.655450 455.188218 315.931372 455.113921 316.207295 455.039665 316.483218 454.965454 316.759140 454.891295 317.035063 454.817193 317.310985 454.743154 317.586908 454.669184 317.862831 454.595289 318.138753 454.521474 318.414676 454.447745 318.690598 454.374107 318.966521 454.300567 319.242444 454.227131 319.518366 454.153803 319.794289 454.080590 320.070211 454.007497 320.346134 453.934531 320.622056 453.861696 320.897979 453.788999 321.173902 453.716445 321.449824 453.644041 321.725747 453.571791 322.001669 453.499702 322.277592 453.427779 322.553515 453.356028 322.829437 453.284455 323.105360 453.213065 323.381282 453.141865 323.657205 453.070859 323.933128 453.000055 324.209050 452.929456 324.484973 452.859070 324.760895 452.788902 325.036818 452.718958 325.312741 452.649243 325.588663 452.579763 325.864586 452.510524 326.140508 452.441531 326.416431 452.372791 326.692354 452.304309 326.968276 452.236091 327.244199 452.168142 327.520121 452.100469 327.796044 452.033076 328.071967 451.965970 328.347889 451.899157 328.623812 451.832642 328.899734 451.766431 329.175657 451.700530 329.451580 451.634944 329.727502 451.569679 330.003425 451.504741 330.279347 451.440136 330.555270 451.375869 330.831193 451.311947 331.107115 451.248374 331.383038 451.185157 331.658960 451.122301 331.934883 451.059812 332.210806 450.997695 332.486728 450.935958 332.762651 450.874605 333.038573 450.813641 333.314496 450.753074 333.590418 450.692907 333.866341 450.633148 334.142264 450.573802 334.418186 450.514875 334.694109 450.456372 334.970031 450.398299 335.245954 450.340663 335.521877 450.283467 335.797799 450.226719 336.073722 450.170424 336.349644 450.114588 336.625567 450.059217 336.901490 450.004316 337.177412 449.949891 337.453335 449.895947 337.729257 449.842492 338.005180 449.789529 338.281103 449.737065 338.557025 449.685106 338.832948 449.633658 339.108870 449.582726 339.384793 449.532315 339.660716 449.482432 339.936638 449.433083 340.212561 449.384273 340.488483 449.336008 340.764406 449.288293 341.040329 449.241135 341.316251 449.194538 341.592174 449.148510 341.868096 449.103055 342.144019 449.058179 342.419942 449.013888 342.695864 448.970188 342.971787 448.927085 343.247709 448.884584 343.523632 448.842690 343.799555 448.801411 344.075477 448.760751 344.351400 448.720716 344.627322 448.681312 344.903245 448.642544 345.179168 448.604419 345.455090 448.566942 345.731013 448.530119 346.006935 448.493955 346.282858 448.458457 346.558781 448.423630 346.834703 448.389479 347.110626 448.356012 347.386548 448.323232 347.662471 448.291146 347.938393 448.259760 348.214316 448.229080 348.490239 448.199111 348.766161 448.169859 349.042084 448.141329 349.318006 448.113528 349.593929 448.086461 349.869852 448.060133 350.145774 448.034552 350.421697 448.009722 350.697619 447.985649 350.973542 447.962338 351.249465 447.939797 351.525387 447.918029 351.801310 447.897042 352.077232 447.876840 352.353155 447.857430 352.629078 447.838817 352.905000 447.821007 353.180923 447.804006 353.456845 447.787819 353.732768 447.772453 354.008691 447.757912 354.284613 447.744203 354.560536 447.731331 354.836458 447.719303 355.112381 447.708123 355.388304 447.697798 355.664226 447.688333 355.940149 447.679735 356.216071 447.672008 356.491994 447.665159 356.767917 447.659193 357.043839 447.654116 357.319762 447.649933 357.595684 447.646650 357.871607 447.644262 358.147530 447.642764 358.423452 447.642152 358.699375 447.642420 358.975297 447.643564 359.251220 447.645578 359.527143 447.648457 359.803065 447.652197 360.078988 447.656792 360.354910 447.662237 360.630833 447.668527 360.906755 447.675658 361.182678 447.683624 361.458601 447.692420 361.734523 447.702042 362.010446 447.712483 362.286368 447.723740 362.562291 447.735807 362.838214 447.748679 363.114136 447.762351 363.390059 447.776818 363.665981 447.792076 363.941904 447.808118 364.217827 447.824940 364.493749 447.842538 364.769672 447.860905 365.045594 447.880037 365.321517 447.899930 365.597440 447.920577 365.873362 447.941974 366.149285 447.964116 366.425207 447.986998 366.701130 448.010614 366.977053 448.034961 367.252975 448.060032 367.528898 448.085823 367.804820 448.112329 368.080743 448.139545 368.356666 448.167466 368.632588 448.196086 368.908511 448.225401 369.184433 448.255405 369.460356 448.286094 369.736279 448.317463 370.012201 448.349507 370.288124 448.382220 370.564046 448.415597 370.839969 448.449635 371.115892 448.484326 371.391814 448.519668 371.667737 448.555653 371.943659 448.592279 372.219582 448.629539 372.495505 448.667428 372.771427 448.705941 373.047350 448.745075 373.323272 448.784822 373.599195 448.825179 373.875118 448.866140 374.151040 448.907701 374.426963 448.949856 374.702885 448.992600 374.978808 449.035928 375.254730 449.079836 375.530653 449.124318 375.806576 449.169369 376.082498 449.214984 376.358421 449.261159 376.634343 449.307888 376.910266 449.355166 377.186189 449.402988 377.462111 449.451349 377.738034 449.500244 378.013956 449.549668 378.289879 449.599616 378.565802 449.650084 378.841724 449.701065 379.117647 449.752556 379.393569 449.804550 379.669492 449.857043 379.945415 449.910030 380.221337 449.963507 380.497260 450.017467 380.773182 450.071906 381.049105 450.126818 381.325028 450.182200 381.600950 450.238046 381.876873 450.294350 382.152795 450.351108 382.428718 450.408315 382.704641 450.465965 382.980563 450.524054 383.256486 450.582577 383.532408 450.641529 383.808331 450.700905 384.084254 450.760699 384.360176 450.820906 384.636099 450.881522 384.912021 450.942542 385.187944 451.003961 385.463867 451.065773 385.739789 451.127973 386.015712 451.190557 386.291634 451.253520 386.567557 451.316856 386.843480 451.380560 387.119402 451.444628 387.395325 451.509054 387.671247 451.573834 387.947170 451.638962 388.223092 451.704434 388.499015 451.770243 388.774938 451.836387 389.050860 451.902858 389.326783 451.969653 389.602705 452.036766 389.878628 452.104192 390.154551 452.171926 390.430473 452.239964 390.706396 452.308300 390.982318 452.376929 391.258241 452.445846 391.534164 452.515047 391.810086 452.584525 392.086009 452.654277 392.361931 452.724296 392.637854 452.794579 392.913777 452.865120 393.189699 452.935913 393.465622 453.006955 393.741544 453.078240 394.017467 453.149762 394.293390 453.221518 394.569312 453.293502 394.845235 453.365708 395.121157 453.438133 395.397080 453.510770 395.673003 453.583615 395.948925 453.656663 396.224848 453.729908 396.500770 453.803347 396.776693 453.876973 397.052616 453.950782 397.328538 454.024769 397.604461 454.098928 397.880383 454.173256 398.156306 454.247745 398.432229 454.322393 398.708151 454.397193 398.984074 454.472141 399.259996 454.547231 399.535919 454.622459 399.811842 454.697820 400.087764 454.773308 400.363687 454.848918 400.639609 454.924646 400.915532 455.000487 401.191454 455.076435 401.467377 455.152485 401.743300 455.228633 402.019222 455.304873 402.295145 455.381201 402.571067 455.457611 402.846990 455.534099 403.122913 455.610658 403.398835 455.687285 403.674758 455.763975 403.950680 455.840721 404.226603 455.917520 404.502526 455.994366 404.778448 456.071255 405.054371 456.148180 405.330293 456.225138 405.606216 456.302123 405.882139 456.379130 406.158061 456.456154 406.433984 456.533190 406.709906 456.610233 406.985829 456.687279 407.261752 456.764321 407.537674 456.841356 407.813597 456.918377 408.089519 456.995381 408.365442 457.072361 408.641365 457.149313 408.917287 457.226233 409.193210 457.303114 409.469132 457.379952 409.745055 457.456742 410.020978 457.533479 410.296900 457.610158 410.572823 457.686773 410.848745 457.763320 411.124668 457.839794 411.400591 457.916190 411.676513 457.992503 411.952436 458.068727 412.228358 458.144858 412.504281 458.220891 412.780204 458.296820 413.056126 458.372641 413.332049 458.448349 413.607971 458.523938 413.883894 458.599404 414.159817 458.674741 414.435739 458.749945 414.711662 458.825010 414.987584 458.899932 415.263507 458.974706 415.539429 459.049326 415.815352 459.123787 416.091275 459.198085 416.367197 459.272214 416.643120 459.346170 416.919042 459.419947 417.194965 459.493540 417.470888 459.566945 417.746810 459.640156 418.022733 459.713168 418.298655 459.785977 418.574578 459.858576 418.850501 459.930962 419.126423 460.003130 419.402346 460.075073 419.678268 460.146788 419.954191 460.218269 420.230114 460.289511 420.506036 460.360509 420.781959 460.431258 421.057881 460.501754 421.333804 460.571990 421.609727 460.641963 421.885649 460.711666 422.161572 460.781096 422.437494 460.850246 422.713417 460.919113 422.989340 460.987690 423.265262 461.055973 423.541185 461.123958 423.817107 461.191638 424.093030 461.259009 424.368953 461.326066 424.644875 461.392804 424.920798 461.459217 425.196720 461.525302 425.472643 461.591052 425.748566 461.656463 426.024488 461.721530 426.300411 461.786247 426.576333 461.850611 426.852256 461.914621 427.128179 461.978276 427.404101 462.041576 427.680024 462.104521 427.955946 462.167112 428.231869 462.229347 428.507791 462.291227 428.783714 462.352752 429.059637 462.413921 429.335559 462.474735 429.611482 462.535193 429.887404 462.595295 430.163327 462.655041 430.439250 462.714430 430.715172 462.773464 430.991095 462.832141 431.267017 462.890461 431.542940 462.948425 431.818863 463.006031 432.094785 463.063281 432.370708 463.120174 432.646630 463.176709 432.922553 463.232887 433.198476 463.288708 433.474398 463.344170 433.750321 463.399275 434.026243 463.454023 434.302166 463.508412 434.578089 463.562442 434.854011 463.616115 435.129934 463.669429 435.405856 463.722384 435.681779 463.774981 435.957702 463.827218 436.233624 463.879097 436.509547 463.930617 436.785469 463.981777 437.061392 464.032578 437.337315 464.083019 437.613237 464.133101 437.889160 464.182822 438.165082 464.232184 438.441005 464.281186 438.716928 464.329827 438.992850 464.378108 439.268773 464.426029 439.544695 464.473589 439.820618 464.520788 440.096541 464.567627 440.372463 464.614104 440.648386 464.660220 440.924308 464.705975 441.200231 464.751368 441.476154 464.796400 441.752076 464.841070 442.027999 464.885378 442.303921 464.929324 442.579844 464.972908 442.855766 465.016130 443.131689 465.058989 443.407612 465.101486 443.683534 465.143620 443.959457 465.185392 444.235379 465.226800 444.511302 465.267846 444.787225 465.308528 445.063147 465.348847 445.339070 465.388802 445.614992 465.428394 445.890915 465.467622 446.166838 465.506486 446.442760 465.544987 446.718683 465.583123 446.994605 465.620894 447.270528 465.658302 447.546451 465.695344 447.822373 465.732023 448.098296 465.768336 448.374218 465.804284 448.650141 465.839867 448.926064 465.875085 449.201986 465.909938 449.477909 465.944425 449.753831 465.978547 450.029754 466.012302 450.305677 466.045692 450.581599 466.078716 450.857522 466.111374 451.133444 466.143665 451.409367 466.175590 451.685290 466.207148 451.961212 466.238340 452.237135 466.269165 452.513057 466.299622 452.788980 466.329713 453.064903 466.359436 453.340825 466.388792 453.616748 466.417781 453.892670 466.446402 454.168593 466.474655 454.444516 466.502540 454.720438 466.530057 454.996361 466.557206 455.272283 466.583986 455.548206 466.610398 455.824128 466.636442 456.100051 466.662117 456.375974 466.687422 456.651896 466.712359 456.927819 466.736927 457.203741 466.761125 457.479664 466.784954 457.755587 466.808414 458.031509 466.831504 458.307432 466.854224 458.583354 466.876574 458.859277 466.898554 459.135200 466.920163 459.411122 466.941403 459.687045 466.962271 459.962967 466.982770 460.238890 467.002897 460.514813 467.022654 460.790735 467.042039 461.066658 467.061054 461.342580 467.079697 461.618503 467.097968 461.894426 467.115868 462.170348 467.133397 462.446271 467.150553 462.722193 467.167338 462.998116 467.183750 463.274039 467.199790 463.549961 467.215458 463.825884 467.230754 464.101806 467.245676 464.377729 467.260226 464.653652 467.274403 464.929574 467.288207 465.205497 467.301637 465.481419 467.314695 465.757342 467.327379 466.033265 467.339689 466.309187 467.351626 466.585110 467.363188 466.861032 467.374377 467.136955 467.385192 467.412878 467.395632 467.688800 467.405698 467.964723 467.415389 468.240645 467.424706 468.516568 467.433648 468.792491 467.442214 469.068413 467.450406 469.344336 467.458223 469.620258 467.465664 469.896181 467.472730 470.172103 467.479420 470.448026 467.485734 470.723949 467.491673 470.999871 467.497235 471.275794 467.502422 471.551716 467.507232 471.827639 467.511665 472.103562 467.515722 472.379484 467.519402 472.655407 467.522706 472.931329 467.525632 473.207252 467.528182 473.483175 467.530354 473.759097 467.532149 474.035020 467.533566 474.310942 467.534606 474.586865 467.535267 474.862788 467.535551 475.138710 467.535457 475.414633 467.534985 475.690555 467.534134 475.966478 467.532905 476.242401 467.531297 476.518323 467.529311 476.794246 467.526946 477.070168 467.524202 477.346091 467.521078 477.622014 467.517575 477.897936 467.513693 478.173859 467.509432 478.449781 467.504790 478.725704 467.499769 479.001627 467.494368 479.277549 467.488587 479.553472 467.482426 479.829394 467.475884 480.105317 467.468962 480.381240 467.461659 480.657162 467.453976 480.933085 467.445911 481.209007 467.437466 481.484930 467.428639 481.760853 467.419431 482.036775 467.409842 482.312698 467.399871 482.588620 467.389519 482.864543 467.378784 483.140465 467.367668 483.416388 467.356169 483.692311 467.344289 483.968233 467.332026 484.244156 467.319380 484.520078 467.306352 484.796001 467.292941 485.071924 467.279147 485.347846 467.264970 485.623769 467.250410 485.899691 467.235466 486.175614 467.220140 486.451537 467.204429 486.727459 467.188335 487.003382 467.171857 487.279304 467.154995 487.555227 467.137749 487.831150 467.120118 488.107072 467.102103 488.382995 467.083704 488.658917 467.064920 488.934840 467.045751 489.210763 467.026197 489.486685 467.006258 489.762608 466.985934 490.038530 466.965225 490.314453 466.944130 490.590376 466.922649 490.866298 466.900783 491.142221 466.878531 491.418143 466.855893 491.694066 466.832869 491.969989 466.809458 492.245911 466.785661 492.521834 466.761478 492.797756 466.736907 493.073679 466.711950 493.349602 466.686606 493.625524 466.660875 493.901447 466.634757 494.177369 466.608251 494.453292 466.581358 494.729215 466.554077 495.005137 466.526408 495.281060 466.498352 495.556982 466.469908 495.832905 466.441080 496.108828 466.411871 496.384750 466.382285 496.660673 466.352327 496.936595 466.321999 497.212518 466.291305 497.488440 466.260250 497.764363 466.228837 498.040286 466.197069 498.316208 466.164951 498.592131 466.132486 498.868053 466.099678 499.143976 466.066531 499.419899 466.033048 499.695821 465.999233 499.971744 465.965091 500.247666 465.930624 500.523589 465.895836 500.799512 465.860732 501.075434 465.825315 501.351357 465.789588 501.627279 465.753556 501.903202 465.717222 502.179125 465.680590 502.455047 465.643663 502.730970 465.606446 503.006892 465.568943 503.282815 465.531156 503.558738 465.493090 503.834660 465.454748 504.110583 465.416135 504.386505 465.377254 504.662428 465.338108 504.938351 465.298701 505.214273 465.259038 505.490196 465.219122 505.766118 465.178957 506.042041 465.138546 506.317964 465.097893 506.593886 465.057002 506.869809 465.015877 507.145731 464.974521 507.421654 464.932938 507.697577 464.891133 507.973499 464.849108 508.249422 464.806867 508.525344 464.764415 508.801267 464.721755 509.077190 464.678890 509.353112 464.635825 509.629035 464.592563 509.904957 464.549108 510.180880 464.505463 510.456802 464.461633 510.732725 464.417622 511.008648 464.373432 511.284570 464.329068 511.560493 464.284533 511.836415 464.239831 512.112338 464.194967 512.388261 464.149943 512.664183 464.104764 512.940106 464.059432 513.216028 464.013953 513.491951 463.968329 513.767874 463.922565 514.043796 463.876664 514.319719 463.830630 514.595641 463.784467 514.871564 463.738178 515.147487 463.691767 515.423409 463.645238 515.699332 463.598595 515.975254 463.551841 516.251177 463.504981 516.527100 463.458017 516.803022 463.410954 517.078945 463.363796 517.354867 463.316545 517.630790 463.269207 517.906713 463.221784 518.182635 463.174281 518.458558 463.126701 518.734480 463.079048 519.010403 463.031325 519.286326 462.983537 519.562248 462.935687 519.838171 462.887779 520.114093 462.839817 520.390016 462.791804 520.665939 462.743744 520.941861 462.695642 521.217784 462.647500 521.493706 462.599322 521.769629 462.551112 522.045552 462.502875 522.321474 462.454613 522.597397 462.406331 522.873319 462.358031 523.149242 462.309719 523.425165 462.261397 523.701087 462.213070 523.977010 462.164741 524.252932 462.116414 524.528855 462.068092 524.804777 462.019780 525.080700 461.971481 525.356623 461.923199 525.632545 461.874938 525.908468 461.826701 526.184390 461.778493 526.460313 461.730316 526.736236 461.682175 527.012158 461.634073 527.288081 461.586014 527.564003 461.538003 527.839926 461.490042 528.115849 461.442135 528.391771 461.394287 528.667694 461.346501 528.943616 461.298780 529.219539 461.251128 529.495462 461.203550 529.771384 461.156049 530.047307 461.108628 530.323229 461.061292 530.599152 461.014044 530.875075 460.966888 531.150997 460.919828 531.426920 460.872866 531.702842 460.826009 531.978765 460.779258 532.254688 460.732617 532.530610 460.686091 532.806533 460.639684 533.082455 460.593398 533.358378 460.547238 533.634301 460.501207 533.910223 460.455309 534.186146 460.409549 534.462068 460.363929 534.737991 460.318453 535.013914 460.273126 535.289836 460.227950 535.565759 460.182930 535.841681 460.138070 536.117604 460.093373 536.393527 460.048842 536.669449 460.004482 536.945372 459.960297 537.221294 459.916290 537.497217 459.872465 537.773139 459.828825 538.049062 459.785375 538.324985 459.742118 538.600907 459.699058 538.876830 459.656198 539.152752 459.613543 539.428675 459.571096 539.704598 459.528861 539.980520 459.486842 540.256443 459.445042 540.532365 459.403465 540.808288 459.362115 541.084211 459.320996 541.360133 459.280111 541.636056 459.239464 541.911978 459.199059 542.187901 459.158900 542.463824 459.118990 542.739746 459.079334 543.015669 459.039934 543.291591 459.000795 543.567514 458.961920 543.843437 458.923314 544.119359 458.884979 544.395282 458.846920 544.671204 458.809140 544.947127 458.771644 545.223050 458.734434 545.498972 458.697515 545.774895 458.660891 546.050817 458.624565 546.326740 458.588540 546.602663 458.552821 546.878585 458.517412 547.154508 458.482316 547.430430 458.447536 547.706353 458.413078 547.982276 458.378943 548.258198 458.345137 548.534121 458.311663 548.810043 458.278524 549.085966 458.245725 549.361889 458.213269 549.637811 458.181159 549.913734 458.149401 550.189656 458.117997 550.465579 458.086950 550.741501 458.056266 551.017424 458.025948 551.293347 457.995999 551.569269 457.966423 551.845192 457.937223 552.121114 457.908405 552.397037 457.879971 552.672960 457.851925 552.948882 457.824271 553.224805 457.797012 553.500727 457.770153 553.776650 457.743697 554.052573 457.717648 554.328495 457.692010 554.604418 457.666786 554.880340 457.641980 555.156263 457.617596 555.432186 457.593638 555.708108 457.570109 555.984031 457.547013 556.259953 457.524354 556.535876 457.502136 556.811799 457.480362 557.087721 457.459036 557.363644 457.438162 557.639566 457.417743 557.915489 457.397785 558.191412 457.378289 558.467334 457.359260 558.743257 457.340702 559.019179 457.322618 559.295102 457.305012 559.571025 457.287888 559.846947 457.271250 560.122870 457.255101 560.398792 457.239445 560.674715 457.224286 560.950638 457.209628 561.226560 457.195474 561.502483 457.181828 561.778405 457.168694 562.054328 457.156076 562.330251 457.143977 562.606173 457.132401 562.882096 457.121353 563.158018 457.110834 563.433941 457.100850 563.709864 457.091405 563.985786 457.082501 564.261709 457.074143 564.537631 457.066333 564.813554 457.059070 565.089476 457.052352 565.365399 457.046177 565.641322 457.040543 565.917244 457.035447 566.193167 457.030887 566.469089 457.026861 566.745012 457.023367 567.020935 457.020403 567.296857 457.017966 567.572780 457.016054 567.848702 457.014665 568.124625 457.013797 568.400548 457.013448 568.676470 457.013615 568.952393 457.014296 569.228315 457.015489 569.504238 457.017192 569.780161 457.019403 570.056083 457.022119 570.332006 457.025338 570.607928 457.029059 570.883851 457.033278 571.159774 457.037994 571.435696 457.043204 571.711619 457.048906 571.987541 457.055099 572.263464 457.061779 572.539387 457.068945 572.815309 457.076595 573.091232 457.084726 573.367154 457.093335 573.643077 457.102422 573.919000 457.111983 574.194922 457.122017 574.470845 457.132521 574.746767 457.143493 575.022690 457.154931 575.298613 457.166833 575.574535 457.179196 575.850458 457.192018 576.126380 457.205297 576.402303 457.219032 576.678226 457.233219 576.954148 457.247856 577.230071 457.262942 577.505993 457.278474 577.781916 457.294450 578.057838 457.310867 578.333761 457.327724 578.609684 457.345018 578.885606 457.362748 579.161529 457.380910 579.437451 457.399503 579.713374 457.418524 579.989297 457.437972 580.265219 457.457844 580.541142 457.478138 580.817064 457.498851 581.092987 457.519982 581.368910 457.541529 581.644832 457.563488 581.920755 457.585859 582.196677 457.608638 582.472600 457.631824 582.748523 457.655414 583.024445 457.679406 583.300368 457.703798 583.576290 457.728588 583.852213 457.753773 584.128136 457.779352 584.404058 457.805322 584.679981 457.831681 584.955903 457.858426 585.231826 457.885557 585.507749 457.913069 585.783671 457.940962 586.059594 457.969233 586.335516 457.997879 586.611439 458.026899 586.887362 458.056291 587.163284 458.086051 587.439207 458.116179 587.715129 458.146671 587.991052 458.177526 588.266975 458.208741 588.542897 458.240315 588.818820 458.272244 589.094742 458.304528 589.370665 458.337163 589.646588 458.370147 589.922510 458.403479 590.198433 458.437155 590.474355 458.471174 590.750278 458.505534 591.026201 458.540233 591.302123 458.575267 591.578046 458.610636 591.853968 458.646336 592.129891 458.682366 592.405813 458.718724 592.681736 458.755407 592.957659 458.792412 593.233581 458.829739 593.509504 458.867384 593.785426 458.905346 594.061349 458.943622 594.337272 458.982209 594.613194 459.021107 594.889117 459.060313 595.165039 459.099823 595.440962 459.139638 595.716885 459.179753 595.992807 459.220167 596.268730 459.260878 596.544652 459.301883 596.820575 459.343180 597.096498 459.384768 597.372420 459.426643 597.648343 459.468804 597.924265 459.511248 598.200188 459.553974 598.476111 459.596979 598.752033 459.640261 599.027956 459.683817 599.303878 459.727646 599.579801 459.771746 599.855724 459.816113 600.131646 459.860746 600.407569 459.905643 600.683491 459.950801 600.959414 459.996219 601.235337 460.041894 601.511259 460.087824 601.787182 460.134006 602.063104 460.180439 602.339027 460.227120 602.614950 460.274048 602.890872 460.321219 603.166795 460.368632 603.442717 460.416285 603.718640 460.464175 603.994563 460.512300 604.270485 460.560658 604.546408 460.609246 604.822330 460.658063 605.098253 460.707107 605.374175 460.756375 605.650098 460.805864 605.926021 460.855574 606.201943 460.905501 606.477866 460.955643 606.753788 461.005999 607.029711 461.056565 607.305634 461.107340 607.581556 461.158322 607.857479 461.209508 608.133401 461.260896 608.409324 461.312485 608.685247 461.364271 608.961169 461.416252 609.237092 461.468427 609.513014 461.520794 609.788937 461.573349 610.064860 461.626091 610.340782 461.679017 610.616705 461.732126 610.892627 461.785415 611.168550 461.838882 611.444473 461.892525 611.720395 461.946342 611.996318 462.000330 612.272240 462.054487 612.548163 462.108811 612.824086 462.163300 613.100008 462.217952 613.375931 462.272764 613.651853 462.327734 613.927776 462.382860 614.203699 462.438140 614.479621 462.493572 614.755544 462.549153 615.031466 462.604881 615.307389 462.660754 615.583312 462.716771 615.859234 462.772928 616.135157 462.829223 616.411079 462.885654 616.687002 462.942220 616.962925 462.998917 617.238847 463.055744 617.514770 463.112699 617.790692 463.169779 618.066615 463.226982 618.342538 463.284305 618.618460 463.341748 618.894383 463.399307 619.170305 463.456980 619.446228 463.514765 619.722150 463.572660 619.998073 463.630663 620.273996 463.688771 620.549918 463.746982 620.825841 463.805295 621.101763 463.863707 621.377686 463.922215 621.653609 463.980817 621.929531 464.039512 622.205454 464.098297 622.481376 464.157170 622.757299 464.216129 623.033222 464.275171 623.309144 464.334295 623.585067 464.393497 623.860989 464.452777 624.136912 464.512131 624.412835 464.571558 624.688757 464.631055 624.964680 464.690620 625.240602 464.750251 625.516525 464.809946 625.792448 464.869702 626.068370 464.929518 626.344293 464.989390 626.620215 465.049318 626.896138 465.109299 627.172061 465.169330 627.447983 465.229409 627.723906 465.289535 627.999828 465.349704 628.275751 465.409915 628.551674 465.470166 628.827596 465.530454 629.103519 465.590777 629.379441 465.651134 629.655364 465.711521 629.931287 465.771936 630.207209 465.832378 630.483132 465.892844 630.759054 465.953332 631.034977 466.013840 631.310900 466.074366 631.586822 466.134907 631.862745 466.195461 632.138667 466.256026 632.414590 466.316600 632.690512 466.377180 632.966435 466.437765 633.242358 466.498352" class="line reactive nofill" /></g></g><g class="titles"><text x="400.0" y="26" class="title plot_title">主题: 路由器CPU利用率</text></g><g transform="translate(120, 46)" class="plot overlay"><g class="series serie-0 color-0"><g class="dots"><circle cx="12.416516817366263" cy="447.64993344028215" r="2.5" class="dot reactive tooltip-trigger" /><desc class="value">7</desc><desc class="x top">12.416516817366263</desc><desc class="y top">447.64993344028215</desc><desc class="x_label">10:46:02</desc></g><g class="dots"><circle cx="81.39716580273438" cy="466.4983516903993" r="2.5" class="dot reactive tooltip-trigger" /><desc class="value">3</desc><desc class="x top">81.39716580273438</desc><desc class="y top">466.4983516903993</desc><desc class="x_label">10:46:31</desc></g><g class="dots"><circle cx="150.37781478810248" cy="457.0741425653407" r="2.5" class="dot reactive tooltip-trigger" /><desc class="value">5</desc><desc class="x top">150.37781478810248</desc><desc class="y top">457.0741425653407</desc><desc class="x_label">10:47:01</desc></g><g class="dots"><circle cx="219.35846377347065" cy="461.78624712787" r="2.5" class="dot reactive tooltip-trigger" /><desc class="value">4</desc><desc class="x top">219.35846377347065</desc><desc class="y top">461.78624712787</desc><desc class="x_label">10:47:31</desc></g><g class="dots"><circle cx="288.3391127588387" cy="461.78624712787" r="2.5" class="dot reactive tooltip-trigger" /><desc class="value">4</desc><desc class="x top">288.3391127588387</desc><desc class="y top">461.78624712787</desc><desc class="x_label">10:48:01</desc></g><g class="dots"><circle cx="357.3197617442069" cy="447.64993344028215" r="2.5" class="dot reactive tooltip-trigger" /><desc class="value">7</desc><desc class="x left top">357.3197617442069</desc><desc class="y left top">447.64993344028215</desc><desc class="x_label">10:48:31</desc></g><g class="dots"><circle cx="426.300410729575" cy="461.78624712787" r="2.5" class="dot reactive tooltip-trigger" /><desc class="value">4</desc><desc class="x left top">426.300410729575</desc><desc class="y left top">461.78624712787</desc><desc class="x_label">10:49:02</desc></g><g class="dots"><circle cx="495.2810597149431" cy="466.4983516903993" r="2.5" class="dot reactive tooltip-trigger" /><desc class="value">3</desc><desc class="x left top">495.2810597149431</desc><desc class="y left top">466.4983516903993</desc><desc class="x_label">10:49:31</desc></g><g class="dots"><circle cx="564.2617087003113" cy="457.0741425653407" r="2.5" class="dot reactive tooltip-trigger" /><desc class="value">5</desc><desc class="x left top">564.2617087003113</desc><desc class="y left top">457.0741425653407</desc><desc class="x_label">10:50:01</desc></g><g class="dots"><circle cx="633.2423576856794" cy="466.4983516903993" r="2.5" class="dot reactive tooltip-trigger" /><desc class="value">3</desc><desc class="x left top">633.2423576856794</desc><desc class="y left top">466.4983516903993</desc><desc class="x_label">10:50:31</desc></g></g></g><g transform="translate(120, 46)" class="plot text-overlay"><g class="series serie-0 color-0" /></g><g transform="translate(120, 46)" class="plot tooltip-overlay"><g transform="translate(0 0)" style="opacity: 0" class="tooltip"><rect rx="0" ry="0" width="0" height="0" class="tooltip-box" /><g class="text" /></g></g><g transform="translate(10, 56)" class="legends"><g id="activate-serie-0" class="legend reactive activate-serie"><rect x="0.0" y="1.0" width="12" height="12" class="color-0 reactive" /><text x="17.0" y="11.2">CPU利用率</text></g></g><g transform="translate(776, 56)" class="legends" /></g></svg>