<?xml version='1.0' encoding='utf-8'?>
<svg xmlns:xlink="http://www.w3.org/1999/xlink" xmlns="http://www.w3.org/2000/svg" id="chart-aa185288-dce2-4fbc-b3b7-503f62d77166" class="pygal-chart" viewBox="0 0 800 600"><!--Generated with pygal 3.0.5 (etree) ©Kozea 2012-2016 on 2025-03-15--><!--http://pygal.org--><!--http://github.com/Kozea/pygal--><defs><style type="text/css">#chart-aa185288-dce2-4fbc-b3b7-503f62d77166{-webkit-user-select:none;-webkit-font-smoothing:antialiased;font-family:Consolas,"Liberation Mono",Menlo,Courier,monospace}#chart-aa185288-dce2-4fbc-b3b7-503f62d77166 .title{font-family:Noto Sans CJK SC;font-size:16px}#chart-aa185288-dce2-4fbc-b3b7-503f62d77166 .legends .legend text{font-family:Noto Sans CJK SC;font-size:14px}#chart-aa185288-dce2-4fbc-b3b7-503f62d77166 .axis text{font-family:Noto Sans CJK SC;font-size:10px}#chart-aa185288-dce2-4fbc-b3b7-503f62d77166 .axis text.major{font-family:Noto Sans CJK SC;font-size:10px}#chart-aa185288-dce2-4fbc-b3b7-503f62d77166 .text-overlay text.value{font-family:Noto Sans CJK SC;font-size:16px}#chart-aa185288-dce2-4fbc-b3b7-503f62d77166 .text-overlay text.label{font-family:Consolas,"Liberation Mono",Menlo,Courier,monospace;font-size:10px}#chart-aa185288-dce2-4fbc-b3b7-503f62d77166 .tooltip{font-family:Consolas,"Liberation Mono",Menlo,Courier,monospace;font-size:14px}#chart-aa185288-dce2-4fbc-b3b7-503f62d77166 text.no_data{font-family:Consolas,"Liberation Mono",Menlo,Courier,monospace;font-size:64px}
#chart-aa185288-dce2-4fbc-b3b7-503f62d77166{background-color:rgba(249,249,249,1)}#chart-aa185288-dce2-4fbc-b3b7-503f62d77166 path,#chart-aa185288-dce2-4fbc-b3b7-503f62d77166 line,#chart-aa185288-dce2-4fbc-b3b7-503f62d77166 rect,#chart-aa185288-dce2-4fbc-b3b7-503f62d77166 circle{-webkit-transition:150ms;-moz-transition:150ms;transition:150ms}#chart-aa185288-dce2-4fbc-b3b7-503f62d77166 .graph &gt; .background{fill:rgba(249,249,249,1)}#chart-aa185288-dce2-4fbc-b3b7-503f62d77166 .plot &gt; .background{fill:rgba(255,255,255,1)}#chart-aa185288-dce2-4fbc-b3b7-503f62d77166 .graph{fill:rgba(0,0,0,.87)}#chart-aa185288-dce2-4fbc-b3b7-503f62d77166 text.no_data{fill:rgba(0,0,0,1)}#chart-aa185288-dce2-4fbc-b3b7-503f62d77166 .title{fill:rgba(0,0,0,1)}#chart-aa185288-dce2-4fbc-b3b7-503f62d77166 .legends .legend text{fill:rgba(0,0,0,.87)}#chart-aa185288-dce2-4fbc-b3b7-503f62d77166 .legends .legend:hover text{fill:rgba(0,0,0,1)}#chart-aa185288-dce2-4fbc-b3b7-503f62d77166 .axis .line{stroke:rgba(0,0,0,1)}#chart-aa185288-dce2-4fbc-b3b7-503f62d77166 .axis .guide.line{stroke:rgba(0,0,0,.54)}#chart-aa185288-dce2-4fbc-b3b7-503f62d77166 .axis .major.line{stroke:rgba(0,0,0,.87)}#chart-aa185288-dce2-4fbc-b3b7-503f62d77166 .axis text.major{fill:rgba(0,0,0,1)}#chart-aa185288-dce2-4fbc-b3b7-503f62d77166 .axis.y .guides:hover .guide.line,#chart-aa185288-dce2-4fbc-b3b7-503f62d77166 .line-graph .axis.x .guides:hover .guide.line,#chart-aa185288-dce2-4fbc-b3b7-503f62d77166 .stackedline-graph .axis.x .guides:hover .guide.line,#chart-aa185288-dce2-4fbc-b3b7-503f62d77166 .xy-graph .axis.x .guides:hover .guide.line{stroke:rgba(0,0,0,1)}#chart-aa185288-dce2-4fbc-b3b7-503f62d77166 .axis .guides:hover text{fill:rgba(0,0,0,1)}#chart-aa185288-dce2-4fbc-b3b7-503f62d77166 .reactive{fill-opacity:.7;stroke-opacity:.8;stroke-width:1}#chart-aa185288-dce2-4fbc-b3b7-503f62d77166 .ci{stroke:rgba(0,0,0,.87)}#chart-aa185288-dce2-4fbc-b3b7-503f62d77166 .reactive.active,#chart-aa185288-dce2-4fbc-b3b7-503f62d77166 .active .reactive{fill-opacity:.8;stroke-opacity:.9;stroke-width:4}#chart-aa185288-dce2-4fbc-b3b7-503f62d77166 .ci .reactive.active{stroke-width:1.5}#chart-aa185288-dce2-4fbc-b3b7-503f62d77166 .series text{fill:rgba(0,0,0,1)}#chart-aa185288-dce2-4fbc-b3b7-503f62d77166 .tooltip rect{fill:rgba(255,255,255,1);stroke:rgba(0,0,0,1);-webkit-transition:opacity 150ms;-moz-transition:opacity 150ms;transition:opacity 150ms}#chart-aa185288-dce2-4fbc-b3b7-503f62d77166 .tooltip .label{fill:rgba(0,0,0,.87)}#chart-aa185288-dce2-4fbc-b3b7-503f62d77166 .tooltip .label{fill:rgba(0,0,0,.87)}#chart-aa185288-dce2-4fbc-b3b7-503f62d77166 .tooltip .legend{font-size:.8em;fill:rgba(0,0,0,.54)}#chart-aa185288-dce2-4fbc-b3b7-503f62d77166 .tooltip .x_label{font-size:.6em;fill:rgba(0,0,0,1)}#chart-aa185288-dce2-4fbc-b3b7-503f62d77166 .tooltip .xlink{font-size:.5em;text-decoration:underline}#chart-aa185288-dce2-4fbc-b3b7-503f62d77166 .tooltip .value{font-size:1.5em}#chart-aa185288-dce2-4fbc-b3b7-503f62d77166 .bound{font-size:.5em}#chart-aa185288-dce2-4fbc-b3b7-503f62d77166 .max-value{font-size:.75em;fill:rgba(0,0,0,.54)}#chart-aa185288-dce2-4fbc-b3b7-503f62d77166 .map-element{fill:rgba(255,255,255,1);stroke:rgba(0,0,0,.54) !important}#chart-aa185288-dce2-4fbc-b3b7-503f62d77166 .map-element .reactive{fill-opacity:inherit;stroke-opacity:inherit}#chart-aa185288-dce2-4fbc-b3b7-503f62d77166 .color-0,#chart-aa185288-dce2-4fbc-b3b7-503f62d77166 .color-0 a:visited{stroke:#F44336;fill:#F44336}#chart-aa185288-dce2-4fbc-b3b7-503f62d77166 .text-overlay .color-0 text{fill:black}
#chart-aa185288-dce2-4fbc-b3b7-503f62d77166 text.no_data{text-anchor:middle}#chart-aa185288-dce2-4fbc-b3b7-503f62d77166 .guide.line{fill:none}#chart-aa185288-dce2-4fbc-b3b7-503f62d77166 .centered{text-anchor:middle}#chart-aa185288-dce2-4fbc-b3b7-503f62d77166 .title{text-anchor:middle}#chart-aa185288-dce2-4fbc-b3b7-503f62d77166 .legends .legend text{fill-opacity:1}#chart-aa185288-dce2-4fbc-b3b7-503f62d77166 .axis.x text{text-anchor:middle}#chart-aa185288-dce2-4fbc-b3b7-503f62d77166 .axis.x:not(.web) text[transform]{text-anchor:start}#chart-aa185288-dce2-4fbc-b3b7-503f62d77166 .axis.x:not(.web) text[transform].backwards{text-anchor:end}#chart-aa185288-dce2-4fbc-b3b7-503f62d77166 .axis.y text{text-anchor:end}#chart-aa185288-dce2-4fbc-b3b7-503f62d77166 .axis.y text[transform].backwards{text-anchor:start}#chart-aa185288-dce2-4fbc-b3b7-503f62d77166 .axis.y2 text{text-anchor:start}#chart-aa185288-dce2-4fbc-b3b7-503f62d77166 .axis.y2 text[transform].backwards{text-anchor:end}#chart-aa185288-dce2-4fbc-b3b7-503f62d77166 .axis .guide.line{stroke-dasharray:4,4;stroke:black}#chart-aa185288-dce2-4fbc-b3b7-503f62d77166 .axis .major.guide.line{stroke-dasharray:6,6;stroke:black}#chart-aa185288-dce2-4fbc-b3b7-503f62d77166 .horizontal .axis.y .guide.line,#chart-aa185288-dce2-4fbc-b3b7-503f62d77166 .horizontal .axis.y2 .guide.line,#chart-aa185288-dce2-4fbc-b3b7-503f62d77166 .vertical .axis.x .guide.line{opacity:0}#chart-aa185288-dce2-4fbc-b3b7-503f62d77166 .horizontal .axis.always_show .guide.line,#chart-aa185288-dce2-4fbc-b3b7-503f62d77166 .vertical .axis.always_show .guide.line{opacity:1 !important}#chart-aa185288-dce2-4fbc-b3b7-503f62d77166 .axis.y .guides:hover .guide.line,#chart-aa185288-dce2-4fbc-b3b7-503f62d77166 .axis.y2 .guides:hover .guide.line,#chart-aa185288-dce2-4fbc-b3b7-503f62d77166 .axis.x .guides:hover .guide.line{opacity:1}#chart-aa185288-dce2-4fbc-b3b7-503f62d77166 .axis .guides:hover text{opacity:1}#chart-aa185288-dce2-4fbc-b3b7-503f62d77166 .nofill{fill:none}#chart-aa185288-dce2-4fbc-b3b7-503f62d77166 .subtle-fill{fill-opacity:.2}#chart-aa185288-dce2-4fbc-b3b7-503f62d77166 .dot{stroke-width:1px;fill-opacity:1;stroke-opacity:1}#chart-aa185288-dce2-4fbc-b3b7-503f62d77166 .dot.active{stroke-width:5px}#chart-aa185288-dce2-4fbc-b3b7-503f62d77166 .dot.negative{fill:transparent}#chart-aa185288-dce2-4fbc-b3b7-503f62d77166 text,#chart-aa185288-dce2-4fbc-b3b7-503f62d77166 tspan{stroke:none !important}#chart-aa185288-dce2-4fbc-b3b7-503f62d77166 .series text.active{opacity:1}#chart-aa185288-dce2-4fbc-b3b7-503f62d77166 .tooltip rect{fill-opacity:.95;stroke-width:.5}#chart-aa185288-dce2-4fbc-b3b7-503f62d77166 .tooltip text{fill-opacity:1}#chart-aa185288-dce2-4fbc-b3b7-503f62d77166 .showable{visibility:hidden}#chart-aa185288-dce2-4fbc-b3b7-503f62d77166 .showable.shown{visibility:visible}#chart-aa185288-dce2-4fbc-b3b7-503f62d77166 .gauge-background{fill:rgba(229,229,229,1);stroke:none}#chart-aa185288-dce2-4fbc-b3b7-503f62d77166 .bg-lines{stroke:rgba(249,249,249,1);stroke-width:2px}</style><script type="text/javascript">window.pygal = window.pygal || {};window.pygal.config = window.pygal.config || {};window.pygal.config['aa185288-dce2-4fbc-b3b7-503f62d77166'] = {"allow_interruptions": false, "box_mode": "extremes", "classes": ["pygal-chart"], "css": ["file://style.css", "file://graph.css"], "defs": [], "disable_xml_declaration": false, "dots_size": 2.5, "dynamic_print_values": false, "explicit_size": false, "fill": false, "force_uri_protocol": "https", "formatter": null, "half_pie": false, "height": 600, "include_x_axis": false, "inner_radius": 0, "interpolate": "cubic", "interpolation_parameters": {}, "interpolation_precision": 250, "inverse_y_axis": false, "js": ["//kozea.github.io/pygal.js/2.0.x/pygal-tooltips.min.js"], "legend_at_bottom": false, "legend_at_bottom_columns": null, "legend_box_size": 12, "logarithmic": false, "margin": 20, "margin_bottom": null, "margin_left": null, "margin_right": null, "margin_top": null, "max_scale": 16, "min_scale": 4, "missing_value_fill_truncation": "x", "no_data_text": "No data", "no_prefix": false, "order_min": null, "pretty_print": false, "print_labels": false, "print_values": false, "print_values_position": "center", "print_zeroes": true, "range": [0, 100], "rounded_bars": null, "secondary_range": null, "show_dots": true, "show_legend": true, "show_minor_x_labels": true, "show_minor_y_labels": true, "show_only_major_dots": false, "show_x_guides": false, "show_x_labels": true, "show_y_guides": true, "show_y_labels": true, "spacing": 10, "stack_from_top": false, "strict": false, "stroke": true, "stroke_style": null, "style": {"background": "rgba(249, 249, 249, 1)", "ci_colors": [], "colors": ["#F44336", "#3F51B5", "#009688", "#FFC107", "#FF5722", "#9C27B0", "#03A9F4", "#8BC34A", "#FF9800", "#E91E63", "#2196F3", "#4CAF50", "#FFEB3B", "#673AB7", "#00BCD4", "#CDDC39", "#9E9E9E", "#607D8B"], "dot_opacity": "1", "font_family": "Consolas, \"Liberation Mono\", Menlo, Courier, monospace", "foreground": "rgba(0, 0, 0, .87)", "foreground_strong": "rgba(0, 0, 0, 1)", "foreground_subtle": "rgba(0, 0, 0, .54)", "guide_stroke_color": "black", "guide_stroke_dasharray": "4,4", "label_font_family": "Noto Sans CJK SC", "label_font_size": 10, "legend_font_family": "Noto Sans CJK SC", "legend_font_size": 14, "major_guide_stroke_color": "black", "major_guide_stroke_dasharray": "6,6", "major_label_font_family": "Noto Sans CJK SC", "major_label_font_size": 10, "no_data_font_family": "Consolas, \"Liberation Mono\", Menlo, Courier, monospace", "no_data_font_size": 64, "opacity": ".7", "opacity_hover": ".8", "plot_background": "rgba(255, 255, 255, 1)", "stroke_opacity": ".8", "stroke_opacity_hover": ".9", "stroke_width": "1", "stroke_width_hover": "4", "title_font_family": "Noto Sans CJK SC", "title_font_size": 16, "tooltip_font_family": "Consolas, \"Liberation Mono\", Menlo, Courier, monospace", "tooltip_font_size": 14, "transition": "150ms", "value_background": "rgba(229, 229, 229, 1)", "value_colors": [], "value_font_family": "Noto Sans CJK SC", "value_font_size": 16, "value_label_font_family": "Consolas, \"Liberation Mono\", Menlo, Courier, monospace", "value_label_font_size": 10}, "title": "\u4e3b\u9898: \u8def\u7531\u5668CPU\u5229\u7528\u7387", "tooltip_border_radius": 0, "tooltip_fancy_mode": true, "truncate_label": null, "truncate_legend": null, "width": 800, "x_label_rotation": 45, "x_labels": ["10:23:01", "10:24:02", "10:25:02", "10:26:02", "10:27:02"], "x_labels_major": null, "x_labels_major_count": null, "x_labels_major_every": null, "x_title": null, "xrange": null, "y_label_rotation": 0, "y_labels": null, "y_labels_major": null, "y_labels_major_count": null, "y_labels_major_every": null, "y_title": null, "zero": 0, "legends": ["CPU\u5229\u7528\u7387"]}</script><script type="text/javascript" xlink:href="https://kozea.github.io/pygal.js/2.0.x/pygal-tooltips.min.js" /></defs><title>主题: 路由器CPU利用率</title><g class="graph line-graph vertical"><rect x="0" y="0" width="800" height="600" class="background" /><g transform="translate(120, 46)" class="plot"><rect x="0" y="0" width="645.6588745030457" height="490.05887450304573" class="background" /><g class="axis y always_show"><g class="guides"><path d="M0.000000 480.634665 h645.658875" class="axis major line" /><text x="-5" y="484.1346653779872" class="major">0</text><title>0</title></g><g class="guides"><path d="M0.000000 433.513620 h645.658875" class="guide line" /><text x="-5" y="437.0136197526943" class="">10</text><title>10</title></g><g class="guides"><path d="M0.000000 386.392574 h645.658875" class="guide line" /><text x="-5" y="389.8925741274014" class="">20</text><title>20</title></g><g class="guides"><path d="M0.000000 339.271529 h645.658875" class="guide line" /><text x="-5" y="342.7715285021086" class="">30</text><title>30</title></g><g class="guides"><path d="M0.000000 292.150483 h645.658875" class="guide line" /><text x="-5" y="295.6504828768158" class="">40</text><title>40</title></g><g class="guides"><path d="M0.000000 245.029437 h645.658875" class="major guide line" /><text x="-5" y="248.52943725152286" class="major">50</text><title>50</title></g><g class="guides"><path d="M0.000000 197.908392 h645.658875" class="guide line" /><text x="-5" y="201.40839162623" class="">60</text><title>60</title></g><g class="guides"><path d="M0.000000 150.787346 h645.658875" class="guide line" /><text x="-5" y="154.28734600093713" class="">70</text><title>70</title></g><g class="guides"><path d="M0.000000 103.666300 h645.658875" class="guide line" /><text x="-5" y="107.16630037564425" class="">80</text><title>80</title></g><g class="guides"><path d="M0.000000 56.545255 h645.658875" class="guide line" /><text x="-5" y="60.045254750351376" class="">90</text><title>90</title></g><g class="guides"><path d="M0.000000 9.424209 h645.658875" class="major guide line" /><text x="-5" y="12.92420912505861" class="major">100</text><title>100</title></g></g><g class="axis x"><g class="guides"><path d="M12.416517 0.000000 v490.058875" class="line" /><text x="12.416516817366263" y="505.05887450304573" class="" transform="rotate(45 12.416517 505.058875)">10:23:01</text></g><g class="guides"><path d="M167.622977 0.000000 v490.058875" class="guide line" /><text x="167.62297703444455" y="505.05887450304573" class="" transform="rotate(45 167.622977 505.058875)">10:24:02</text></g><g class="guides"><path d="M322.829437 0.000000 v490.058875" class="guide line" /><text x="322.82943725152285" y="505.05887450304573" class="" transform="rotate(45 322.829437 505.058875)">10:25:02</text></g><g class="guides"><path d="M478.035897 0.000000 v490.058875" class="guide line" /><text x="478.03589746860115" y="505.05887450304573" class="" transform="rotate(45 478.035897 505.058875)">10:26:02</text></g><g class="guides"><path d="M633.242358 0.000000 v490.058875" class="guide line" /><text x="633.2423576856794" y="505.05887450304573" class="" transform="rotate(45 633.242358 505.058875)">10:27:02</text></g></g><g class="series serie-0 color-0"><path d="M12.416517 461.786247 L13.037343 461.804086 13.658168 461.821922 14.278994 461.839755 14.899820 461.857584 15.520646 461.875405 16.141472 461.893218 16.762298 461.911020 17.383124 461.928810 18.003949 461.946587 18.624775 461.964349 19.245601 461.982093 19.866427 461.999818 20.487253 462.017523 21.108079 462.035205 21.728904 462.052864 22.349730 462.070497 22.970556 462.088102 23.591382 462.105679 24.212208 462.123224 24.833034 462.140737 25.453859 462.158216 26.074685 462.175659 26.695511 462.193064 27.316337 462.210430 27.937163 462.227754 28.557989 462.245036 29.178815 462.262274 29.799640 462.279465 30.420466 462.296608 31.041292 462.313701 31.662118 462.330743 32.282944 462.347732 32.903770 462.364667 33.524595 462.381544 34.145421 462.398364 34.766247 462.415123 35.387073 462.431821 36.007899 462.448456 36.628725 462.465025 37.249550 462.481528 37.870376 462.497962 38.491202 462.514326 39.112028 462.530618 39.732854 462.546836 40.353680 462.562979 40.974505 462.579045 41.595331 462.595032 42.216157 462.610939 42.836983 462.626763 43.457809 462.642504 44.078635 462.658159 44.699461 462.673726 45.320286 462.689205 45.941112 462.704593 46.561938 462.719888 47.182764 462.735089 47.803590 462.750194 48.424416 462.765202 49.045241 462.780110 49.666067 462.794918 50.286893 462.809622 50.907719 462.824222 51.528545 462.838716 52.149371 462.853102 52.770196 462.867378 53.391022 462.881543 54.011848 462.895595 54.632674 462.909533 55.253500 462.923353 55.874326 462.937056 56.495152 462.950639 57.115977 462.964100 57.736803 462.977438 58.357629 462.990651 58.978455 463.003737 59.599281 463.016695 60.220107 463.029522 60.840932 463.042218 61.461758 463.054780 62.082584 463.067207 62.703410 463.079497 63.324236 463.091648 63.945062 463.103659 64.565887 463.115527 65.186713 463.127252 65.807539 463.138831 66.428365 463.150263 67.049191 463.161546 67.670017 463.172678 68.290842 463.183658 68.911668 463.194484 69.532494 463.205154 70.153320 463.215666 70.774146 463.226019 71.394972 463.236211 72.015798 463.246240 72.636623 463.256105 73.257449 463.265804 73.878275 463.275335 74.499101 463.284696 75.119927 463.293887 75.740753 463.302904 76.361578 463.311746 76.982404 463.320413 77.603230 463.328901 78.224056 463.337209 78.844882 463.345336 79.465708 463.353279 80.086533 463.361038 80.707359 463.368610 81.328185 463.375993 81.949011 463.383186 82.569837 463.390188 83.190663 463.396996 83.811489 463.403609 84.432314 463.410025 85.053140 463.416242 85.673966 463.422259 86.294792 463.428074 86.915618 463.433685 87.536444 463.439091 88.157269 463.444289 88.778095 463.449278 89.398921 463.454057 90.019747 463.458624 90.640573 463.462976 91.261399 463.467112 91.882224 463.471032 92.503050 463.474731 93.123876 463.478210 93.744702 463.481467 94.365528 463.484499 94.986354 463.487305 95.607179 463.489883 96.228005 463.492232 96.848831 463.494349 97.469657 463.496234 98.090483 463.497884 98.711309 463.499297 99.332135 463.500473 99.952960 463.501409 100.573786 463.502103 101.194612 463.502555 101.815438 463.502761 102.436264 463.502721 103.057090 463.502432 103.677915 463.501894 104.298741 463.501103 104.919567 463.500059 105.540393 463.498761 106.161219 463.497205 106.782045 463.495390 107.402870 463.493316 108.023696 463.490979 108.644522 463.488378 109.265348 463.485513 109.886174 463.482380 110.507000 463.478978 111.127826 463.475305 111.748651 463.471360 112.369477 463.467142 112.990303 463.462647 113.611129 463.457875 114.231955 463.452824 114.852781 463.447492 115.473606 463.441878 116.094432 463.435979 116.715258 463.429794 117.336084 463.423322 117.956910 463.416560 118.577736 463.409507 119.198561 463.402161 119.819387 463.394521 120.440213 463.386584 121.061039 463.378349 121.681865 463.369815 122.302691 463.360979 122.923516 463.351841 123.544342 463.342397 124.165168 463.332647 124.785994 463.322588 125.406820 463.312220 126.027646 463.301540 126.648472 463.290546 127.269297 463.279238 127.890123 463.267612 128.510949 463.255668 129.131775 463.243404 129.752601 463.230818 130.373427 463.217908 130.994252 463.204673 131.615078 463.191111 132.235904 463.177220 132.856730 463.162998 133.477556 463.148445 134.098382 463.133557 134.719207 463.118333 135.340033 463.102773 135.960859 463.086873 136.581685 463.070632 137.202511 463.054049 137.823337 463.037122 138.444163 463.019848 139.064988 463.002228 139.685814 462.984257 140.306640 462.965936 140.927466 462.947262 141.548292 462.928233 142.169118 462.908848 142.789943 462.889106 143.410769 462.869003 144.031595 462.848540 144.652421 462.827713 145.273247 462.806522 145.894073 462.784964 146.514898 462.763037 147.135724 462.740741 147.756550 462.718074 148.377376 462.695033 148.998202 462.671617 149.619028 462.647824 150.239853 462.623652 150.860679 462.599101 151.481505 462.574168 152.102331 462.548851 152.723157 462.523149 153.343983 462.497059 153.964809 462.470581 154.585634 462.443713 155.206460 462.416452 155.827286 462.388798 156.448112 462.360747 157.068938 462.332300 157.689764 462.303454 158.310589 462.274206 158.931415 462.244557 159.552241 462.214503 160.173067 462.184043 160.793893 462.153176 161.414719 462.121900 162.035544 462.090212 162.656370 462.058112 163.277196 462.025597 163.898022 461.992667 164.518848 461.959318 165.139674 461.925550 165.760500 461.891360 166.381325 461.856748 167.002151 461.821711 167.622977 461.786247 168.243803 461.750357 168.864629 461.714043 169.485455 461.677311 170.106280 461.640165 170.727106 461.602612 171.347932 461.564655 171.968758 461.526299 172.589584 461.487550 173.210410 461.448412 173.831235 461.408891 174.452061 461.368991 175.072887 461.328717 175.693713 461.288075 176.314539 461.247068 176.935365 461.205703 177.556190 461.163984 178.177016 461.121915 178.797842 461.079503 179.418668 461.036751 180.039494 460.993666 180.660320 460.950251 181.281146 460.906511 181.901971 460.862453 182.522797 460.818080 183.143623 460.773397 183.764449 460.728410 184.385275 460.683123 185.006101 460.637542 185.626926 460.591671 186.247752 460.545515 186.868578 460.499079 187.489404 460.452369 188.110230 460.405388 188.731056 460.358143 189.351881 460.310637 189.972707 460.262877 190.593533 460.214866 191.214359 460.166610 191.835185 460.118114 192.456011 460.069382 193.076837 460.020420 193.697662 459.971233 194.318488 459.921825 194.939314 459.872202 195.560140 459.822368 196.180966 459.772328 196.801792 459.722088 197.422617 459.671652 198.043443 459.621025 198.664269 459.570212 199.285095 459.519218 199.905921 459.468048 200.526747 459.416707 201.147572 459.365200 201.768398 459.313532 202.389224 459.261707 203.010050 459.209732 203.630876 459.157610 204.251702 459.105346 204.872527 459.052946 205.493353 459.000415 206.114179 458.947757 206.735005 458.894978 207.355831 458.842081 207.976657 458.789073 208.597483 458.735959 209.218308 458.682742 209.839134 458.629428 210.459960 458.576023 211.080786 458.522530 211.701612 458.468956 212.322438 458.415304 212.943263 458.361580 213.564089 458.307789 214.184915 458.253936 214.805741 458.200025 215.426567 458.146062 216.047393 458.092051 216.668218 458.037998 217.289044 457.983907 217.909870 457.929784 218.530696 457.875633 219.151522 457.821459 219.772348 457.767267 220.393174 457.713063 221.013999 457.658850 221.634825 457.604635 222.255651 457.550422 222.876477 457.496215 223.497303 457.442021 224.118129 457.387843 224.738954 457.333687 225.359780 457.279557 225.980606 457.225460 226.601432 457.171398 227.222258 457.117379 227.843084 457.063406 228.463909 457.009484 229.084735 456.955618 229.705561 456.901814 230.326387 456.848076 230.947213 456.794410 231.568039 456.740819 232.188864 456.687309 232.809690 456.633886 233.430516 456.580553 234.051342 456.527317 234.672168 456.474181 235.292994 456.421151 235.913820 456.368232 236.534645 456.315428 237.155471 456.262745 237.776297 456.210188 238.397123 456.157761 239.017949 456.105469 239.638775 456.053318 240.259600 456.001312 240.880426 455.949457 241.501252 455.897757 242.122078 455.846217 242.742904 455.794842 243.363730 455.743637 243.984555 455.692607 244.605381 455.641757 245.226207 455.591092 245.847033 455.540617 246.467859 455.490336 247.088685 455.440255 247.709511 455.390379 248.330336 455.340713 248.951162 455.291261 249.571988 455.242028 250.192814 455.193020 250.813640 455.144242 251.434466 455.095697 252.055291 455.047392 252.676117 454.999332 253.296943 454.951520 253.917769 454.903962 254.538595 454.856664 255.159421 454.809629 255.780246 454.762864 256.401072 454.716372 257.021898 454.670159 257.642724 454.624230 258.263550 454.578589 258.884376 454.533243 259.505201 454.488194 260.126027 454.443450 260.746853 454.399013 261.367679 454.354891 261.988505 454.311086 262.609331 454.267605 263.230157 454.224452 263.850982 454.181633 264.471808 454.139151 265.092634 454.097013 265.713460 454.055222 266.334286 454.013785 266.955112 453.972705 267.575937 453.931989 268.196763 453.891640 268.817589 453.851664 269.438415 453.812065 270.059241 453.772850 270.680067 453.734021 271.300892 453.695586 271.921718 453.657547 272.542544 453.619912 273.163370 453.582683 273.784196 453.545867 274.405022 453.509468 275.025848 453.473491 275.646673 453.437942 276.267499 453.402824 276.888325 453.368144 277.509151 453.333905 278.129977 453.300113 278.750803 453.266773 279.371628 453.233890 279.992454 453.201469 280.613280 453.169514 281.234106 453.138031 281.854932 453.107025 282.475758 453.076500 283.096583 453.046462 283.717409 453.016914 284.338235 452.987864 284.959061 452.959314 285.579887 452.931271 286.200713 452.903739 286.821538 452.876723 287.442364 452.850228 288.063190 452.824259 288.684016 452.798821 289.304842 452.773919 289.925668 452.749558 290.546494 452.725742 291.167319 452.702478 291.788145 452.679768 292.408971 452.657620 293.029797 452.636037 293.650623 452.615025 294.271449 452.594588 294.892274 452.574731 295.513100 452.555460 296.133926 452.536779 296.754752 452.518693 297.375578 452.501207 297.996404 452.484327 298.617229 452.468056 299.238055 452.452400 299.858881 452.437365 300.479707 452.422954 301.100533 452.409173 301.721359 452.396027 302.342185 452.383521 302.963010 452.371659 303.583836 452.360447 304.204662 452.349889 304.825488 452.339991 305.446314 452.330757 306.067140 452.322192 306.687965 452.314302 307.308791 452.307091 307.929617 452.300565 308.550443 452.294727 309.171269 452.289584 309.792095 452.285140 310.412920 452.281399 311.033746 452.278368 311.654572 452.276050 312.275398 452.274451 312.896224 452.273576 313.517050 452.273430 314.137875 452.274017 314.758701 452.275343 315.379527 452.277412 316.000353 452.280230 316.621179 452.283801 317.242005 452.288130 317.862831 452.293223 318.483656 452.299084 319.104482 452.305719 319.725308 452.313131 320.346134 452.321327 320.966960 452.330310 321.587786 452.340086 322.208611 452.350661 322.829437 452.362038 323.450263 452.374221 324.071089 452.387207 324.691915 452.400990 325.312741 452.415564 325.933566 452.430924 326.554392 452.447066 327.175218 452.463982 327.796044 452.481669 328.416870 452.500120 329.037696 452.519331 329.658522 452.539295 330.279347 452.560008 330.900173 452.581464 331.520999 452.603657 332.141825 452.626583 332.762651 452.650236 333.383477 452.674610 334.004302 452.699700 334.625128 452.725500 335.245954 452.752006 335.866780 452.779212 336.487606 452.807113 337.108432 452.835702 337.729257 452.864975 338.350083 452.894927 338.970909 452.925551 339.591735 452.956843 340.212561 452.988796 340.833387 453.021407 341.454212 453.054669 342.075038 453.088577 342.695864 453.123125 343.316690 453.158308 343.937516 453.194122 344.558342 453.230559 345.179168 453.267615 345.799993 453.305285 346.420819 453.343563 347.041645 453.382444 347.662471 453.421922 348.283297 453.461992 348.904123 453.502649 349.524948 453.543887 350.145774 453.585700 350.766600 453.628084 351.387426 453.671033 352.008252 453.714542 352.629078 453.758604 353.249903 453.803216 353.870729 453.848370 354.491555 453.894063 355.112381 453.940289 355.733207 453.987041 356.354033 454.034316 356.974858 454.082106 357.595684 454.130408 358.216510 454.179215 358.837336 454.228523 359.458162 454.278325 360.078988 454.328617 360.699814 454.379393 361.320639 454.430648 361.941465 454.482375 362.562291 454.534571 363.183117 454.587229 363.803943 454.640344 364.424769 454.693911 365.045594 454.747924 365.666420 454.802378 366.287246 454.857267 366.908072 454.912586 367.528898 454.968330 368.149724 455.024494 368.770549 455.081071 369.391375 455.138057 370.012201 455.195445 370.633027 455.253232 371.253853 455.311411 371.874679 455.369976 372.495505 455.428923 373.116330 455.488247 373.737156 455.547941 374.357982 455.608000 374.978808 455.668419 375.599634 455.729193 376.220460 455.790316 376.841285 455.851782 377.462111 455.913587 378.082937 455.975725 378.703763 456.038190 379.324589 456.100978 379.945415 456.164082 380.566240 456.227498 381.187066 456.291220 381.807892 456.355242 382.428718 456.419559 383.049544 456.484166 383.670370 456.549058 384.291195 456.614228 384.912021 456.679672 385.532847 456.745384 386.153673 456.811359 386.774499 456.877592 387.395325 456.944076 388.016151 457.010807 388.636976 457.077779 389.257802 457.144987 389.878628 457.212426 390.499454 457.280089 391.120280 457.347972 391.741106 457.416070 392.361931 457.484376 392.982757 457.552885 393.603583 457.621593 394.224409 457.690493 394.845235 457.759581 395.466061 457.828850 396.086886 457.898296 396.707712 457.967913 397.328538 458.037695 397.949364 458.107638 398.570190 458.177736 399.191016 458.247983 399.811842 458.318374 400.432667 458.388904 401.053493 458.459567 401.674319 458.530358 402.295145 458.601272 402.915971 458.672302 403.536797 458.743445 404.157622 458.814693 404.778448 458.886043 405.399274 458.957488 406.020100 459.029023 406.640926 459.100643 407.261752 459.172342 407.882577 459.244115 408.503403 459.315957 409.124229 459.387862 409.745055 459.459825 410.365881 459.531839 410.986707 459.603901 411.607532 459.676005 412.228358 459.748144 412.849184 459.820315 413.470010 459.892510 414.090836 459.964726 414.711662 460.036956 415.332488 460.109196 415.953313 460.181439 416.574139 460.253681 417.194965 460.325915 417.815791 460.398137 418.436617 460.470342 419.057443 460.542523 419.678268 460.614675 420.299094 460.686794 420.919920 460.758873 421.540746 460.830908 422.161572 460.902892 422.782398 460.974820 423.403223 461.046688 424.024049 461.118489 424.644875 461.190219 425.265701 461.261871 425.886527 461.333441 426.507353 461.404923 427.128179 461.476312 427.749004 461.547601 428.369830 461.618787 428.990656 461.689863 429.611482 461.760824 430.232308 461.831665 430.853134 461.902380 431.473959 461.972964 432.094785 462.043412 432.715611 462.113717 433.336437 462.183876 433.957263 462.253881 434.578089 462.323729 435.198914 462.393413 435.819740 462.462928 436.440566 462.532268 437.061392 462.601430 437.682218 462.670406 438.303044 462.739191 438.923869 462.807781 439.544695 462.876169 440.165521 462.944351 440.786347 463.012321 441.407173 463.080073 442.027999 463.147602 442.648825 463.214903 443.269650 463.281971 443.890476 463.348799 444.511302 463.415383 445.132128 463.481717 445.752954 463.547796 446.373780 463.613615 446.994605 463.679167 447.615431 463.744448 448.236257 463.809452 448.857083 463.874174 449.477909 463.938608 450.098735 464.002749 450.719560 464.066592 451.340386 464.130131 451.961212 464.193361 452.582038 464.256276 453.202864 464.318871 453.823690 464.381141 454.444516 464.443080 455.065341 464.504683 455.686167 464.565945 456.306993 464.626859 456.927819 464.687421 457.548645 464.747626 458.169471 464.807467 458.790296 464.866939 459.411122 464.926038 460.031948 464.984758 460.652774 465.043092 461.273600 465.101037 461.894426 465.158586 462.515251 465.215734 463.136077 465.272475 463.756903 465.328805 464.377729 465.384718 464.998555 465.440209 465.619381 465.495271 466.240206 465.549900 466.861032 465.604091 467.481858 465.657837 468.102684 465.711134 468.723510 465.763976 469.344336 465.816358 469.965162 465.868274 470.585987 465.919719 471.206813 465.970688 471.827639 466.021174 472.448465 466.071174 473.069291 466.120681 473.690117 466.169689 474.310942 466.218195 474.931768 466.266191 475.552594 466.313673 476.173420 466.360636 476.794246 466.407073 477.415072 466.452980 478.035897 466.498352 478.656723 466.543183 479.277549 466.587475 479.898375 466.631231 480.519201 466.674451 481.140027 466.717139 481.760853 466.759297 482.381678 466.800927 483.002504 466.842030 483.623330 466.882610 484.244156 466.922667 484.864982 466.962205 485.485808 467.001226 486.106633 467.039732 486.727459 467.077724 487.348285 467.115206 487.969111 467.152179 488.589937 467.188645 489.210763 467.224607 489.831588 467.260066 490.452414 467.295026 491.073240 467.329487 491.694066 467.363453 492.314892 467.396925 492.935718 467.429906 493.556543 467.462398 494.177369 467.494402 494.798195 467.525922 495.419021 467.556958 496.039847 467.587515 496.660673 467.617592 497.281499 467.647194 497.902324 467.676321 498.523150 467.704976 499.143976 467.733162 499.764802 467.760880 500.385628 467.788133 501.006454 467.814922 501.627279 467.841250 502.248105 467.867119 502.868931 467.892531 503.489757 467.917489 504.110583 467.941995 504.731409 467.966050 505.352234 467.989656 505.973060 468.012817 506.593886 468.035535 507.214712 468.057810 507.835538 468.079646 508.456364 468.101045 509.077190 468.122008 509.698015 468.142539 510.318841 468.162639 510.939667 468.182310 511.560493 468.201554 512.181319 468.220375 512.802145 468.238773 513.422970 468.256751 514.043796 468.274312 514.664622 468.291456 515.285448 468.308188 515.906274 468.324507 516.527100 468.340418 517.147925 468.355922 517.768751 468.371021 518.389577 468.385717 519.010403 468.400013 519.631229 468.413910 520.252055 468.427412 520.872880 468.440519 521.493706 468.453234 522.114532 468.465560 522.735358 468.477498 523.356184 468.489051 523.977010 468.500221 524.597836 468.511009 525.218661 468.521419 525.839487 468.531452 526.460313 468.541111 527.081139 468.550397 527.701965 468.559313 528.322791 468.567861 528.943616 468.576043 529.564442 468.583862 530.185268 468.591319 530.806094 468.598416 531.426920 468.605157 532.047746 468.611542 532.668571 468.617574 533.289397 468.623256 533.910223 468.628589 534.531049 468.633576 535.151875 468.638219 535.772701 468.642519 536.393527 468.646480 537.014352 468.650103 537.635178 468.653390 538.256004 468.656344 538.876830 468.658967 539.497656 468.661260 540.118482 468.663227 540.739307 468.664869 541.360133 468.666189 541.980959 468.667188 542.601785 468.667869 543.222611 468.668233 543.843437 468.668284 544.464262 468.668023 545.085088 468.667453 545.705914 468.666575 546.326740 468.665392 546.947566 468.663906 547.568392 468.662119 548.189217 468.660033 548.810043 468.657650 549.430869 468.654974 550.051695 468.652004 550.672521 468.648745 551.293347 468.645198 551.914173 468.641365 552.534998 468.637249 553.155824 468.632851 553.776650 468.628173 554.397476 468.623219 555.018302 468.617990 555.639128 468.612488 556.259953 468.606715 556.880779 468.600674 557.501605 468.594367 558.122431 468.587795 558.743257 468.580962 559.364083 468.573869 559.984908 468.566518 560.605734 468.558912 561.226560 468.551052 561.847386 468.542941 562.468212 468.534582 563.089038 468.525975 563.709864 468.517124 564.330689 468.508030 564.951515 468.498697 565.572341 468.489125 566.193167 468.479317 566.813993 468.469275 567.434819 468.459001 568.055644 468.448499 568.676470 468.437768 569.297296 468.426813 569.918122 468.415635 570.538948 468.404236 571.159774 468.392618 571.780599 468.380783 572.401425 468.368735 573.022251 468.356474 573.643077 468.344003 574.263903 468.331325 574.884729 468.318440 575.505554 468.305353 576.126380 468.292064 576.747206 468.278575 577.368032 468.264890 577.988858 468.251010 578.609684 468.236937 579.230510 468.222674 579.851335 468.208222 580.472161 468.193584 581.092987 468.178763 581.713813 468.163759 582.334639 468.148576 582.955465 468.133215 583.576290 468.117679 584.197116 468.101969 584.817942 468.086089 585.438768 468.070039 586.059594 468.053823 586.680420 468.037443 587.301245 468.020900 587.922071 468.004197 588.542897 467.987336 589.163723 467.970319 589.784549 467.953148 590.405375 467.935826 591.026201 467.918354 591.647026 467.900735 592.267852 467.882971 592.888678 467.865065 593.509504 467.847017 594.130330 467.828831 594.751156 467.810509 595.371981 467.792052 595.992807 467.773463 596.613633 467.754745 597.234459 467.735898 597.855285 467.716927 598.476111 467.697831 599.096936 467.678615 599.717762 467.659279 600.338588 467.639827 600.959414 467.620259 601.580240 467.600580 602.201066 467.580789 602.821891 467.560891 603.442717 467.540886 604.063543 467.520778 604.684369 467.500568 605.305195 467.480258 605.926021 467.459851 606.546847 467.439348 607.167672 467.418753 607.788498 467.398066 608.409324 467.377291 609.030150 467.356429 609.650976 467.335483 610.271802 467.314455 610.892627 467.293346 611.513453 467.272159 612.134279 467.250897 612.755105 467.229561 613.375931 467.208154 613.996757 467.186677 614.617582 467.165133 615.238408 467.143525 615.859234 467.121853 616.480060 467.100121 617.100886 467.078330 617.721712 467.056484 618.342538 467.034583 618.963363 467.012630 619.584189 466.990627 620.205015 466.968577 620.825841 466.946481 621.446667 466.924342 622.067493 466.902162 622.688318 466.879942 623.309144 466.857686 623.929970 466.835396 624.550796 466.813073 625.171622 466.790719 625.792448 466.768338 626.413273 466.745930 627.034099 466.723499 627.654925 466.701046 628.275751 466.678573 628.896577 466.656083 629.517403 466.633578 630.138228 466.611061 630.759054 466.588532 631.379880 466.565994 632.000706 466.543450 632.621532 466.520902 633.242358 466.498352" class="line reactive nofill" /></g></g><g class="titles"><text x="400.0" y="26" class="title plot_title">主题: 路由器CPU利用率</text></g><g transform="translate(120, 46)" class="plot overlay"><g class="series serie-0 color-0"><g class="dots"><circle cx="12.416516817366263" cy="461.78624712787" r="2.5" class="dot reactive tooltip-trigger" /><desc class="value">4</desc><desc class="x top">12.416516817366263</desc><desc class="y top">461.78624712787</desc><desc class="x_label">10:23:01</desc></g><g class="dots"><circle cx="167.62297703444455" cy="461.78624712787" r="2.5" class="dot reactive tooltip-trigger" /><desc class="value">4</desc><desc class="x top">167.62297703444455</desc><desc class="y top">461.78624712787</desc><desc class="x_label">10:24:02</desc></g><g class="dots"><circle cx="322.82943725152285" cy="452.36203800281146" r="2.5" class="dot reactive tooltip-trigger" /><desc class="value">6</desc><desc class="x top">322.82943725152285</desc><desc class="y top">452.36203800281146</desc><desc class="x_label">10:25:02</desc></g><g class="dots"><circle cx="478.03589746860115" cy="466.4983516903993" r="2.5" class="dot reactive tooltip-trigger" /><desc class="value">3</desc><desc class="x left top">478.03589746860115</desc><desc class="y left top">466.4983516903993</desc><desc class="x_label">10:26:02</desc></g><g class="dots"><circle cx="633.2423576856794" cy="466.4983516903993" r="2.5" class="dot reactive tooltip-trigger" /><desc class="value">3</desc><desc class="x left top">633.2423576856794</desc><desc class="y left top">466.4983516903993</desc><desc class="x_label">10:27:02</desc></g></g></g><g transform="translate(120, 46)" class="plot text-overlay"><g class="series serie-0 color-0" /></g><g transform="translate(120, 46)" class="plot tooltip-overlay"><g transform="translate(0 0)" style="opacity: 0" class="tooltip"><rect rx="0" ry="0" width="0" height="0" class="tooltip-box" /><g class="text" /></g></g><g transform="translate(10, 56)" class="legends"><g id="activate-serie-0" class="legend reactive activate-serie"><rect x="0.0" y="1.0" width="12" height="12" class="color-0 reactive" /><text x="17.0" y="11.2">CPU利用率</text></g></g><g transform="translate(776, 56)" class="legends" /></g></svg>