<?xml version='1.0' encoding='utf-8'?>
<svg xmlns="http://www.w3.org/2000/svg" xmlns:xlink="http://www.w3.org/1999/xlink" id="chart-e717deb2-320e-4cf4-9e97-37e206b106f9" class="pygal-chart" viewBox="0 0 800 600"><!--Generated with pygal 3.0.5 (lxml) ©Kozea 2012-2016 on 2025-02-23--><!--http://pygal.org--><!--http://github.com/Kozea/pygal--><defs><style type="text/css">#chart-e717deb2-320e-4cf4-9e97-37e206b106f9{-webkit-user-select:none;-webkit-font-smoothing:antialiased;font-family:Consolas,"Liberation Mono",Menlo,Courier,monospace}#chart-e717deb2-320e-4cf4-9e97-37e206b106f9 .title{font-family:Noto Sans CJK SC;font-size:16px}#chart-e717deb2-320e-4cf4-9e97-37e206b106f9 .legends .legend text{font-family:Noto Sans CJK SC;font-size:14px}#chart-e717deb2-320e-4cf4-9e97-37e206b106f9 .axis text{font-family:Noto Sans CJK SC;font-size:10px}#chart-e717deb2-320e-4cf4-9e97-37e206b106f9 .axis text.major{font-family:Noto Sans CJK SC;font-size:10px}#chart-e717deb2-320e-4cf4-9e97-37e206b106f9 .text-overlay text.value{font-family:Noto Sans CJK SC;font-size:16px}#chart-e717deb2-320e-4cf4-9e97-37e206b106f9 .text-overlay text.label{font-family:Consolas,"Liberation Mono",Menlo,Courier,monospace;font-size:10px}#chart-e717deb2-320e-4cf4-9e97-37e206b106f9 .tooltip{font-family:Consolas,"Liberation Mono",Menlo,Courier,monospace;font-size:14px}#chart-e717deb2-320e-4cf4-9e97-37e206b106f9 text.no_data{font-family:Consolas,"Liberation Mono",Menlo,Courier,monospace;font-size:64px}
#chart-e717deb2-320e-4cf4-9e97-37e206b106f9{background-color:rgba(249,249,249,1)}#chart-e717deb2-320e-4cf4-9e97-37e206b106f9 path,#chart-e717deb2-320e-4cf4-9e97-37e206b106f9 line,#chart-e717deb2-320e-4cf4-9e97-37e206b106f9 rect,#chart-e717deb2-320e-4cf4-9e97-37e206b106f9 circle{-webkit-transition:150ms;-moz-transition:150ms;transition:150ms}#chart-e717deb2-320e-4cf4-9e97-37e206b106f9 .graph &gt; .background{fill:rgba(249,249,249,1)}#chart-e717deb2-320e-4cf4-9e97-37e206b106f9 .plot &gt; .background{fill:rgba(255,255,255,1)}#chart-e717deb2-320e-4cf4-9e97-37e206b106f9 .graph{fill:rgba(0,0,0,.87)}#chart-e717deb2-320e-4cf4-9e97-37e206b106f9 text.no_data{fill:rgba(0,0,0,1)}#chart-e717deb2-320e-4cf4-9e97-37e206b106f9 .title{fill:rgba(0,0,0,1)}#chart-e717deb2-320e-4cf4-9e97-37e206b106f9 .legends .legend text{fill:rgba(0,0,0,.87)}#chart-e717deb2-320e-4cf4-9e97-37e206b106f9 .legends .legend:hover text{fill:rgba(0,0,0,1)}#chart-e717deb2-320e-4cf4-9e97-37e206b106f9 .axis .line{stroke:rgba(0,0,0,1)}#chart-e717deb2-320e-4cf4-9e97-37e206b106f9 .axis .guide.line{stroke:rgba(0,0,0,.54)}#chart-e717deb2-320e-4cf4-9e97-37e206b106f9 .axis .major.line{stroke:rgba(0,0,0,.87)}#chart-e717deb2-320e-4cf4-9e97-37e206b106f9 .axis text.major{fill:rgba(0,0,0,1)}#chart-e717deb2-320e-4cf4-9e97-37e206b106f9 .axis.y .guides:hover .guide.line,#chart-e717deb2-320e-4cf4-9e97-37e206b106f9 .line-graph .axis.x .guides:hover .guide.line,#chart-e717deb2-320e-4cf4-9e97-37e206b106f9 .stackedline-graph .axis.x .guides:hover .guide.line,#chart-e717deb2-320e-4cf4-9e97-37e206b106f9 .xy-graph .axis.x .guides:hover .guide.line{stroke:rgba(0,0,0,1)}#chart-e717deb2-320e-4cf4-9e97-37e206b106f9 .axis .guides:hover text{fill:rgba(0,0,0,1)}#chart-e717deb2-320e-4cf4-9e97-37e206b106f9 .reactive{fill-opacity:.7;stroke-opacity:.8;stroke-width:1}#chart-e717deb2-320e-4cf4-9e97-37e206b106f9 .ci{stroke:rgba(0,0,0,.87)}#chart-e717deb2-320e-4cf4-9e97-37e206b106f9 .reactive.active,#chart-e717deb2-320e-4cf4-9e97-37e206b106f9 .active .reactive{fill-opacity:.8;stroke-opacity:.9;stroke-width:4}#chart-e717deb2-320e-4cf4-9e97-37e206b106f9 .ci .reactive.active{stroke-width:1.5}#chart-e717deb2-320e-4cf4-9e97-37e206b106f9 .series text{fill:rgba(0,0,0,1)}#chart-e717deb2-320e-4cf4-9e97-37e206b106f9 .tooltip rect{fill:rgba(255,255,255,1);stroke:rgba(0,0,0,1);-webkit-transition:opacity 150ms;-moz-transition:opacity 150ms;transition:opacity 150ms}#chart-e717deb2-320e-4cf4-9e97-37e206b106f9 .tooltip .label{fill:rgba(0,0,0,.87)}#chart-e717deb2-320e-4cf4-9e97-37e206b106f9 .tooltip .label{fill:rgba(0,0,0,.87)}#chart-e717deb2-320e-4cf4-9e97-37e206b106f9 .tooltip .legend{font-size:.8em;fill:rgba(0,0,0,.54)}#chart-e717deb2-320e-4cf4-9e97-37e206b106f9 .tooltip .x_label{font-size:.6em;fill:rgba(0,0,0,1)}#chart-e717deb2-320e-4cf4-9e97-37e206b106f9 .tooltip .xlink{font-size:.5em;text-decoration:underline}#chart-e717deb2-320e-4cf4-9e97-37e206b106f9 .tooltip .value{font-size:1.5em}#chart-e717deb2-320e-4cf4-9e97-37e206b106f9 .bound{font-size:.5em}#chart-e717deb2-320e-4cf4-9e97-37e206b106f9 .max-value{font-size:.75em;fill:rgba(0,0,0,.54)}#chart-e717deb2-320e-4cf4-9e97-37e206b106f9 .map-element{fill:rgba(255,255,255,1);stroke:rgba(0,0,0,.54) !important}#chart-e717deb2-320e-4cf4-9e97-37e206b106f9 .map-element .reactive{fill-opacity:inherit;stroke-opacity:inherit}#chart-e717deb2-320e-4cf4-9e97-37e206b106f9 .color-0,#chart-e717deb2-320e-4cf4-9e97-37e206b106f9 .color-0 a:visited{stroke:#F44336;fill:#F44336}#chart-e717deb2-320e-4cf4-9e97-37e206b106f9 .text-overlay .color-0 text{fill:black}
#chart-e717deb2-320e-4cf4-9e97-37e206b106f9 text.no_data{text-anchor:middle}#chart-e717deb2-320e-4cf4-9e97-37e206b106f9 .guide.line{fill:none}#chart-e717deb2-320e-4cf4-9e97-37e206b106f9 .centered{text-anchor:middle}#chart-e717deb2-320e-4cf4-9e97-37e206b106f9 .title{text-anchor:middle}#chart-e717deb2-320e-4cf4-9e97-37e206b106f9 .legends .legend text{fill-opacity:1}#chart-e717deb2-320e-4cf4-9e97-37e206b106f9 .axis.x text{text-anchor:middle}#chart-e717deb2-320e-4cf4-9e97-37e206b106f9 .axis.x:not(.web) text[transform]{text-anchor:start}#chart-e717deb2-320e-4cf4-9e97-37e206b106f9 .axis.x:not(.web) text[transform].backwards{text-anchor:end}#chart-e717deb2-320e-4cf4-9e97-37e206b106f9 .axis.y text{text-anchor:end}#chart-e717deb2-320e-4cf4-9e97-37e206b106f9 .axis.y text[transform].backwards{text-anchor:start}#chart-e717deb2-320e-4cf4-9e97-37e206b106f9 .axis.y2 text{text-anchor:start}#chart-e717deb2-320e-4cf4-9e97-37e206b106f9 .axis.y2 text[transform].backwards{text-anchor:end}#chart-e717deb2-320e-4cf4-9e97-37e206b106f9 .axis .guide.line{stroke-dasharray:4,4;stroke:black}#chart-e717deb2-320e-4cf4-9e97-37e206b106f9 .axis .major.guide.line{stroke-dasharray:6,6;stroke:black}#chart-e717deb2-320e-4cf4-9e97-37e206b106f9 .horizontal .axis.y .guide.line,#chart-e717deb2-320e-4cf4-9e97-37e206b106f9 .horizontal .axis.y2 .guide.line,#chart-e717deb2-320e-4cf4-9e97-37e206b106f9 .vertical .axis.x .guide.line{opacity:0}#chart-e717deb2-320e-4cf4-9e97-37e206b106f9 .horizontal .axis.always_show .guide.line,#chart-e717deb2-320e-4cf4-9e97-37e206b106f9 .vertical .axis.always_show .guide.line{opacity:1 !important}#chart-e717deb2-320e-4cf4-9e97-37e206b106f9 .axis.y .guides:hover .guide.line,#chart-e717deb2-320e-4cf4-9e97-37e206b106f9 .axis.y2 .guides:hover .guide.line,#chart-e717deb2-320e-4cf4-9e97-37e206b106f9 .axis.x .guides:hover .guide.line{opacity:1}#chart-e717deb2-320e-4cf4-9e97-37e206b106f9 .axis .guides:hover text{opacity:1}#chart-e717deb2-320e-4cf4-9e97-37e206b106f9 .nofill{fill:none}#chart-e717deb2-320e-4cf4-9e97-37e206b106f9 .subtle-fill{fill-opacity:.2}#chart-e717deb2-320e-4cf4-9e97-37e206b106f9 .dot{stroke-width:1px;fill-opacity:1;stroke-opacity:1}#chart-e717deb2-320e-4cf4-9e97-37e206b106f9 .dot.active{stroke-width:5px}#chart-e717deb2-320e-4cf4-9e97-37e206b106f9 .dot.negative{fill:transparent}#chart-e717deb2-320e-4cf4-9e97-37e206b106f9 text,#chart-e717deb2-320e-4cf4-9e97-37e206b106f9 tspan{stroke:none !important}#chart-e717deb2-320e-4cf4-9e97-37e206b106f9 .series text.active{opacity:1}#chart-e717deb2-320e-4cf4-9e97-37e206b106f9 .tooltip rect{fill-opacity:.95;stroke-width:.5}#chart-e717deb2-320e-4cf4-9e97-37e206b106f9 .tooltip text{fill-opacity:1}#chart-e717deb2-320e-4cf4-9e97-37e206b106f9 .showable{visibility:hidden}#chart-e717deb2-320e-4cf4-9e97-37e206b106f9 .showable.shown{visibility:visible}#chart-e717deb2-320e-4cf4-9e97-37e206b106f9 .gauge-background{fill:rgba(229,229,229,1);stroke:none}#chart-e717deb2-320e-4cf4-9e97-37e206b106f9 .bg-lines{stroke:rgba(249,249,249,1);stroke-width:2px}</style><script type="text/javascript">window.pygal = window.pygal || {};window.pygal.config = window.pygal.config || {};window.pygal.config['e717deb2-320e-4cf4-9e97-37e206b106f9'] = {"allow_interruptions": false, "box_mode": "extremes", "classes": ["pygal-chart"], "css": ["file://style.css", "file://graph.css"], "defs": [], "disable_xml_declaration": false, "dots_size": 2.5, "dynamic_print_values": false, "explicit_size": false, "fill": false, "force_uri_protocol": "https", "formatter": null, "half_pie": false, "height": 600, "include_x_axis": false, "inner_radius": 0, "interpolate": "cubic", "interpolation_parameters": {}, "interpolation_precision": 250, "inverse_y_axis": false, "js": ["//kozea.github.io/pygal.js/2.0.x/pygal-tooltips.min.js"], "legend_at_bottom": false, "legend_at_bottom_columns": null, "legend_box_size": 12, "logarithmic": false, "margin": 20, "margin_bottom": null, "margin_left": null, "margin_right": null, "margin_top": null, "max_scale": 16, "min_scale": 4, "missing_value_fill_truncation": "x", "no_data_text": "No data", "no_prefix": false, "order_min": null, "pretty_print": false, "print_labels": false, "print_values": false, "print_values_position": "center", "print_zeroes": true, "range": [0, 100], "rounded_bars": null, "secondary_range": null, "show_dots": true, "show_legend": true, "show_minor_x_labels": true, "show_minor_y_labels": true, "show_only_major_dots": false, "show_x_guides": false, "show_x_labels": true, "show_y_guides": true, "show_y_labels": true, "spacing": 10, "stack_from_top": false, "strict": false, "stroke": true, "stroke_style": null, "style": {"background": "rgba(249, 249, 249, 1)", "ci_colors": [], "colors": ["#F44336", "#3F51B5", "#009688", "#FFC107", "#FF5722", "#9C27B0", "#03A9F4", "#8BC34A", "#FF9800", "#E91E63", "#2196F3", "#4CAF50", "#FFEB3B", "#673AB7", "#00BCD4", "#CDDC39", "#9E9E9E", "#607D8B"], "dot_opacity": "1", "font_family": "Consolas, \"Liberation Mono\", Menlo, Courier, monospace", "foreground": "rgba(0, 0, 0, .87)", "foreground_strong": "rgba(0, 0, 0, 1)", "foreground_subtle": "rgba(0, 0, 0, .54)", "guide_stroke_color": "black", "guide_stroke_dasharray": "4,4", "label_font_family": "Noto Sans CJK SC", "label_font_size": 10, "legend_font_family": "Noto Sans CJK SC", "legend_font_size": 14, "major_guide_stroke_color": "black", "major_guide_stroke_dasharray": "6,6", "major_label_font_family": "Noto Sans CJK SC", "major_label_font_size": 10, "no_data_font_family": "Consolas, \"Liberation Mono\", Menlo, Courier, monospace", "no_data_font_size": 64, "opacity": ".7", "opacity_hover": ".8", "plot_background": "rgba(255, 255, 255, 1)", "stroke_opacity": ".8", "stroke_opacity_hover": ".9", "stroke_width": "1", "stroke_width_hover": "4", "title_font_family": "Noto Sans CJK SC", "title_font_size": 16, "tooltip_font_family": "Consolas, \"Liberation Mono\", Menlo, Courier, monospace", "tooltip_font_size": 14, "transition": "150ms", "value_background": "rgba(229, 229, 229, 1)", "value_colors": [], "value_font_family": "Noto Sans CJK SC", "value_font_size": 16, "value_label_font_family": "Consolas, \"Liberation Mono\", Menlo, Courier, monospace", "value_label_font_size": 10}, "title": "\u4e3b\u9898: \u8def\u7531\u5668\u5185\u5b58\u5229\u7528\u7387", "tooltip_border_radius": 0, "tooltip_fancy_mode": true, "truncate_label": null, "truncate_legend": null, "width": 800, "x_label_rotation": 45, "x_labels": ["20:12:02", "20:13:02", "20:14:03", "20:15:02", "20:16:01"], "x_labels_major": null, "x_labels_major_count": null, "x_labels_major_every": null, "x_title": null, "xrange": null, "y_label_rotation": 0, "y_labels": null, "y_labels_major": null, "y_labels_major_count": null, "y_labels_major_every": null, "y_title": null, "zero": 0, "legends": ["MEM\u5229\u7528\u7387"]}</script><script type="text/javascript" xlink:href="https://kozea.github.io/pygal.js/2.0.x/pygal-tooltips.min.js"/></defs><title>主题: 路由器内存利用率</title><g class="graph line-graph vertical"><rect x="0" y="0" width="800" height="600" class="background"/><g transform="translate(120, 46)" class="plot"><rect x="0" y="0" width="645.6588745030457" height="490.05887450304573" class="background"/><g class="axis y always_show"><g class="guides"><path d="M0.000000 480.634665 h645.658875" class="axis major line"/><text x="-5" y="484.1346653779872" class="major">0</text><title>0</title></g><g class="guides"><path d="M0.000000 433.513620 h645.658875" class="guide line"/><text x="-5" y="437.0136197526943" class="">10</text><title>10</title></g><g class="guides"><path d="M0.000000 386.392574 h645.658875" class="guide line"/><text x="-5" y="389.8925741274014" class="">20</text><title>20</title></g><g class="guides"><path d="M0.000000 339.271529 h645.658875" class="guide line"/><text x="-5" y="342.7715285021086" class="">30</text><title>30</title></g><g class="guides"><path d="M0.000000 292.150483 h645.658875" class="guide line"/><text x="-5" y="295.6504828768158" class="">40</text><title>40</title></g><g class="guides"><path d="M0.000000 245.029437 h645.658875" class="major guide line"/><text x="-5" y="248.52943725152286" class="major">50</text><title>50</title></g><g class="guides"><path d="M0.000000 197.908392 h645.658875" class="guide line"/><text x="-5" y="201.40839162623" class="">60</text><title>60</title></g><g class="guides"><path d="M0.000000 150.787346 h645.658875" class="guide line"/><text x="-5" y="154.28734600093713" class="">70</text><title>70</title></g><g class="guides"><path d="M0.000000 103.666300 h645.658875" class="guide line"/><text x="-5" y="107.16630037564425" class="">80</text><title>80</title></g><g class="guides"><path d="M0.000000 56.545255 h645.658875" class="guide line"/><text x="-5" y="60.045254750351376" class="">90</text><title>90</title></g><g class="guides"><path d="M0.000000 9.424209 h645.658875" class="major guide line"/><text x="-5" y="12.92420912505861" class="major">100</text><title>100</title></g></g><g class="axis x"><g class="guides"><path d="M12.416517 0.000000 v490.058875" class="line"/><text x="12.416516817366263" y="505.05887450304573" class="" transform="rotate(45 12.416517 505.058875)">20:12:02</text></g><g class="guides"><path d="M167.622977 0.000000 v490.058875" class="guide line"/><text x="167.62297703444455" y="505.05887450304573" class="" transform="rotate(45 167.622977 505.058875)">20:13:02</text></g><g class="guides"><path d="M322.829437 0.000000 v490.058875" class="guide line"/><text x="322.82943725152285" y="505.05887450304573" class="" transform="rotate(45 322.829437 505.058875)">20:14:03</text></g><g class="guides"><path d="M478.035897 0.000000 v490.058875" class="guide line"/><text x="478.03589746860115" y="505.05887450304573" class="" transform="rotate(45 478.035897 505.058875)">20:15:02</text></g><g class="guides"><path d="M633.242358 0.000000 v490.058875" class="guide line"/><text x="633.2423576856794" y="505.05887450304573" class="" transform="rotate(45 633.242358 505.058875)">20:16:01</text></g></g><g class="series serie-0 color-0"><path d="M12.416517 170.201217 L13.037343 170.201281 13.658168 170.201345 14.278994 170.201409 14.899820 170.201473 15.520646 170.201536 16.141472 170.201600 16.762298 170.201664 17.383124 170.201728 18.003949 170.201792 18.624775 170.201855 19.245601 170.201919 19.866427 170.201982 20.487253 170.202046 21.108079 170.202109 21.728904 170.202173 22.349730 170.202236 22.970556 170.202299 23.591382 170.202362 24.212208 170.202425 24.833034 170.202488 25.453859 170.202550 26.074685 170.202613 26.695511 170.202675 27.316337 170.202737 27.937163 170.202800 28.557989 170.202862 29.178815 170.202923 29.799640 170.202985 30.420466 170.203046 31.041292 170.203108 31.662118 170.203169 32.282944 170.203230 32.903770 170.203290 33.524595 170.203351 34.145421 170.203411 34.766247 170.203471 35.387073 170.203531 36.007899 170.203591 36.628725 170.203650 37.249550 170.203709 37.870376 170.203768 38.491202 170.203827 39.112028 170.203885 39.732854 170.203943 40.353680 170.204001 40.974505 170.204059 41.595331 170.204116 42.216157 170.204173 42.836983 170.204230 43.457809 170.204286 44.078635 170.204343 44.699461 170.204398 45.320286 170.204454 45.941112 170.204509 46.561938 170.204564 47.182764 170.204618 47.803590 170.204672 48.424416 170.204726 49.045241 170.204780 49.666067 170.204833 50.286893 170.204886 50.907719 170.204938 51.528545 170.204990 52.149371 170.205041 52.770196 170.205093 53.391022 170.205143 54.011848 170.205194 54.632674 170.205244 55.253500 170.205293 55.874326 170.205342 56.495152 170.205391 57.115977 170.205439 57.736803 170.205487 58.357629 170.205534 58.978455 170.205581 59.599281 170.205628 60.220107 170.205674 60.840932 170.205719 61.461758 170.205764 62.082584 170.205809 62.703410 170.205853 63.324236 170.205897 63.945062 170.205940 64.565887 170.205982 65.186713 170.206024 65.807539 170.206066 66.428365 170.206107 67.049191 170.206147 67.670017 170.206187 68.290842 170.206226 68.911668 170.206265 69.532494 170.206303 70.153320 170.206341 70.774146 170.206378 71.394972 170.206415 72.015798 170.206451 72.636623 170.206486 73.257449 170.206521 73.878275 170.206555 74.499101 170.206589 75.119927 170.206622 75.740753 170.206654 76.361578 170.206686 76.982404 170.206717 77.603230 170.206747 78.224056 170.206777 78.844882 170.206806 79.465708 170.206834 80.086533 170.206862 80.707359 170.206889 81.328185 170.206916 81.949011 170.206942 82.569837 170.206967 83.190663 170.206991 83.811489 170.207015 84.432314 170.207038 85.053140 170.207060 85.673966 170.207082 86.294792 170.207103 86.915618 170.207123 87.536444 170.207142 88.157269 170.207161 88.778095 170.207179 89.398921 170.207196 90.019747 170.207212 90.640573 170.207228 91.261399 170.207243 91.882224 170.207257 92.503050 170.207270 93.123876 170.207282 93.744702 170.207294 94.365528 170.207305 94.986354 170.207315 95.607179 170.207324 96.228005 170.207333 96.848831 170.207340 97.469657 170.207347 98.090483 170.207353 98.711309 170.207358 99.332135 170.207362 99.952960 170.207365 100.573786 170.207368 101.194612 170.207370 101.815438 170.207370 102.436264 170.207370 103.057090 170.207369 103.677915 170.207367 104.298741 170.207364 104.919567 170.207361 105.540393 170.207356 106.161219 170.207350 106.782045 170.207344 107.402870 170.207336 108.023696 170.207328 108.644522 170.207319 109.265348 170.207309 109.886174 170.207297 110.507000 170.207285 111.127826 170.207272 111.748651 170.207258 112.369477 170.207243 112.990303 170.207227 113.611129 170.207209 114.231955 170.207191 114.852781 170.207172 115.473606 170.207152 116.094432 170.207131 116.715258 170.207109 117.336084 170.207086 117.956910 170.207061 118.577736 170.207036 119.198561 170.207010 119.819387 170.206982 120.440213 170.206954 121.061039 170.206924 121.681865 170.206894 122.302691 170.206862 122.923516 170.206829 123.544342 170.206795 124.165168 170.206760 124.785994 170.206724 125.406820 170.206687 126.027646 170.206649 126.648472 170.206610 127.269297 170.206569 127.890123 170.206527 128.510949 170.206485 129.131775 170.206441 129.752601 170.206395 130.373427 170.206349 130.994252 170.206302 131.615078 170.206253 132.235904 170.206203 132.856730 170.206152 133.477556 170.206100 134.098382 170.206047 134.719207 170.205992 135.340033 170.205936 135.960859 170.205879 136.581685 170.205821 137.202511 170.205762 137.823337 170.205701 138.444163 170.205639 139.064988 170.205576 139.685814 170.205512 140.306640 170.205446 140.927466 170.205379 141.548292 170.205311 142.169118 170.205241 142.789943 170.205170 143.410769 170.205098 144.031595 170.205025 144.652421 170.204950 145.273247 170.204874 145.894073 170.204797 146.514898 170.204718 147.135724 170.204639 147.756550 170.204557 148.377376 170.204475 148.998202 170.204391 149.619028 170.204305 150.239853 170.204219 150.860679 170.204131 151.481505 170.204041 152.102331 170.203951 152.723157 170.203859 153.343983 170.203765 153.964809 170.203670 154.585634 170.203574 155.206460 170.203476 155.827286 170.203377 156.448112 170.203276 157.068938 170.203174 157.689764 170.203071 158.310589 170.202966 158.931415 170.202860 159.552241 170.202752 160.173067 170.202643 160.793893 170.202532 161.414719 170.202420 162.035544 170.202306 162.656370 170.202191 163.277196 170.202075 163.898022 170.201957 164.518848 170.201837 165.139674 170.201716 165.760500 170.201594 166.381325 170.201470 167.002151 170.201344 167.622977 170.201217 168.243803 170.201088 168.864629 170.200958 169.485455 170.200826 170.106280 170.200693 170.727106 170.200558 171.347932 170.200422 171.968758 170.200285 172.589584 170.200146 173.210410 170.200005 173.831235 170.199863 174.452061 170.199720 175.072887 170.199575 175.693713 170.199429 176.314539 170.199282 176.935365 170.199133 177.556190 170.198983 178.177016 170.198831 178.797842 170.198678 179.418668 170.198524 180.039494 170.198369 180.660320 170.198212 181.281146 170.198054 181.901971 170.197895 182.522797 170.197734 183.143623 170.197572 183.764449 170.197410 184.385275 170.197245 185.006101 170.197080 185.626926 170.196914 186.247752 170.196746 186.868578 170.196577 187.489404 170.196407 188.110230 170.196236 188.731056 170.196064 189.351881 170.195890 189.972707 170.195716 190.593533 170.195540 191.214359 170.195364 191.835185 170.195186 192.456011 170.195007 193.076837 170.194828 193.697662 170.194647 194.318488 170.194465 194.939314 170.194282 195.560140 170.194099 196.180966 170.193914 196.801792 170.193728 197.422617 170.193542 198.043443 170.193354 198.664269 170.193166 199.285095 170.192976 199.905921 170.192786 200.526747 170.192595 201.147572 170.192403 201.768398 170.192210 202.389224 170.192017 203.010050 170.191822 203.630876 170.191627 204.251702 170.191431 204.872527 170.191234 205.493353 170.191036 206.114179 170.190838 206.735005 170.190638 207.355831 170.190438 207.976657 170.190238 208.597483 170.190036 209.218308 170.189834 209.839134 170.189632 210.459960 170.189428 211.080786 170.189224 211.701612 170.189019 212.322438 170.188814 212.943263 170.188608 213.564089 170.188401 214.184915 170.188194 214.805741 170.187986 215.426567 170.187777 216.047393 170.187568 216.668218 170.187359 217.289044 170.187149 217.909870 170.186938 218.530696 170.186727 219.151522 170.186515 219.772348 170.186303 220.393174 170.186091 221.013999 170.185878 221.634825 170.185664 222.255651 170.185450 222.876477 170.185236 223.497303 170.185021 224.118129 170.184806 224.738954 170.184590 225.359780 170.184374 225.980606 170.184158 226.601432 170.183941 227.222258 170.183724 227.843084 170.183507 228.463909 170.183289 229.084735 170.183071 229.705561 170.182853 230.326387 170.182635 230.947213 170.182416 231.568039 170.182197 232.188864 170.181978 232.809690 170.181758 233.430516 170.181538 234.051342 170.181318 234.672168 170.181098 235.292994 170.180878 235.913820 170.180658 236.534645 170.180437 237.155471 170.180216 237.776297 170.179996 238.397123 170.179775 239.017949 170.179554 239.638775 170.179333 240.259600 170.179111 240.880426 170.178890 241.501252 170.178669 242.122078 170.178447 242.742904 170.178226 243.363730 170.178005 243.984555 170.177783 244.605381 170.177562 245.226207 170.177341 245.847033 170.177119 246.467859 170.176898 247.088685 170.176677 247.709511 170.176456 248.330336 170.176235 248.951162 170.176014 249.571988 170.175793 250.192814 170.175573 250.813640 170.175352 251.434466 170.175132 252.055291 170.174912 252.676117 170.174692 253.296943 170.174472 253.917769 170.174252 254.538595 170.174033 255.159421 170.173814 255.780246 170.173595 256.401072 170.173376 257.021898 170.173158 257.642724 170.172940 258.263550 170.172722 258.884376 170.172504 259.505201 170.172287 260.126027 170.172070 260.746853 170.171854 261.367679 170.171637 261.988505 170.171422 262.609331 170.171206 263.230157 170.170991 263.850982 170.170777 264.471808 170.170562 265.092634 170.170349 265.713460 170.170135 266.334286 170.169922 266.955112 170.169710 267.575937 170.169498 268.196763 170.169287 268.817589 170.169076 269.438415 170.168865 270.059241 170.168655 270.680067 170.168446 271.300892 170.168237 271.921718 170.168029 272.542544 170.167822 273.163370 170.167614 273.784196 170.167408 274.405022 170.167202 275.025848 170.166997 275.646673 170.166793 276.267499 170.166589 276.888325 170.166386 277.509151 170.166183 278.129977 170.165981 278.750803 170.165780 279.371628 170.165580 279.992454 170.165380 280.613280 170.165181 281.234106 170.164983 281.854932 170.164786 282.475758 170.164589 283.096583 170.164393 283.717409 170.164198 284.338235 170.164004 284.959061 170.163811 285.579887 170.163618 286.200713 170.163427 286.821538 170.163236 287.442364 170.163046 288.063190 170.162857 288.684016 170.162669 289.304842 170.162482 289.925668 170.162296 290.546494 170.162110 291.167319 170.161926 291.788145 170.161743 292.408971 170.161560 293.029797 170.161379 293.650623 170.161199 294.271449 170.161020 294.892274 170.160841 295.513100 170.160664 296.133926 170.160488 296.754752 170.160313 297.375578 170.160139 297.996404 170.159966 298.617229 170.159794 299.238055 170.159623 299.858881 170.159454 300.479707 170.159286 301.100533 170.159118 301.721359 170.158952 302.342185 170.158787 302.963010 170.158624 303.583836 170.158461 304.204662 170.158300 304.825488 170.158140 305.446314 170.157981 306.067140 170.157824 306.687965 170.157668 307.308791 170.157513 307.929617 170.157359 308.550443 170.157207 309.171269 170.157056 309.792095 170.156906 310.412920 170.156758 311.033746 170.156611 311.654572 170.156466 312.275398 170.156322 312.896224 170.156179 313.517050 170.156037 314.137875 170.155898 314.758701 170.155759 315.379527 170.155622 316.000353 170.155487 316.621179 170.155352 317.242005 170.155220 317.862831 170.155089 318.483656 170.154959 319.104482 170.154831 319.725308 170.154705 320.346134 170.154580 320.966960 170.154456 321.587786 170.154335 322.208611 170.154214 322.829437 170.154096 323.450263 170.153979 324.071089 170.153863 324.691915 170.153750 325.312741 170.153637 325.933566 170.153527 326.554392 170.153418 327.175218 170.153310 327.796044 170.153204 328.416870 170.153100 329.037696 170.152997 329.658522 170.152896 330.279347 170.152796 330.900173 170.152698 331.520999 170.152601 332.141825 170.152506 332.762651 170.152412 333.383477 170.152320 334.004302 170.152229 334.625128 170.152140 335.245954 170.152052 335.866780 170.151966 336.487606 170.151881 337.108432 170.151797 337.729257 170.151715 338.350083 170.151635 338.970909 170.151555 339.591735 170.151477 340.212561 170.151401 340.833387 170.151326 341.454212 170.151252 342.075038 170.151180 342.695864 170.151109 343.316690 170.151040 343.937516 170.150971 344.558342 170.150904 345.179168 170.150839 345.799993 170.150775 346.420819 170.150712 347.041645 170.150650 347.662471 170.150590 348.283297 170.150531 348.904123 170.150473 349.524948 170.150417 350.145774 170.150362 350.766600 170.150308 351.387426 170.150255 352.008252 170.150204 352.629078 170.150153 353.249903 170.150105 353.870729 170.150057 354.491555 170.150010 355.112381 170.149965 355.733207 170.149921 356.354033 170.149878 356.974858 170.149836 357.595684 170.149796 358.216510 170.149756 358.837336 170.149718 359.458162 170.149681 360.078988 170.149645 360.699814 170.149610 361.320639 170.149576 361.941465 170.149544 362.562291 170.149512 363.183117 170.149482 363.803943 170.149452 364.424769 170.149424 365.045594 170.149397 365.666420 170.149371 366.287246 170.149346 366.908072 170.149322 367.528898 170.149299 368.149724 170.149277 368.770549 170.149256 369.391375 170.149236 370.012201 170.149218 370.633027 170.149200 371.253853 170.149183 371.874679 170.149167 372.495505 170.149152 373.116330 170.149138 373.737156 170.149125 374.357982 170.149113 374.978808 170.149102 375.599634 170.149092 376.220460 170.149083 376.841285 170.149075 377.462111 170.149067 378.082937 170.149061 378.703763 170.149055 379.324589 170.149050 379.945415 170.149047 380.566240 170.149044 381.187066 170.149042 381.807892 170.149041 382.428718 170.149040 383.049544 170.149041 383.670370 170.149042 384.291195 170.149044 384.912021 170.149047 385.532847 170.149051 386.153673 170.149055 386.774499 170.149061 387.395325 170.149067 388.016151 170.149074 388.636976 170.149082 389.257802 170.149090 389.878628 170.149099 390.499454 170.149109 391.120280 170.149120 391.741106 170.149131 392.361931 170.149143 392.982757 170.149156 393.603583 170.149170 394.224409 170.149184 394.845235 170.149199 395.466061 170.149214 396.086886 170.149231 396.707712 170.149248 397.328538 170.149265 397.949364 170.149283 398.570190 170.149302 399.191016 170.149322 399.811842 170.149342 400.432667 170.149363 401.053493 170.149384 401.674319 170.149406 402.295145 170.149428 402.915971 170.149452 403.536797 170.149475 404.157622 170.149499 404.778448 170.149524 405.399274 170.149550 406.020100 170.149575 406.640926 170.149602 407.261752 170.149629 407.882577 170.149656 408.503403 170.149684 409.124229 170.149713 409.745055 170.149742 410.365881 170.149771 410.986707 170.149801 411.607532 170.149832 412.228358 170.149862 412.849184 170.149894 413.470010 170.149925 414.090836 170.149958 414.711662 170.149990 415.332488 170.150023 415.953313 170.150057 416.574139 170.150091 417.194965 170.150125 417.815791 170.150160 418.436617 170.150195 419.057443 170.150230 419.678268 170.150266 420.299094 170.150302 420.919920 170.150338 421.540746 170.150375 422.161572 170.150412 422.782398 170.150450 423.403223 170.150487 424.024049 170.150526 424.644875 170.150564 425.265701 170.150603 425.886527 170.150642 426.507353 170.150681 427.128179 170.150720 427.749004 170.150760 428.369830 170.150800 428.990656 170.150840 429.611482 170.150881 430.232308 170.150921 430.853134 170.150962 431.473959 170.151003 432.094785 170.151045 432.715611 170.151086 433.336437 170.151128 433.957263 170.151170 434.578089 170.151212 435.198914 170.151254 435.819740 170.151297 436.440566 170.151339 437.061392 170.151382 437.682218 170.151424 438.303044 170.151467 438.923869 170.151510 439.544695 170.151554 440.165521 170.151597 440.786347 170.151640 441.407173 170.151683 442.027999 170.151727 442.648825 170.151770 443.269650 170.151814 443.890476 170.151858 444.511302 170.151901 445.132128 170.151945 445.752954 170.151989 446.373780 170.152033 446.994605 170.152076 447.615431 170.152120 448.236257 170.152164 448.857083 170.152208 449.477909 170.152251 450.098735 170.152295 450.719560 170.152339 451.340386 170.152382 451.961212 170.152426 452.582038 170.152469 453.202864 170.152512 453.823690 170.152556 454.444516 170.152599 455.065341 170.152642 455.686167 170.152685 456.306993 170.152728 456.927819 170.152771 457.548645 170.152814 458.169471 170.152856 458.790296 170.152898 459.411122 170.152941 460.031948 170.152983 460.652774 170.153025 461.273600 170.153066 461.894426 170.153108 462.515251 170.153149 463.136077 170.153190 463.756903 170.153231 464.377729 170.153272 464.998555 170.153312 465.619381 170.153353 466.240206 170.153393 466.861032 170.153432 467.481858 170.153472 468.102684 170.153511 468.723510 170.153550 469.344336 170.153589 469.965162 170.153627 470.585987 170.153665 471.206813 170.153703 471.827639 170.153740 472.448465 170.153777 473.069291 170.153814 473.690117 170.153851 474.310942 170.153887 474.931768 170.153923 475.552594 170.153958 476.173420 170.153993 476.794246 170.154028 477.415072 170.154062 478.035897 170.154096 478.656723 170.154129 479.277549 170.154162 479.898375 170.154195 480.519201 170.154227 481.140027 170.154259 481.760853 170.154290 482.381678 170.154322 483.002504 170.154352 483.623330 170.154383 484.244156 170.154412 484.864982 170.154442 485.485808 170.154471 486.106633 170.154500 486.727459 170.154528 487.348285 170.154556 487.969111 170.154584 488.589937 170.154611 489.210763 170.154638 489.831588 170.154664 490.452414 170.154690 491.073240 170.154716 491.694066 170.154741 492.314892 170.154766 492.935718 170.154791 493.556543 170.154815 494.177369 170.154839 494.798195 170.154863 495.419021 170.154886 496.039847 170.154909 496.660673 170.154931 497.281499 170.154953 497.902324 170.154975 498.523150 170.154996 499.143976 170.155017 499.764802 170.155038 500.385628 170.155058 501.006454 170.155078 501.627279 170.155098 502.248105 170.155117 502.868931 170.155136 503.489757 170.155155 504.110583 170.155173 504.731409 170.155191 505.352234 170.155209 505.973060 170.155226 506.593886 170.155243 507.214712 170.155260 507.835538 170.155276 508.456364 170.155292 509.077190 170.155307 509.698015 170.155323 510.318841 170.155338 510.939667 170.155352 511.560493 170.155367 512.181319 170.155381 512.802145 170.155395 513.422970 170.155408 514.043796 170.155421 514.664622 170.155434 515.285448 170.155446 515.906274 170.155459 516.527100 170.155470 517.147925 170.155482 517.768751 170.155493 518.389577 170.155504 519.010403 170.155515 519.631229 170.155525 520.252055 170.155535 520.872880 170.155545 521.493706 170.155555 522.114532 170.155564 522.735358 170.155573 523.356184 170.155581 523.977010 170.155590 524.597836 170.155598 525.218661 170.155606 525.839487 170.155613 526.460313 170.155620 527.081139 170.155627 527.701965 170.155634 528.322791 170.155640 528.943616 170.155646 529.564442 170.155652 530.185268 170.155658 530.806094 170.155663 531.426920 170.155668 532.047746 170.155673 532.668571 170.155677 533.289397 170.155682 533.910223 170.155685 534.531049 170.155689 535.151875 170.155693 535.772701 170.155696 536.393527 170.155699 537.014352 170.155702 537.635178 170.155704 538.256004 170.155706 538.876830 170.155708 539.497656 170.155710 540.118482 170.155711 540.739307 170.155713 541.360133 170.155714 541.980959 170.155714 542.601785 170.155715 543.222611 170.155715 543.843437 170.155715 544.464262 170.155715 545.085088 170.155714 545.705914 170.155714 546.326740 170.155713 546.947566 170.155712 547.568392 170.155711 548.189217 170.155709 548.810043 170.155707 549.430869 170.155705 550.051695 170.155703 550.672521 170.155701 551.293347 170.155698 551.914173 170.155695 552.534998 170.155692 553.155824 170.155689 553.776650 170.155685 554.397476 170.155681 555.018302 170.155678 555.639128 170.155673 556.259953 170.155669 556.880779 170.155665 557.501605 170.155660 558.122431 170.155655 558.743257 170.155650 559.364083 170.155645 559.984908 170.155639 560.605734 170.155633 561.226560 170.155628 561.847386 170.155622 562.468212 170.155615 563.089038 170.155609 563.709864 170.155602 564.330689 170.155596 564.951515 170.155589 565.572341 170.155581 566.193167 170.155574 566.813993 170.155567 567.434819 170.155559 568.055644 170.155551 568.676470 170.155543 569.297296 170.155535 569.918122 170.155527 570.538948 170.155518 571.159774 170.155509 571.780599 170.155501 572.401425 170.155492 573.022251 170.155482 573.643077 170.155473 574.263903 170.155464 574.884729 170.155454 575.505554 170.155444 576.126380 170.155434 576.747206 170.155424 577.368032 170.155414 577.988858 170.155404 578.609684 170.155393 579.230510 170.155383 579.851335 170.155372 580.472161 170.155361 581.092987 170.155350 581.713813 170.155339 582.334639 170.155327 582.955465 170.155316 583.576290 170.155304 584.197116 170.155292 584.817942 170.155281 585.438768 170.155269 586.059594 170.155257 586.680420 170.155244 587.301245 170.155232 587.922071 170.155220 588.542897 170.155207 589.163723 170.155194 589.784549 170.155181 590.405375 170.155168 591.026201 170.155155 591.647026 170.155142 592.267852 170.155129 592.888678 170.155116 593.509504 170.155102 594.130330 170.155089 594.751156 170.155075 595.371981 170.155061 595.992807 170.155047 596.613633 170.155033 597.234459 170.155019 597.855285 170.155005 598.476111 170.154991 599.096936 170.154977 599.717762 170.154962 600.338588 170.154948 600.959414 170.154933 601.580240 170.154918 602.201066 170.154904 602.821891 170.154889 603.442717 170.154874 604.063543 170.154859 604.684369 170.154844 605.305195 170.154829 605.926021 170.154813 606.546847 170.154798 607.167672 170.154783 607.788498 170.154767 608.409324 170.154752 609.030150 170.154736 609.650976 170.154720 610.271802 170.154705 610.892627 170.154689 611.513453 170.154673 612.134279 170.154657 612.755105 170.154641 613.375931 170.154625 613.996757 170.154609 614.617582 170.154593 615.238408 170.154577 615.859234 170.154561 616.480060 170.154545 617.100886 170.154529 617.721712 170.154512 618.342538 170.154496 618.963363 170.154480 619.584189 170.154463 620.205015 170.154447 620.825841 170.154430 621.446667 170.154414 622.067493 170.154397 622.688318 170.154381 623.309144 170.154364 623.929970 170.154347 624.550796 170.154331 625.171622 170.154314 625.792448 170.154297 626.413273 170.154281 627.034099 170.154264 627.654925 170.154247 628.275751 170.154230 628.896577 170.154213 629.517403 170.154197 630.138228 170.154180 630.759054 170.154163 631.379880 170.154146 632.000706 170.154129 632.621532 170.154113 633.242358 170.154096" class="line reactive nofill"/></g></g><g class="titles"><text x="400.0" y="26" class="title plot_title">主题: 路由器内存利用率</text></g><g transform="translate(120, 46)" class="plot overlay"><g class="series serie-0 color-0"><g class="dots"><circle cx="12.416516817366263" cy="170.2012167985577" r="2.5" class="dot reactive tooltip-trigger"/><desc class="value">65.88</desc><desc class="x ">12.416516817366263</desc><desc class="y ">170.2012167985577</desc><desc class="x_label">20:12:02</desc></g><g class="dots"><circle cx="167.62297703444455" cy="170.2012167985577" r="2.5" class="dot reactive tooltip-trigger"/><desc class="value">65.88</desc><desc class="x ">167.62297703444455</desc><desc class="y ">170.2012167985577</desc><desc class="x_label">20:13:02</desc></g><g class="dots"><circle cx="322.82943725152285" cy="170.1540957529325" r="2.5" class="dot reactive tooltip-trigger"/><desc class="value">65.89</desc><desc class="x ">322.82943725152285</desc><desc class="y ">170.1540957529325</desc><desc class="x_label">20:14:03</desc></g><g class="dots"><circle cx="478.03589746860115" cy="170.1540957529325" r="2.5" class="dot reactive tooltip-trigger"/><desc class="value">65.89</desc><desc class="x left">478.03589746860115</desc><desc class="y left">170.1540957529325</desc><desc class="x_label">20:15:02</desc></g><g class="dots"><circle cx="633.2423576856794" cy="170.1540957529325" r="2.5" class="dot reactive tooltip-trigger"/><desc class="value">65.89</desc><desc class="x left">633.2423576856794</desc><desc class="y left">170.1540957529325</desc><desc class="x_label">20:16:01</desc></g></g></g><g transform="translate(120, 46)" class="plot text-overlay"><g class="series serie-0 color-0"/></g><g transform="translate(120, 46)" class="plot tooltip-overlay"><g transform="translate(0 0)" style="opacity: 0" class="tooltip"><rect rx="0" ry="0" width="0" height="0" class="tooltip-box"/><g class="text"/></g></g><g transform="translate(10, 56)" class="legends"><g id="activate-serie-0" class="legend reactive activate-serie"><rect x="0.0" y="1.0" width="12" height="12" class="color-0 reactive"/><text x="17.0" y="11.2">MEM利用率</text></g></g><g transform="translate(776, 56)" class="legends"/></g></svg>