<?xml version='1.0' encoding='utf-8'?>
<svg xmlns="http://www.w3.org/2000/svg" xmlns:xlink="http://www.w3.org/1999/xlink" id="chart-9e79e0f7-b127-4dc4-b211-c28476433737" class="pygal-chart" viewBox="0 0 800 600"><!--Generated with pygal 3.0.5 (lxml) ©Kozea 2012-2016 on 2025-02-23--><!--http://pygal.org--><!--http://github.com/Kozea/pygal--><defs><style type="text/css">#chart-9e79e0f7-b127-4dc4-b211-c28476433737{-webkit-user-select:none;-webkit-font-smoothing:antialiased;font-family:Consolas,"Liberation Mono",Menlo,Courier,monospace}#chart-9e79e0f7-b127-4dc4-b211-c28476433737 .title{font-family:Noto Sans CJK SC;font-size:16px}#chart-9e79e0f7-b127-4dc4-b211-c28476433737 .legends .legend text{font-family:Noto Sans CJK SC;font-size:14px}#chart-9e79e0f7-b127-4dc4-b211-c28476433737 .axis text{font-family:Noto Sans CJK SC;font-size:10px}#chart-9e79e0f7-b127-4dc4-b211-c28476433737 .axis text.major{font-family:Noto Sans CJK SC;font-size:10px}#chart-9e79e0f7-b127-4dc4-b211-c28476433737 .text-overlay text.value{font-family:Noto Sans CJK SC;font-size:16px}#chart-9e79e0f7-b127-4dc4-b211-c28476433737 .text-overlay text.label{font-family:Consolas,"Liberation Mono",Menlo,Courier,monospace;font-size:10px}#chart-9e79e0f7-b127-4dc4-b211-c28476433737 .tooltip{font-family:Consolas,"Liberation Mono",Menlo,Courier,monospace;font-size:14px}#chart-9e79e0f7-b127-4dc4-b211-c28476433737 text.no_data{font-family:Consolas,"Liberation Mono",Menlo,Courier,monospace;font-size:64px}
#chart-9e79e0f7-b127-4dc4-b211-c28476433737{background-color:rgba(249,249,249,1)}#chart-9e79e0f7-b127-4dc4-b211-c28476433737 path,#chart-9e79e0f7-b127-4dc4-b211-c28476433737 line,#chart-9e79e0f7-b127-4dc4-b211-c28476433737 rect,#chart-9e79e0f7-b127-4dc4-b211-c28476433737 circle{-webkit-transition:150ms;-moz-transition:150ms;transition:150ms}#chart-9e79e0f7-b127-4dc4-b211-c28476433737 .graph &gt; .background{fill:rgba(249,249,249,1)}#chart-9e79e0f7-b127-4dc4-b211-c28476433737 .plot &gt; .background{fill:rgba(255,255,255,1)}#chart-9e79e0f7-b127-4dc4-b211-c28476433737 .graph{fill:rgba(0,0,0,.87)}#chart-9e79e0f7-b127-4dc4-b211-c28476433737 text.no_data{fill:rgba(0,0,0,1)}#chart-9e79e0f7-b127-4dc4-b211-c28476433737 .title{fill:rgba(0,0,0,1)}#chart-9e79e0f7-b127-4dc4-b211-c28476433737 .legends .legend text{fill:rgba(0,0,0,.87)}#chart-9e79e0f7-b127-4dc4-b211-c28476433737 .legends .legend:hover text{fill:rgba(0,0,0,1)}#chart-9e79e0f7-b127-4dc4-b211-c28476433737 .axis .line{stroke:rgba(0,0,0,1)}#chart-9e79e0f7-b127-4dc4-b211-c28476433737 .axis .guide.line{stroke:rgba(0,0,0,.54)}#chart-9e79e0f7-b127-4dc4-b211-c28476433737 .axis .major.line{stroke:rgba(0,0,0,.87)}#chart-9e79e0f7-b127-4dc4-b211-c28476433737 .axis text.major{fill:rgba(0,0,0,1)}#chart-9e79e0f7-b127-4dc4-b211-c28476433737 .axis.y .guides:hover .guide.line,#chart-9e79e0f7-b127-4dc4-b211-c28476433737 .line-graph .axis.x .guides:hover .guide.line,#chart-9e79e0f7-b127-4dc4-b211-c28476433737 .stackedline-graph .axis.x .guides:hover .guide.line,#chart-9e79e0f7-b127-4dc4-b211-c28476433737 .xy-graph .axis.x .guides:hover .guide.line{stroke:rgba(0,0,0,1)}#chart-9e79e0f7-b127-4dc4-b211-c28476433737 .axis .guides:hover text{fill:rgba(0,0,0,1)}#chart-9e79e0f7-b127-4dc4-b211-c28476433737 .reactive{fill-opacity:.7;stroke-opacity:.8;stroke-width:1}#chart-9e79e0f7-b127-4dc4-b211-c28476433737 .ci{stroke:rgba(0,0,0,.87)}#chart-9e79e0f7-b127-4dc4-b211-c28476433737 .reactive.active,#chart-9e79e0f7-b127-4dc4-b211-c28476433737 .active .reactive{fill-opacity:.8;stroke-opacity:.9;stroke-width:4}#chart-9e79e0f7-b127-4dc4-b211-c28476433737 .ci .reactive.active{stroke-width:1.5}#chart-9e79e0f7-b127-4dc4-b211-c28476433737 .series text{fill:rgba(0,0,0,1)}#chart-9e79e0f7-b127-4dc4-b211-c28476433737 .tooltip rect{fill:rgba(255,255,255,1);stroke:rgba(0,0,0,1);-webkit-transition:opacity 150ms;-moz-transition:opacity 150ms;transition:opacity 150ms}#chart-9e79e0f7-b127-4dc4-b211-c28476433737 .tooltip .label{fill:rgba(0,0,0,.87)}#chart-9e79e0f7-b127-4dc4-b211-c28476433737 .tooltip .label{fill:rgba(0,0,0,.87)}#chart-9e79e0f7-b127-4dc4-b211-c28476433737 .tooltip .legend{font-size:.8em;fill:rgba(0,0,0,.54)}#chart-9e79e0f7-b127-4dc4-b211-c28476433737 .tooltip .x_label{font-size:.6em;fill:rgba(0,0,0,1)}#chart-9e79e0f7-b127-4dc4-b211-c28476433737 .tooltip .xlink{font-size:.5em;text-decoration:underline}#chart-9e79e0f7-b127-4dc4-b211-c28476433737 .tooltip .value{font-size:1.5em}#chart-9e79e0f7-b127-4dc4-b211-c28476433737 .bound{font-size:.5em}#chart-9e79e0f7-b127-4dc4-b211-c28476433737 .max-value{font-size:.75em;fill:rgba(0,0,0,.54)}#chart-9e79e0f7-b127-4dc4-b211-c28476433737 .map-element{fill:rgba(255,255,255,1);stroke:rgba(0,0,0,.54) !important}#chart-9e79e0f7-b127-4dc4-b211-c28476433737 .map-element .reactive{fill-opacity:inherit;stroke-opacity:inherit}#chart-9e79e0f7-b127-4dc4-b211-c28476433737 .color-0,#chart-9e79e0f7-b127-4dc4-b211-c28476433737 .color-0 a:visited{stroke:#F44336;fill:#F44336}#chart-9e79e0f7-b127-4dc4-b211-c28476433737 .text-overlay .color-0 text{fill:black}
#chart-9e79e0f7-b127-4dc4-b211-c28476433737 text.no_data{text-anchor:middle}#chart-9e79e0f7-b127-4dc4-b211-c28476433737 .guide.line{fill:none}#chart-9e79e0f7-b127-4dc4-b211-c28476433737 .centered{text-anchor:middle}#chart-9e79e0f7-b127-4dc4-b211-c28476433737 .title{text-anchor:middle}#chart-9e79e0f7-b127-4dc4-b211-c28476433737 .legends .legend text{fill-opacity:1}#chart-9e79e0f7-b127-4dc4-b211-c28476433737 .axis.x text{text-anchor:middle}#chart-9e79e0f7-b127-4dc4-b211-c28476433737 .axis.x:not(.web) text[transform]{text-anchor:start}#chart-9e79e0f7-b127-4dc4-b211-c28476433737 .axis.x:not(.web) text[transform].backwards{text-anchor:end}#chart-9e79e0f7-b127-4dc4-b211-c28476433737 .axis.y text{text-anchor:end}#chart-9e79e0f7-b127-4dc4-b211-c28476433737 .axis.y text[transform].backwards{text-anchor:start}#chart-9e79e0f7-b127-4dc4-b211-c28476433737 .axis.y2 text{text-anchor:start}#chart-9e79e0f7-b127-4dc4-b211-c28476433737 .axis.y2 text[transform].backwards{text-anchor:end}#chart-9e79e0f7-b127-4dc4-b211-c28476433737 .axis .guide.line{stroke-dasharray:4,4;stroke:black}#chart-9e79e0f7-b127-4dc4-b211-c28476433737 .axis .major.guide.line{stroke-dasharray:6,6;stroke:black}#chart-9e79e0f7-b127-4dc4-b211-c28476433737 .horizontal .axis.y .guide.line,#chart-9e79e0f7-b127-4dc4-b211-c28476433737 .horizontal .axis.y2 .guide.line,#chart-9e79e0f7-b127-4dc4-b211-c28476433737 .vertical .axis.x .guide.line{opacity:0}#chart-9e79e0f7-b127-4dc4-b211-c28476433737 .horizontal .axis.always_show .guide.line,#chart-9e79e0f7-b127-4dc4-b211-c28476433737 .vertical .axis.always_show .guide.line{opacity:1 !important}#chart-9e79e0f7-b127-4dc4-b211-c28476433737 .axis.y .guides:hover .guide.line,#chart-9e79e0f7-b127-4dc4-b211-c28476433737 .axis.y2 .guides:hover .guide.line,#chart-9e79e0f7-b127-4dc4-b211-c28476433737 .axis.x .guides:hover .guide.line{opacity:1}#chart-9e79e0f7-b127-4dc4-b211-c28476433737 .axis .guides:hover text{opacity:1}#chart-9e79e0f7-b127-4dc4-b211-c28476433737 .nofill{fill:none}#chart-9e79e0f7-b127-4dc4-b211-c28476433737 .subtle-fill{fill-opacity:.2}#chart-9e79e0f7-b127-4dc4-b211-c28476433737 .dot{stroke-width:1px;fill-opacity:1;stroke-opacity:1}#chart-9e79e0f7-b127-4dc4-b211-c28476433737 .dot.active{stroke-width:5px}#chart-9e79e0f7-b127-4dc4-b211-c28476433737 .dot.negative{fill:transparent}#chart-9e79e0f7-b127-4dc4-b211-c28476433737 text,#chart-9e79e0f7-b127-4dc4-b211-c28476433737 tspan{stroke:none !important}#chart-9e79e0f7-b127-4dc4-b211-c28476433737 .series text.active{opacity:1}#chart-9e79e0f7-b127-4dc4-b211-c28476433737 .tooltip rect{fill-opacity:.95;stroke-width:.5}#chart-9e79e0f7-b127-4dc4-b211-c28476433737 .tooltip text{fill-opacity:1}#chart-9e79e0f7-b127-4dc4-b211-c28476433737 .showable{visibility:hidden}#chart-9e79e0f7-b127-4dc4-b211-c28476433737 .showable.shown{visibility:visible}#chart-9e79e0f7-b127-4dc4-b211-c28476433737 .gauge-background{fill:rgba(229,229,229,1);stroke:none}#chart-9e79e0f7-b127-4dc4-b211-c28476433737 .bg-lines{stroke:rgba(249,249,249,1);stroke-width:2px}</style><script type="text/javascript">window.pygal = window.pygal || {};window.pygal.config = window.pygal.config || {};window.pygal.config['9e79e0f7-b127-4dc4-b211-c28476433737'] = {"allow_interruptions": false, "box_mode": "extremes", "classes": ["pygal-chart"], "css": ["file://style.css", "file://graph.css"], "defs": [], "disable_xml_declaration": false, "dots_size": 2.5, "dynamic_print_values": false, "explicit_size": false, "fill": false, "force_uri_protocol": "https", "formatter": null, "half_pie": false, "height": 600, "include_x_axis": false, "inner_radius": 0, "interpolate": "cubic", "interpolation_parameters": {}, "interpolation_precision": 250, "inverse_y_axis": false, "js": ["//kozea.github.io/pygal.js/2.0.x/pygal-tooltips.min.js"], "legend_at_bottom": false, "legend_at_bottom_columns": null, "legend_box_size": 12, "logarithmic": false, "margin": 20, "margin_bottom": null, "margin_left": null, "margin_right": null, "margin_top": null, "max_scale": 16, "min_scale": 4, "missing_value_fill_truncation": "x", "no_data_text": "No data", "no_prefix": false, "order_min": null, "pretty_print": false, "print_labels": false, "print_values": false, "print_values_position": "center", "print_zeroes": true, "range": [0, 100], "rounded_bars": null, "secondary_range": null, "show_dots": true, "show_legend": true, "show_minor_x_labels": true, "show_minor_y_labels": true, "show_only_major_dots": false, "show_x_guides": false, "show_x_labels": true, "show_y_guides": true, "show_y_labels": true, "spacing": 10, "stack_from_top": false, "strict": false, "stroke": true, "stroke_style": null, "style": {"background": "rgba(249, 249, 249, 1)", "ci_colors": [], "colors": ["#F44336", "#3F51B5", "#009688", "#FFC107", "#FF5722", "#9C27B0", "#03A9F4", "#8BC34A", "#FF9800", "#E91E63", "#2196F3", "#4CAF50", "#FFEB3B", "#673AB7", "#00BCD4", "#CDDC39", "#9E9E9E", "#607D8B"], "dot_opacity": "1", "font_family": "Consolas, \"Liberation Mono\", Menlo, Courier, monospace", "foreground": "rgba(0, 0, 0, .87)", "foreground_strong": "rgba(0, 0, 0, 1)", "foreground_subtle": "rgba(0, 0, 0, .54)", "guide_stroke_color": "black", "guide_stroke_dasharray": "4,4", "label_font_family": "Noto Sans CJK SC", "label_font_size": 10, "legend_font_family": "Noto Sans CJK SC", "legend_font_size": 14, "major_guide_stroke_color": "black", "major_guide_stroke_dasharray": "6,6", "major_label_font_family": "Noto Sans CJK SC", "major_label_font_size": 10, "no_data_font_family": "Consolas, \"Liberation Mono\", Menlo, Courier, monospace", "no_data_font_size": 64, "opacity": ".7", "opacity_hover": ".8", "plot_background": "rgba(255, 255, 255, 1)", "stroke_opacity": ".8", "stroke_opacity_hover": ".9", "stroke_width": "1", "stroke_width_hover": "4", "title_font_family": "Noto Sans CJK SC", "title_font_size": 16, "tooltip_font_family": "Consolas, \"Liberation Mono\", Menlo, Courier, monospace", "tooltip_font_size": 14, "transition": "150ms", "value_background": "rgba(229, 229, 229, 1)", "value_colors": [], "value_font_family": "Noto Sans CJK SC", "value_font_size": 16, "value_label_font_family": "Consolas, \"Liberation Mono\", Menlo, Courier, monospace", "value_label_font_size": 10}, "title": "\u4e3b\u9898: \u8def\u7531\u5668CPU\u5229\u7528\u7387", "tooltip_border_radius": 0, "tooltip_fancy_mode": true, "truncate_label": null, "truncate_legend": null, "width": 800, "x_label_rotation": 45, "x_labels": ["20:12:02", "20:13:02", "20:14:03", "20:15:02", "20:16:01"], "x_labels_major": null, "x_labels_major_count": null, "x_labels_major_every": null, "x_title": null, "xrange": null, "y_label_rotation": 0, "y_labels": null, "y_labels_major": null, "y_labels_major_count": null, "y_labels_major_every": null, "y_title": null, "zero": 0, "legends": ["CPU\u5229\u7528\u7387"]}</script><script type="text/javascript" xlink:href="https://kozea.github.io/pygal.js/2.0.x/pygal-tooltips.min.js"/></defs><title>主题: 路由器CPU利用率</title><g class="graph line-graph vertical"><rect x="0" y="0" width="800" height="600" class="background"/><g transform="translate(120, 46)" class="plot"><rect x="0" y="0" width="645.6588745030457" height="490.05887450304573" class="background"/><g class="axis y always_show"><g class="guides"><path d="M0.000000 480.634665 h645.658875" class="axis major line"/><text x="-5" y="484.1346653779872" class="major">0</text><title>0</title></g><g class="guides"><path d="M0.000000 433.513620 h645.658875" class="guide line"/><text x="-5" y="437.0136197526943" class="">10</text><title>10</title></g><g class="guides"><path d="M0.000000 386.392574 h645.658875" class="guide line"/><text x="-5" y="389.8925741274014" class="">20</text><title>20</title></g><g class="guides"><path d="M0.000000 339.271529 h645.658875" class="guide line"/><text x="-5" y="342.7715285021086" class="">30</text><title>30</title></g><g class="guides"><path d="M0.000000 292.150483 h645.658875" class="guide line"/><text x="-5" y="295.6504828768158" class="">40</text><title>40</title></g><g class="guides"><path d="M0.000000 245.029437 h645.658875" class="major guide line"/><text x="-5" y="248.52943725152286" class="major">50</text><title>50</title></g><g class="guides"><path d="M0.000000 197.908392 h645.658875" class="guide line"/><text x="-5" y="201.40839162623" class="">60</text><title>60</title></g><g class="guides"><path d="M0.000000 150.787346 h645.658875" class="guide line"/><text x="-5" y="154.28734600093713" class="">70</text><title>70</title></g><g class="guides"><path d="M0.000000 103.666300 h645.658875" class="guide line"/><text x="-5" y="107.16630037564425" class="">80</text><title>80</title></g><g class="guides"><path d="M0.000000 56.545255 h645.658875" class="guide line"/><text x="-5" y="60.045254750351376" class="">90</text><title>90</title></g><g class="guides"><path d="M0.000000 9.424209 h645.658875" class="major guide line"/><text x="-5" y="12.92420912505861" class="major">100</text><title>100</title></g></g><g class="axis x"><g class="guides"><path d="M12.416517 0.000000 v490.058875" class="line"/><text x="12.416516817366263" y="505.05887450304573" class="" transform="rotate(45 12.416517 505.058875)">20:12:02</text></g><g class="guides"><path d="M167.622977 0.000000 v490.058875" class="guide line"/><text x="167.62297703444455" y="505.05887450304573" class="" transform="rotate(45 167.622977 505.058875)">20:13:02</text></g><g class="guides"><path d="M322.829437 0.000000 v490.058875" class="guide line"/><text x="322.82943725152285" y="505.05887450304573" class="" transform="rotate(45 322.829437 505.058875)">20:14:03</text></g><g class="guides"><path d="M478.035897 0.000000 v490.058875" class="guide line"/><text x="478.03589746860115" y="505.05887450304573" class="" transform="rotate(45 478.035897 505.058875)">20:15:02</text></g><g class="guides"><path d="M633.242358 0.000000 v490.058875" class="guide line"/><text x="633.2423576856794" y="505.05887450304573" class="" transform="rotate(45 633.242358 505.058875)">20:16:01</text></g></g><g class="series serie-0 color-0"><path d="M12.416517 461.786247 L13.037343 461.862986 13.658168 461.939720 14.278994 462.016442 14.899820 462.093148 15.520646 462.169831 16.141472 462.246487 16.762298 462.323109 17.383124 462.399693 18.003949 462.476232 18.624775 462.552721 19.245601 462.629154 19.866427 462.705526 20.487253 462.781832 21.108079 462.858065 21.728904 462.934221 22.349730 463.010293 22.970556 463.086276 23.591382 463.162165 24.212208 463.237954 24.833034 463.313637 25.453859 463.389209 26.074685 463.464664 26.695511 463.539997 27.316337 463.615202 27.937163 463.690274 28.557989 463.765207 29.178815 463.839995 29.799640 463.914633 30.420466 463.989116 31.041292 464.063438 31.662118 464.137592 32.282944 464.211575 32.903770 464.285380 33.524595 464.359001 34.145421 464.432433 34.766247 464.505671 35.387073 464.578709 36.007899 464.651541 36.628725 464.724162 37.249550 464.796566 37.870376 464.868748 38.491202 464.940702 39.112028 465.012422 39.732854 465.083904 40.353680 465.155141 40.974505 465.226128 41.595331 465.296859 42.216157 465.367329 42.836983 465.437532 43.457809 465.507463 44.078635 465.577117 44.699461 465.646486 45.320286 465.715567 45.941112 465.784353 46.561938 465.852839 47.182764 465.921020 47.803590 465.988889 48.424416 466.056441 49.045241 466.123671 49.666067 466.190573 50.286893 466.257142 50.907719 466.323372 51.528545 466.389257 52.149371 466.454792 52.770196 466.519971 53.391022 466.584789 54.011848 466.649240 54.632674 466.713319 55.253500 466.777020 55.874326 466.840337 56.495152 466.903266 57.115977 466.965800 57.736803 467.027933 58.357629 467.089661 58.978455 467.150978 59.599281 467.211878 60.220107 467.272356 60.840932 467.332405 61.461758 467.392021 62.082584 467.451198 62.703410 467.509931 63.324236 467.568213 63.945062 467.626040 64.565887 467.683405 65.186713 467.740304 65.807539 467.796730 66.428365 467.852678 67.049191 467.908142 67.670017 467.963118 68.290842 468.017599 68.911668 468.071580 69.532494 468.125055 70.153320 468.178018 70.774146 468.230465 71.394972 468.282389 72.015798 468.333786 72.636623 468.384649 73.257449 468.434973 73.878275 468.484752 74.499101 468.533981 75.119927 468.582654 75.740753 468.630766 76.361578 468.678311 76.982404 468.725284 77.603230 468.771678 78.224056 468.817489 78.844882 468.862711 79.465708 468.907339 80.086533 468.951366 80.707359 468.994787 81.328185 469.037597 81.949011 469.079790 82.569837 469.121361 83.190663 469.162303 83.811489 469.202612 84.432314 469.242282 85.053140 469.281308 85.673966 469.319683 86.294792 469.357402 86.915618 469.394460 87.536444 469.430851 88.157269 469.466569 88.778095 469.501610 89.398921 469.535966 90.019747 469.569634 90.640573 469.602607 91.261399 469.634880 91.882224 469.666447 92.503050 469.697303 93.123876 469.727441 93.744702 469.756857 94.365528 469.785545 94.986354 469.813500 95.607179 469.840715 96.228005 469.867186 96.848831 469.892906 97.469657 469.917871 98.090483 469.942074 98.711309 469.965510 99.332135 469.988174 99.952960 470.010060 100.573786 470.031162 101.194612 470.051475 101.815438 470.070993 102.436264 470.089710 103.057090 470.107622 103.677915 470.124723 104.298741 470.141007 104.919567 470.156468 105.540393 470.171101 106.161219 470.184900 106.782045 470.197860 107.402870 470.209976 108.023696 470.221241 108.644522 470.231650 109.265348 470.241198 109.886174 470.249878 110.507000 470.257687 111.127826 470.264617 111.748651 470.270663 112.369477 470.275821 112.990303 470.280083 113.611129 470.283445 114.231955 470.285902 114.852781 470.287447 115.473606 470.288074 116.094432 470.287780 116.715258 470.286557 117.336084 470.284400 117.956910 470.281305 118.577736 470.277264 119.198561 470.272273 119.819387 470.266326 120.440213 470.259418 121.061039 470.251543 121.681865 470.242695 122.302691 470.232869 122.923516 470.222060 123.544342 470.210261 124.165168 470.197467 124.785994 470.183673 125.406820 470.168873 126.027646 470.153061 126.648472 470.136233 127.269297 470.118382 127.890123 470.099502 128.510949 470.079589 129.131775 470.058637 129.752601 470.036640 130.373427 470.013592 130.994252 469.989489 131.615078 469.964324 132.235904 469.938092 132.856730 469.910788 133.477556 469.882405 134.098382 469.852938 134.719207 469.822382 135.340033 469.790732 135.960859 469.757981 136.581685 469.724124 137.202511 469.689155 137.823337 469.653070 138.444163 469.615862 139.064988 469.577525 139.685814 469.538055 140.306640 469.497445 140.927466 469.455691 141.548292 469.412786 142.169118 469.368726 142.789943 469.323503 143.410769 469.277114 144.031595 469.229552 144.652421 469.180812 145.273247 469.130888 145.894073 469.079775 146.514898 469.027466 147.135724 468.973958 147.756550 468.919243 148.377376 468.863317 148.998202 468.806174 149.619028 468.747808 150.239853 468.688213 150.860679 468.627385 151.481505 468.565318 152.102331 468.502006 152.723157 468.437443 153.343983 468.371624 153.964809 468.304544 154.585634 468.236197 155.206460 468.166577 155.827286 468.095678 156.448112 468.023496 157.068938 467.950025 157.689764 467.875258 158.310589 467.799191 158.931415 467.721819 159.552241 467.643134 160.173067 467.563132 160.793893 467.481808 161.414719 467.399155 162.035544 467.315169 162.656370 467.229843 163.277196 467.143172 163.898022 467.055151 164.518848 466.965774 165.139674 466.875035 165.760500 466.782929 166.381325 466.689450 167.002151 466.594593 167.622977 466.498352 168.243803 466.400724 168.864629 466.301721 169.485455 466.201355 170.106280 466.099640 170.727106 465.996588 171.347932 465.892213 171.968758 465.786529 172.589584 465.679549 173.210410 465.571286 173.831235 465.461753 174.452061 465.350964 175.072887 465.238932 175.693713 465.125671 176.314539 465.011193 176.935365 464.895512 177.556190 464.778641 178.177016 464.660594 178.797842 464.541384 179.418668 464.421024 180.039494 464.299528 180.660320 464.176908 181.281146 464.053179 181.901971 463.928353 182.522797 463.802444 183.143623 463.675464 183.764449 463.547429 184.385275 463.418350 185.006101 463.288241 185.626926 463.157116 186.247752 463.024987 186.868578 462.891868 187.489404 462.757772 188.110230 462.622713 188.731056 462.486704 189.351881 462.349758 189.972707 462.211889 190.593533 462.073109 191.214359 461.933433 191.835185 461.792873 192.456011 461.651443 193.076837 461.509156 193.697662 461.366026 194.318488 461.222065 194.939314 461.077287 195.560140 460.931706 196.180966 460.785334 196.801792 460.638185 197.422617 460.490272 198.043443 460.341610 198.664269 460.192209 199.285095 460.042086 199.905921 459.891251 200.526747 459.739720 201.147572 459.587505 201.768398 459.434619 202.389224 459.281076 203.010050 459.126889 203.630876 458.972071 204.251702 458.816637 204.872527 458.660598 205.493353 458.503968 206.114179 458.346762 206.735005 458.188991 207.355831 458.030669 207.976657 457.871810 208.597483 457.712427 209.218308 457.552533 209.839134 457.392142 210.459960 457.231267 211.080786 457.069921 211.701612 456.908117 212.322438 456.745869 212.943263 456.583190 213.564089 456.420093 214.184915 456.256592 214.805741 456.092701 215.426567 455.928431 216.047393 455.763797 216.668218 455.598813 217.289044 455.433490 217.909870 455.267843 218.530696 455.101885 219.151522 454.935629 219.772348 454.769089 220.393174 454.602278 221.013999 454.435208 221.634825 454.267894 222.255651 454.100349 222.876477 453.932586 223.497303 453.764619 224.118129 453.596460 224.738954 453.428123 225.359780 453.259622 225.980606 453.090969 226.601432 452.922178 227.222258 452.753262 227.843084 452.584235 228.463909 452.415110 229.084735 452.245900 229.705561 452.076619 230.326387 451.907280 230.947213 451.737895 231.568039 451.568479 232.188864 451.399045 232.809690 451.229606 233.430516 451.060176 234.051342 450.890767 234.672168 450.721393 235.292994 450.552067 235.913820 450.382803 236.534645 450.213614 237.155471 450.044514 237.776297 449.875515 238.397123 449.706630 239.017949 449.537874 239.638775 449.369260 240.259600 449.200800 240.880426 449.032509 241.501252 448.864399 242.122078 448.696484 242.742904 448.528777 243.363730 448.361291 243.984555 448.194040 244.605381 448.027037 245.226207 447.860295 245.847033 447.693828 246.467859 447.527649 247.088685 447.361771 247.709511 447.196208 248.330336 447.030973 248.951162 446.866079 249.571988 446.701539 250.192814 446.537368 250.813640 446.373577 251.434466 446.210181 252.055291 446.047193 252.676117 445.884625 253.296943 445.722492 253.917769 445.560807 254.538595 445.399583 255.159421 445.238833 255.780246 445.078571 256.401072 444.918810 257.021898 444.759563 257.642724 444.600844 258.263550 444.442665 258.884376 444.285041 259.505201 444.127984 260.126027 443.971508 260.746853 443.815627 261.367679 443.660352 261.988505 443.505699 262.609331 443.351679 263.230157 443.198307 263.850982 443.045596 264.471808 442.893559 265.092634 442.742209 265.713460 442.591559 266.334286 442.441624 266.955112 442.292416 267.575937 442.143948 268.196763 441.996235 268.817589 441.849288 269.438415 441.703122 270.059241 441.557750 270.680067 441.413185 271.300892 441.269441 271.921718 441.126530 272.542544 440.984467 273.163370 440.843263 273.784196 440.702934 274.405022 440.563491 275.025848 440.424949 275.646673 440.287321 276.267499 440.150619 276.888325 440.014858 277.509151 439.880050 278.129977 439.746209 278.750803 439.613348 279.371628 439.481481 279.992454 439.350621 280.613280 439.220781 281.234106 439.091974 281.854932 438.964214 282.475758 438.837514 283.096583 438.711888 283.717409 438.587348 284.338235 438.463908 284.959061 438.341582 285.579887 438.220382 286.200713 438.100322 286.821538 437.981416 287.442364 437.863676 288.063190 437.747116 288.684016 437.631749 289.304842 437.517588 289.925668 437.404648 290.546494 437.292940 291.167319 437.182479 291.788145 437.073278 292.408971 436.965350 293.029797 436.858708 293.650623 436.753366 294.271449 436.649337 294.892274 436.546635 295.513100 436.445271 296.133926 436.345261 296.754752 436.246617 297.375578 436.149353 297.996404 436.053482 298.617229 435.959017 299.238055 435.865971 299.858881 435.774358 300.479707 435.684191 301.100533 435.595484 301.721359 435.508250 302.342185 435.422501 302.963010 435.338252 303.583836 435.255516 304.204662 435.174305 304.825488 435.094634 305.446314 435.016516 306.067140 434.939964 306.687965 434.864990 307.308791 434.791610 307.929617 434.719835 308.550443 434.649680 309.171269 434.581157 309.792095 434.514279 310.412920 434.449061 311.033746 434.385516 311.654572 434.323656 312.275398 434.263495 312.896224 434.205047 313.517050 434.148324 314.137875 434.093340 314.758701 434.040109 315.379527 433.988643 316.000353 433.938957 316.621179 433.891062 317.242005 433.844973 317.862831 433.800703 318.483656 433.758265 319.104482 433.717673 319.725308 433.678939 320.346134 433.642078 320.966960 433.607102 321.587786 433.574025 322.208611 433.542860 322.829437 433.513620 323.450263 433.486314 324.071089 433.460934 324.691915 433.437466 325.312741 433.415897 325.933566 433.396213 326.554392 433.378401 327.175218 433.362448 327.796044 433.348341 328.416870 433.336066 329.037696 433.325609 329.658522 433.316959 330.279347 433.310100 330.900173 433.305021 331.520999 433.301707 332.141825 433.300145 332.762651 433.300323 333.383477 433.302226 334.004302 433.305841 334.625128 433.311156 335.245954 433.318156 335.866780 433.326829 336.487606 433.337161 337.108432 433.349139 337.729257 433.362749 338.350083 433.377978 338.970909 433.394814 339.591735 433.413242 340.212561 433.433249 340.833387 433.454822 341.454212 433.477948 342.075038 433.502613 342.695864 433.528804 343.316690 433.556508 343.937516 433.585711 344.558342 433.616400 345.179168 433.648562 345.799993 433.682184 346.420819 433.717251 347.041645 433.753752 347.662471 433.791672 348.283297 433.830998 348.904123 433.871717 349.524948 433.913815 350.145774 433.957280 350.766600 434.002098 351.387426 434.048256 352.008252 434.095739 352.629078 434.144536 353.249903 434.194633 353.870729 434.246015 354.491555 434.298671 355.112381 434.352587 355.733207 434.407749 356.354033 434.464145 356.974858 434.521760 357.595684 434.580581 358.216510 434.640596 358.837336 434.701791 359.458162 434.764152 360.078988 434.827667 360.699814 434.892321 361.320639 434.958103 361.941465 435.024997 362.562291 435.092992 363.183117 435.162073 363.803943 435.232227 364.424769 435.303442 365.045594 435.375704 365.666420 435.448998 366.287246 435.523314 366.908072 435.598635 367.528898 435.674951 368.149724 435.752246 368.770549 435.830509 369.391375 435.909725 370.012201 435.989881 370.633027 436.070965 371.253853 436.152961 371.874679 436.235859 372.495505 436.319643 373.116330 436.404301 373.737156 436.489819 374.357982 436.576185 374.978808 436.663384 375.599634 436.751404 376.220460 436.840231 376.841285 436.929851 377.462111 437.020252 378.082937 437.111421 378.703763 437.203343 379.324589 437.296006 379.945415 437.389396 380.566240 437.483500 381.187066 437.578305 381.807892 437.673797 382.428718 437.769963 383.049544 437.866790 383.670370 437.964264 384.291195 438.062372 384.912021 438.161101 385.532847 438.260438 386.153673 438.360368 386.774499 438.460880 387.395325 438.561959 388.016151 438.663592 388.636976 438.765766 389.257802 438.868468 389.878628 438.971684 390.499454 439.075401 391.120280 439.179605 391.741106 439.284284 392.361931 439.389424 392.982757 439.495011 393.603583 439.601033 394.224409 439.707477 394.845235 439.814327 395.466061 439.921573 396.086886 440.029199 396.707712 440.137194 397.328538 440.245542 397.949364 440.354232 398.570190 440.463250 399.191016 440.572583 399.811842 440.682217 400.432667 440.792138 401.053493 440.902335 401.674319 441.012793 402.295145 441.123498 402.915971 441.234439 403.536797 441.345601 404.157622 441.456971 404.778448 441.568535 405.399274 441.680282 406.020100 441.792196 406.640926 441.904265 407.261752 442.016476 407.882577 442.128815 408.503403 442.241269 409.124229 442.353824 409.745055 442.466468 410.365881 442.579186 410.986707 442.691967 411.607532 442.804795 412.228358 442.917659 412.849184 443.030544 413.470010 443.143438 414.090836 443.256327 414.711662 443.369198 415.332488 443.482037 415.953313 443.594831 416.574139 443.707567 417.194965 443.820232 417.815791 443.932811 418.436617 444.045293 419.057443 444.157664 419.678268 444.269909 420.299094 444.382017 420.919920 444.493973 421.540746 444.605764 422.161572 444.717378 422.782398 444.828800 423.403223 444.940018 424.024049 445.051018 424.644875 445.161786 425.265701 445.272310 425.886527 445.382577 426.507353 445.492572 427.128179 445.602282 427.749004 445.711695 428.369830 445.820797 428.990656 445.929574 429.611482 446.038014 430.232308 446.146102 430.853134 446.253826 431.473959 446.361173 432.094785 446.468128 432.715611 446.574680 433.336437 446.680813 433.957263 446.786516 434.578089 446.891775 435.198914 446.996576 435.819740 447.100906 436.440566 447.204752 437.061392 447.308100 437.682218 447.410938 438.303044 447.513252 438.923869 447.615028 439.544695 447.716254 440.165521 447.816915 440.786347 447.916999 441.407173 448.016493 442.027999 448.115382 442.648825 448.213655 443.269650 448.311296 443.890476 448.408294 444.511302 448.504635 445.132128 448.600305 445.752954 448.695291 446.373780 448.789580 446.994605 448.883159 447.615431 448.976013 448.236257 449.068131 448.857083 449.159498 449.477909 449.250102 450.098735 449.339928 450.719560 449.428965 451.340386 449.517197 451.961212 449.604613 452.582038 449.691198 453.202864 449.776940 453.823690 449.861825 454.444516 449.945839 455.065341 450.028970 455.686167 450.111204 456.306993 450.192529 456.927819 450.272929 457.548645 450.352393 458.169471 450.430907 458.790296 450.508457 459.411122 450.585031 460.031948 450.660614 460.652774 450.735195 461.273600 450.808758 461.894426 450.881292 462.515251 450.952782 463.136077 451.023216 463.756903 451.092580 464.377729 451.160860 464.998555 451.228045 465.619381 451.294119 466.240206 451.359070 466.861032 451.422885 467.481858 451.485550 468.102684 451.547052 468.723510 451.607377 469.344336 451.666513 469.965162 451.724445 470.585987 451.781162 471.206813 451.836648 471.827639 451.890892 472.448465 451.943880 473.069291 451.995598 473.690117 452.046033 474.310942 452.095171 474.931768 452.143001 475.552594 452.189507 476.173420 452.234677 476.794246 452.278498 477.415072 452.320956 478.035897 452.362038 478.656723 452.401734 479.277549 452.440046 479.898375 452.476979 480.519201 452.512540 481.140027 452.546734 481.760853 452.579566 482.381678 452.611042 483.002504 452.641167 483.623330 452.669948 484.244156 452.697389 484.864982 452.723496 485.485808 452.748276 486.106633 452.771732 486.727459 452.793871 487.348285 452.814699 487.969111 452.834221 488.589937 452.852442 489.210763 452.869368 489.831588 452.885005 490.452414 452.899358 491.073240 452.912433 491.694066 452.924235 492.314892 452.934770 492.935718 452.944043 493.556543 452.952061 494.177369 452.958828 494.798195 452.964350 495.419021 452.968633 496.039847 452.971682 496.660673 452.973502 497.281499 452.974100 497.902324 452.973481 498.523150 452.971651 499.143976 452.968614 499.764802 452.964377 500.385628 452.958945 501.006454 452.952324 501.627279 452.944519 502.248105 452.935535 502.868931 452.925380 503.489757 452.914057 504.110583 452.901572 504.731409 452.887932 505.352234 452.873141 505.973060 452.857205 506.593886 452.840130 507.214712 452.821921 507.835538 452.802584 508.456364 452.782124 509.077190 452.760547 509.698015 452.737859 510.318841 452.714065 510.939667 452.689170 511.560493 452.663181 512.181319 452.636102 512.802145 452.607940 513.422970 452.578699 514.043796 452.548386 514.664622 452.517005 515.285448 452.484563 515.906274 452.451066 516.527100 452.416518 517.147925 452.380925 517.768751 452.344292 518.389577 452.306626 519.010403 452.267932 519.631229 452.228216 520.252055 452.187482 520.872880 452.145737 521.493706 452.102985 522.114532 452.059234 522.735358 452.014487 523.356184 451.968752 523.977010 451.922033 524.597836 451.874335 525.218661 451.825665 525.839487 451.776028 526.460313 451.725430 527.081139 451.673875 527.701965 451.621371 528.322791 451.567921 528.943616 451.513532 529.564442 451.458210 530.185268 451.401959 530.806094 451.344786 531.426920 451.286696 532.047746 451.227695 532.668571 451.167787 533.289397 451.106979 533.910223 451.045277 534.531049 450.982685 535.151875 450.919210 535.772701 450.854856 536.393527 450.789630 537.014352 450.723537 537.635178 450.656582 538.256004 450.588772 538.876830 450.520111 539.497656 450.450606 540.118482 450.380261 540.739307 450.309083 541.360133 450.237077 541.980959 450.164248 542.601785 450.090602 543.222611 450.016145 543.843437 449.940882 544.464262 449.864819 545.085088 449.787960 545.705914 449.710313 546.326740 449.631882 546.947566 449.552673 547.568392 449.472692 548.189217 449.391943 548.810043 449.310434 549.430869 449.228168 550.051695 449.145152 550.672521 449.061392 551.293347 448.976892 551.914173 448.891658 552.534998 448.805697 553.155824 448.719013 553.776650 448.631612 554.397476 448.543500 555.018302 448.454682 555.639128 448.365164 556.259953 448.274951 556.880779 448.184048 557.501605 448.092463 558.122431 448.000199 558.743257 447.907263 559.364083 447.813660 559.984908 447.719395 560.605734 447.624475 561.226560 447.528904 561.847386 447.432689 562.468212 447.335835 563.089038 447.238347 563.709864 447.140231 564.330689 447.041493 564.951515 446.942138 565.572341 446.842171 566.193167 446.741599 566.813993 446.640426 567.434819 446.538659 568.055644 446.436303 568.676470 446.333363 569.297296 446.229845 569.918122 446.125755 570.538948 446.021097 571.159774 445.915879 571.780599 445.810105 572.401425 445.703780 573.022251 445.596911 573.643077 445.489503 574.263903 445.381561 574.884729 445.273092 575.505554 445.164100 576.126380 445.054591 576.747206 444.944570 577.368032 444.834044 577.988858 444.723018 578.609684 444.611497 579.230510 444.499488 579.851335 444.386994 580.472161 444.274023 581.092987 444.160579 581.713813 444.046669 582.334639 443.932297 582.955465 443.817469 583.576290 443.702191 584.197116 443.586469 584.817942 443.470308 585.438768 443.353713 586.059594 443.236690 586.680420 443.119245 587.301245 443.001383 587.922071 442.883110 588.542897 442.764431 589.163723 442.645352 589.784549 442.525878 590.405375 442.406015 591.026201 442.285769 591.647026 442.165145 592.267852 442.044148 592.888678 441.922785 593.509504 441.801060 594.130330 441.678980 594.751156 441.556550 595.371981 441.433775 595.992807 441.310661 596.613633 441.187214 597.234459 441.063438 597.855285 440.939341 598.476111 440.814926 599.096936 440.690201 599.717762 440.565169 600.338588 440.439838 600.959414 440.314212 601.580240 440.188297 602.201066 440.062099 602.821891 439.935623 603.442717 439.808874 604.063543 439.681859 604.684369 439.554582 605.305195 439.427050 605.926021 439.299267 606.546847 439.171241 607.167672 439.042975 607.788498 438.914476 608.409324 438.785749 609.030150 438.656799 609.650976 438.527633 610.271802 438.398256 610.892627 438.268673 611.513453 438.138890 612.134279 438.008912 612.755105 437.878746 613.375931 437.748396 613.996757 437.617868 614.617582 437.487168 615.238408 437.356301 615.859234 437.225273 616.480060 437.094090 617.100886 436.962756 617.721712 436.831278 618.342538 436.699661 618.963363 436.567910 619.584189 436.436032 620.205015 436.304032 620.825841 436.171914 621.446667 436.039686 622.067493 435.907352 622.688318 435.774918 623.309144 435.642390 623.929970 435.509772 624.550796 435.377071 625.171622 435.244293 625.792448 435.111442 626.413273 434.978525 627.034099 434.845546 627.654925 434.712512 628.275751 434.579427 628.896577 434.446299 629.517403 434.313131 630.138228 434.179930 630.759054 434.046701 631.379880 433.913450 632.000706 433.780183 632.621532 433.646904 633.242358 433.513620" class="line reactive nofill"/></g></g><g class="titles"><text x="400.0" y="26" class="title plot_title">主题: 路由器CPU利用率</text></g><g transform="translate(120, 46)" class="plot overlay"><g class="series serie-0 color-0"><g class="dots"><circle cx="12.416516817366263" cy="461.78624712787" r="2.5" class="dot reactive tooltip-trigger"/><desc class="value">4</desc><desc class="x top">12.416516817366263</desc><desc class="y top">461.78624712787</desc><desc class="x_label">20:12:02</desc></g><g class="dots"><circle cx="167.62297703444455" cy="466.4983516903993" r="2.5" class="dot reactive tooltip-trigger"/><desc class="value">3</desc><desc class="x top">167.62297703444455</desc><desc class="y top">466.4983516903993</desc><desc class="x_label">20:13:02</desc></g><g class="dots"><circle cx="322.82943725152285" cy="433.5136197526943" r="2.5" class="dot reactive tooltip-trigger"/><desc class="value">10</desc><desc class="x top">322.82943725152285</desc><desc class="y top">433.5136197526943</desc><desc class="x_label">20:14:03</desc></g><g class="dots"><circle cx="478.03589746860115" cy="452.36203800281146" r="2.5" class="dot reactive tooltip-trigger"/><desc class="value">6</desc><desc class="x left top">478.03589746860115</desc><desc class="y left top">452.36203800281146</desc><desc class="x_label">20:15:02</desc></g><g class="dots"><circle cx="633.2423576856794" cy="433.5136197526943" r="2.5" class="dot reactive tooltip-trigger"/><desc class="value">10</desc><desc class="x left top">633.2423576856794</desc><desc class="y left top">433.5136197526943</desc><desc class="x_label">20:16:01</desc></g></g></g><g transform="translate(120, 46)" class="plot text-overlay"><g class="series serie-0 color-0"/></g><g transform="translate(120, 46)" class="plot tooltip-overlay"><g transform="translate(0 0)" style="opacity: 0" class="tooltip"><rect rx="0" ry="0" width="0" height="0" class="tooltip-box"/><g class="text"/></g></g><g transform="translate(10, 56)" class="legends"><g id="activate-serie-0" class="legend reactive activate-serie"><rect x="0.0" y="1.0" width="12" height="12" class="color-0 reactive"/><text x="17.0" y="11.2">CPU利用率</text></g></g><g transform="translate(776, 56)" class="legends"/></g></svg>