<?xml version='1.0' encoding='utf-8'?>
<svg xmlns:xlink="http://www.w3.org/1999/xlink" xmlns="http://www.w3.org/2000/svg" id="chart-e575749e-50f2-423f-bd05-893756e1ca2a" class="pygal-chart" viewBox="0 0 800 600"><!--Generated with pygal 3.0.5 (etree) ©Kozea 2012-2016 on 2025-03-15--><!--http://pygal.org--><!--http://github.com/Kozea/pygal--><defs><style type="text/css">#chart-e575749e-50f2-423f-bd05-893756e1ca2a{-webkit-user-select:none;-webkit-font-smoothing:antialiased;font-family:Consolas,"Liberation Mono",Menlo,Courier,monospace}#chart-e575749e-50f2-423f-bd05-893756e1ca2a .title{font-family:Noto Sans CJK SC;font-size:16px}#chart-e575749e-50f2-423f-bd05-893756e1ca2a .legends .legend text{font-family:Noto Sans CJK SC;font-size:14px}#chart-e575749e-50f2-423f-bd05-893756e1ca2a .axis text{font-family:Noto Sans CJK SC;font-size:10px}#chart-e575749e-50f2-423f-bd05-893756e1ca2a .axis text.major{font-family:Noto Sans CJK SC;font-size:10px}#chart-e575749e-50f2-423f-bd05-893756e1ca2a .text-overlay text.value{font-family:Noto Sans CJK SC;font-size:16px}#chart-e575749e-50f2-423f-bd05-893756e1ca2a .text-overlay text.label{font-family:Consolas,"Liberation Mono",Menlo,Courier,monospace;font-size:10px}#chart-e575749e-50f2-423f-bd05-893756e1ca2a .tooltip{font-family:Consolas,"Liberation Mono",Menlo,Courier,monospace;font-size:14px}#chart-e575749e-50f2-423f-bd05-893756e1ca2a text.no_data{font-family:Consolas,"Liberation Mono",Menlo,Courier,monospace;font-size:64px}
#chart-e575749e-50f2-423f-bd05-893756e1ca2a{background-color:rgba(249,249,249,1)}#chart-e575749e-50f2-423f-bd05-893756e1ca2a path,#chart-e575749e-50f2-423f-bd05-893756e1ca2a line,#chart-e575749e-50f2-423f-bd05-893756e1ca2a rect,#chart-e575749e-50f2-423f-bd05-893756e1ca2a circle{-webkit-transition:150ms;-moz-transition:150ms;transition:150ms}#chart-e575749e-50f2-423f-bd05-893756e1ca2a .graph &gt; .background{fill:rgba(249,249,249,1)}#chart-e575749e-50f2-423f-bd05-893756e1ca2a .plot &gt; .background{fill:rgba(255,255,255,1)}#chart-e575749e-50f2-423f-bd05-893756e1ca2a .graph{fill:rgba(0,0,0,.87)}#chart-e575749e-50f2-423f-bd05-893756e1ca2a text.no_data{fill:rgba(0,0,0,1)}#chart-e575749e-50f2-423f-bd05-893756e1ca2a .title{fill:rgba(0,0,0,1)}#chart-e575749e-50f2-423f-bd05-893756e1ca2a .legends .legend text{fill:rgba(0,0,0,.87)}#chart-e575749e-50f2-423f-bd05-893756e1ca2a .legends .legend:hover text{fill:rgba(0,0,0,1)}#chart-e575749e-50f2-423f-bd05-893756e1ca2a .axis .line{stroke:rgba(0,0,0,1)}#chart-e575749e-50f2-423f-bd05-893756e1ca2a .axis .guide.line{stroke:rgba(0,0,0,.54)}#chart-e575749e-50f2-423f-bd05-893756e1ca2a .axis .major.line{stroke:rgba(0,0,0,.87)}#chart-e575749e-50f2-423f-bd05-893756e1ca2a .axis text.major{fill:rgba(0,0,0,1)}#chart-e575749e-50f2-423f-bd05-893756e1ca2a .axis.y .guides:hover .guide.line,#chart-e575749e-50f2-423f-bd05-893756e1ca2a .line-graph .axis.x .guides:hover .guide.line,#chart-e575749e-50f2-423f-bd05-893756e1ca2a .stackedline-graph .axis.x .guides:hover .guide.line,#chart-e575749e-50f2-423f-bd05-893756e1ca2a .xy-graph .axis.x .guides:hover .guide.line{stroke:rgba(0,0,0,1)}#chart-e575749e-50f2-423f-bd05-893756e1ca2a .axis .guides:hover text{fill:rgba(0,0,0,1)}#chart-e575749e-50f2-423f-bd05-893756e1ca2a .reactive{fill-opacity:.7;stroke-opacity:.8;stroke-width:1}#chart-e575749e-50f2-423f-bd05-893756e1ca2a .ci{stroke:rgba(0,0,0,.87)}#chart-e575749e-50f2-423f-bd05-893756e1ca2a .reactive.active,#chart-e575749e-50f2-423f-bd05-893756e1ca2a .active .reactive{fill-opacity:.8;stroke-opacity:.9;stroke-width:4}#chart-e575749e-50f2-423f-bd05-893756e1ca2a .ci .reactive.active{stroke-width:1.5}#chart-e575749e-50f2-423f-bd05-893756e1ca2a .series text{fill:rgba(0,0,0,1)}#chart-e575749e-50f2-423f-bd05-893756e1ca2a .tooltip rect{fill:rgba(255,255,255,1);stroke:rgba(0,0,0,1);-webkit-transition:opacity 150ms;-moz-transition:opacity 150ms;transition:opacity 150ms}#chart-e575749e-50f2-423f-bd05-893756e1ca2a .tooltip .label{fill:rgba(0,0,0,.87)}#chart-e575749e-50f2-423f-bd05-893756e1ca2a .tooltip .label{fill:rgba(0,0,0,.87)}#chart-e575749e-50f2-423f-bd05-893756e1ca2a .tooltip .legend{font-size:.8em;fill:rgba(0,0,0,.54)}#chart-e575749e-50f2-423f-bd05-893756e1ca2a .tooltip .x_label{font-size:.6em;fill:rgba(0,0,0,1)}#chart-e575749e-50f2-423f-bd05-893756e1ca2a .tooltip .xlink{font-size:.5em;text-decoration:underline}#chart-e575749e-50f2-423f-bd05-893756e1ca2a .tooltip .value{font-size:1.5em}#chart-e575749e-50f2-423f-bd05-893756e1ca2a .bound{font-size:.5em}#chart-e575749e-50f2-423f-bd05-893756e1ca2a .max-value{font-size:.75em;fill:rgba(0,0,0,.54)}#chart-e575749e-50f2-423f-bd05-893756e1ca2a .map-element{fill:rgba(255,255,255,1);stroke:rgba(0,0,0,.54) !important}#chart-e575749e-50f2-423f-bd05-893756e1ca2a .map-element .reactive{fill-opacity:inherit;stroke-opacity:inherit}#chart-e575749e-50f2-423f-bd05-893756e1ca2a .color-0,#chart-e575749e-50f2-423f-bd05-893756e1ca2a .color-0 a:visited{stroke:#F44336;fill:#F44336}#chart-e575749e-50f2-423f-bd05-893756e1ca2a .text-overlay .color-0 text{fill:black}
#chart-e575749e-50f2-423f-bd05-893756e1ca2a text.no_data{text-anchor:middle}#chart-e575749e-50f2-423f-bd05-893756e1ca2a .guide.line{fill:none}#chart-e575749e-50f2-423f-bd05-893756e1ca2a .centered{text-anchor:middle}#chart-e575749e-50f2-423f-bd05-893756e1ca2a .title{text-anchor:middle}#chart-e575749e-50f2-423f-bd05-893756e1ca2a .legends .legend text{fill-opacity:1}#chart-e575749e-50f2-423f-bd05-893756e1ca2a .axis.x text{text-anchor:middle}#chart-e575749e-50f2-423f-bd05-893756e1ca2a .axis.x:not(.web) text[transform]{text-anchor:start}#chart-e575749e-50f2-423f-bd05-893756e1ca2a .axis.x:not(.web) text[transform].backwards{text-anchor:end}#chart-e575749e-50f2-423f-bd05-893756e1ca2a .axis.y text{text-anchor:end}#chart-e575749e-50f2-423f-bd05-893756e1ca2a .axis.y text[transform].backwards{text-anchor:start}#chart-e575749e-50f2-423f-bd05-893756e1ca2a .axis.y2 text{text-anchor:start}#chart-e575749e-50f2-423f-bd05-893756e1ca2a .axis.y2 text[transform].backwards{text-anchor:end}#chart-e575749e-50f2-423f-bd05-893756e1ca2a .axis .guide.line{stroke-dasharray:4,4;stroke:black}#chart-e575749e-50f2-423f-bd05-893756e1ca2a .axis .major.guide.line{stroke-dasharray:6,6;stroke:black}#chart-e575749e-50f2-423f-bd05-893756e1ca2a .horizontal .axis.y .guide.line,#chart-e575749e-50f2-423f-bd05-893756e1ca2a .horizontal .axis.y2 .guide.line,#chart-e575749e-50f2-423f-bd05-893756e1ca2a .vertical .axis.x .guide.line{opacity:0}#chart-e575749e-50f2-423f-bd05-893756e1ca2a .horizontal .axis.always_show .guide.line,#chart-e575749e-50f2-423f-bd05-893756e1ca2a .vertical .axis.always_show .guide.line{opacity:1 !important}#chart-e575749e-50f2-423f-bd05-893756e1ca2a .axis.y .guides:hover .guide.line,#chart-e575749e-50f2-423f-bd05-893756e1ca2a .axis.y2 .guides:hover .guide.line,#chart-e575749e-50f2-423f-bd05-893756e1ca2a .axis.x .guides:hover .guide.line{opacity:1}#chart-e575749e-50f2-423f-bd05-893756e1ca2a .axis .guides:hover text{opacity:1}#chart-e575749e-50f2-423f-bd05-893756e1ca2a .nofill{fill:none}#chart-e575749e-50f2-423f-bd05-893756e1ca2a .subtle-fill{fill-opacity:.2}#chart-e575749e-50f2-423f-bd05-893756e1ca2a .dot{stroke-width:1px;fill-opacity:1;stroke-opacity:1}#chart-e575749e-50f2-423f-bd05-893756e1ca2a .dot.active{stroke-width:5px}#chart-e575749e-50f2-423f-bd05-893756e1ca2a .dot.negative{fill:transparent}#chart-e575749e-50f2-423f-bd05-893756e1ca2a text,#chart-e575749e-50f2-423f-bd05-893756e1ca2a tspan{stroke:none !important}#chart-e575749e-50f2-423f-bd05-893756e1ca2a .series text.active{opacity:1}#chart-e575749e-50f2-423f-bd05-893756e1ca2a .tooltip rect{fill-opacity:.95;stroke-width:.5}#chart-e575749e-50f2-423f-bd05-893756e1ca2a .tooltip text{fill-opacity:1}#chart-e575749e-50f2-423f-bd05-893756e1ca2a .showable{visibility:hidden}#chart-e575749e-50f2-423f-bd05-893756e1ca2a .showable.shown{visibility:visible}#chart-e575749e-50f2-423f-bd05-893756e1ca2a .gauge-background{fill:rgba(229,229,229,1);stroke:none}#chart-e575749e-50f2-423f-bd05-893756e1ca2a .bg-lines{stroke:rgba(249,249,249,1);stroke-width:2px}</style><script type="text/javascript">window.pygal = window.pygal || {};window.pygal.config = window.pygal.config || {};window.pygal.config['e575749e-50f2-423f-bd05-893756e1ca2a'] = {"allow_interruptions": false, "box_mode": "extremes", "classes": ["pygal-chart"], "css": ["file://style.css", "file://graph.css"], "defs": [], "disable_xml_declaration": false, "dots_size": 2.5, "dynamic_print_values": false, "explicit_size": false, "fill": false, "force_uri_protocol": "https", "formatter": null, "half_pie": false, "height": 600, "include_x_axis": false, "inner_radius": 0, "interpolate": "cubic", "interpolation_parameters": {}, "interpolation_precision": 250, "inverse_y_axis": false, "js": ["//kozea.github.io/pygal.js/2.0.x/pygal-tooltips.min.js"], "legend_at_bottom": false, "legend_at_bottom_columns": null, "legend_box_size": 12, "logarithmic": false, "margin": 20, "margin_bottom": null, "margin_left": null, "margin_right": null, "margin_top": null, "max_scale": 16, "min_scale": 4, "missing_value_fill_truncation": "x", "no_data_text": "No data", "no_prefix": false, "order_min": null, "pretty_print": false, "print_labels": false, "print_values": false, "print_values_position": "center", "print_zeroes": true, "range": [0, 100], "rounded_bars": null, "secondary_range": null, "show_dots": true, "show_legend": true, "show_minor_x_labels": true, "show_minor_y_labels": true, "show_only_major_dots": false, "show_x_guides": false, "show_x_labels": true, "show_y_guides": true, "show_y_labels": true, "spacing": 10, "stack_from_top": false, "strict": false, "stroke": true, "stroke_style": null, "style": {"background": "rgba(249, 249, 249, 1)", "ci_colors": [], "colors": ["#F44336", "#3F51B5", "#009688", "#FFC107", "#FF5722", "#9C27B0", "#03A9F4", "#8BC34A", "#FF9800", "#E91E63", "#2196F3", "#4CAF50", "#FFEB3B", "#673AB7", "#00BCD4", "#CDDC39", "#9E9E9E", "#607D8B"], "dot_opacity": "1", "font_family": "Consolas, \"Liberation Mono\", Menlo, Courier, monospace", "foreground": "rgba(0, 0, 0, .87)", "foreground_strong": "rgba(0, 0, 0, 1)", "foreground_subtle": "rgba(0, 0, 0, .54)", "guide_stroke_color": "black", "guide_stroke_dasharray": "4,4", "label_font_family": "Noto Sans CJK SC", "label_font_size": 10, "legend_font_family": "Noto Sans CJK SC", "legend_font_size": 14, "major_guide_stroke_color": "black", "major_guide_stroke_dasharray": "6,6", "major_label_font_family": "Noto Sans CJK SC", "major_label_font_size": 10, "no_data_font_family": "Consolas, \"Liberation Mono\", Menlo, Courier, monospace", "no_data_font_size": 64, "opacity": ".7", "opacity_hover": ".8", "plot_background": "rgba(255, 255, 255, 1)", "stroke_opacity": ".8", "stroke_opacity_hover": ".9", "stroke_width": "1", "stroke_width_hover": "4", "title_font_family": "Noto Sans CJK SC", "title_font_size": 16, "tooltip_font_family": "Consolas, \"Liberation Mono\", Menlo, Courier, monospace", "tooltip_font_size": 14, "transition": "150ms", "value_background": "rgba(229, 229, 229, 1)", "value_colors": [], "value_font_family": "Noto Sans CJK SC", "value_font_size": 16, "value_label_font_family": "Consolas, \"Liberation Mono\", Menlo, Courier, monospace", "value_label_font_size": 10}, "title": "\u4e3b\u9898: \u8def\u7531\u5668\u5185\u5b58\u5229\u7528\u7387", "tooltip_border_radius": 0, "tooltip_fancy_mode": true, "truncate_label": null, "truncate_legend": null, "width": 800, "x_label_rotation": 45, "x_labels": ["10:23:01", "10:24:02", "10:25:02", "10:26:02", "10:27:02"], "x_labels_major": null, "x_labels_major_count": null, "x_labels_major_every": null, "x_title": null, "xrange": null, "y_label_rotation": 0, "y_labels": null, "y_labels_major": null, "y_labels_major_count": null, "y_labels_major_every": null, "y_title": null, "zero": 0, "legends": ["MEM\u5229\u7528\u7387"]}</script><script type="text/javascript" xlink:href="https://kozea.github.io/pygal.js/2.0.x/pygal-tooltips.min.js" /></defs><title>主题: 路由器内存利用率</title><g class="graph line-graph vertical"><rect x="0" y="0" width="800" height="600" class="background" /><g transform="translate(120, 46)" class="plot"><rect x="0" y="0" width="645.6588745030457" height="490.05887450304573" class="background" /><g class="axis y always_show"><g class="guides"><path d="M0.000000 480.634665 h645.658875" class="axis major line" /><text x="-5" y="484.1346653779872" class="major">0</text><title>0</title></g><g class="guides"><path d="M0.000000 433.513620 h645.658875" class="guide line" /><text x="-5" y="437.0136197526943" class="">10</text><title>10</title></g><g class="guides"><path d="M0.000000 386.392574 h645.658875" class="guide line" /><text x="-5" y="389.8925741274014" class="">20</text><title>20</title></g><g class="guides"><path d="M0.000000 339.271529 h645.658875" class="guide line" /><text x="-5" y="342.7715285021086" class="">30</text><title>30</title></g><g class="guides"><path d="M0.000000 292.150483 h645.658875" class="guide line" /><text x="-5" y="295.6504828768158" class="">40</text><title>40</title></g><g class="guides"><path d="M0.000000 245.029437 h645.658875" class="major guide line" /><text x="-5" y="248.52943725152286" class="major">50</text><title>50</title></g><g class="guides"><path d="M0.000000 197.908392 h645.658875" class="guide line" /><text x="-5" y="201.40839162623" class="">60</text><title>60</title></g><g class="guides"><path d="M0.000000 150.787346 h645.658875" class="guide line" /><text x="-5" y="154.28734600093713" class="">70</text><title>70</title></g><g class="guides"><path d="M0.000000 103.666300 h645.658875" class="guide line" /><text x="-5" y="107.16630037564425" class="">80</text><title>80</title></g><g class="guides"><path d="M0.000000 56.545255 h645.658875" class="guide line" /><text x="-5" y="60.045254750351376" class="">90</text><title>90</title></g><g class="guides"><path d="M0.000000 9.424209 h645.658875" class="major guide line" /><text x="-5" y="12.92420912505861" class="major">100</text><title>100</title></g></g><g class="axis x"><g class="guides"><path d="M12.416517 0.000000 v490.058875" class="line" /><text x="12.416516817366263" y="505.05887450304573" class="" transform="rotate(45 12.416517 505.058875)">10:23:01</text></g><g class="guides"><path d="M167.622977 0.000000 v490.058875" class="guide line" /><text x="167.62297703444455" y="505.05887450304573" class="" transform="rotate(45 167.622977 505.058875)">10:24:02</text></g><g class="guides"><path d="M322.829437 0.000000 v490.058875" class="guide line" /><text x="322.82943725152285" y="505.05887450304573" class="" transform="rotate(45 322.829437 505.058875)">10:25:02</text></g><g class="guides"><path d="M478.035897 0.000000 v490.058875" class="guide line" /><text x="478.03589746860115" y="505.05887450304573" class="" transform="rotate(45 478.035897 505.058875)">10:26:02</text></g><g class="guides"><path d="M633.242358 0.000000 v490.058875" class="guide line" /><text x="633.2423576856794" y="505.05887450304573" class="" transform="rotate(45 633.242358 505.058875)">10:27:02</text></g></g><g class="series serie-0 color-0"><path d="M12.416517 152.577946 L13.037343 152.577774 13.658168 152.577602 14.278994 152.577431 14.899820 152.577259 15.520646 152.577087 16.141472 152.576916 16.762298 152.576744 17.383124 152.576572 18.003949 152.576401 18.624775 152.576229 19.245601 152.576057 19.866427 152.575885 20.487253 152.575714 21.108079 152.575542 21.728904 152.575370 22.349730 152.575198 22.970556 152.575026 23.591382 152.574854 24.212208 152.574682 24.833034 152.574510 25.453859 152.574338 26.074685 152.574166 26.695511 152.573994 27.316337 152.573822 27.937163 152.573650 28.557989 152.573478 29.178815 152.573306 29.799640 152.573133 30.420466 152.572961 31.041292 152.572789 31.662118 152.572616 32.282944 152.572444 32.903770 152.572271 33.524595 152.572099 34.145421 152.571926 34.766247 152.571754 35.387073 152.571581 36.007899 152.571408 36.628725 152.571235 37.249550 152.571062 37.870376 152.570889 38.491202 152.570716 39.112028 152.570543 39.732854 152.570370 40.353680 152.570197 40.974505 152.570023 41.595331 152.569850 42.216157 152.569677 42.836983 152.569503 43.457809 152.569329 44.078635 152.569156 44.699461 152.568982 45.320286 152.568808 45.941112 152.568634 46.561938 152.568460 47.182764 152.568286 47.803590 152.568112 48.424416 152.567937 49.045241 152.567763 49.666067 152.567588 50.286893 152.567414 50.907719 152.567239 51.528545 152.567064 52.149371 152.566889 52.770196 152.566714 53.391022 152.566539 54.011848 152.566364 54.632674 152.566189 55.253500 152.566013 55.874326 152.565838 56.495152 152.565662 57.115977 152.565486 57.736803 152.565310 58.357629 152.565134 58.978455 152.564958 59.599281 152.564782 60.220107 152.564605 60.840932 152.564429 61.461758 152.564252 62.082584 152.564075 62.703410 152.563899 63.324236 152.563722 63.945062 152.563544 64.565887 152.563367 65.186713 152.563190 65.807539 152.563012 66.428365 152.562834 67.049191 152.562657 67.670017 152.562479 68.290842 152.562300 68.911668 152.562122 69.532494 152.561944 70.153320 152.561765 70.774146 152.561586 71.394972 152.561408 72.015798 152.561229 72.636623 152.561049 73.257449 152.560870 73.878275 152.560691 74.499101 152.560511 75.119927 152.560331 75.740753 152.560151 76.361578 152.559971 76.982404 152.559791 77.603230 152.559610 78.224056 152.559430 78.844882 152.559249 79.465708 152.559068 80.086533 152.558887 80.707359 152.558705 81.328185 152.558524 81.949011 152.558342 82.569837 152.558160 83.190663 152.557978 83.811489 152.557796 84.432314 152.557613 85.053140 152.557431 85.673966 152.557248 86.294792 152.557065 86.915618 152.556882 87.536444 152.556698 88.157269 152.556515 88.778095 152.556331 89.398921 152.556147 90.019747 152.555963 90.640573 152.555779 91.261399 152.555594 91.882224 152.555409 92.503050 152.555224 93.123876 152.555039 93.744702 152.554854 94.365528 152.554668 94.986354 152.554482 95.607179 152.554296 96.228005 152.554110 96.848831 152.553923 97.469657 152.553737 98.090483 152.553550 98.711309 152.553363 99.332135 152.553175 99.952960 152.552988 100.573786 152.552800 101.194612 152.552612 101.815438 152.552423 102.436264 152.552235 103.057090 152.552046 103.677915 152.551857 104.298741 152.551668 104.919567 152.551478 105.540393 152.551289 106.161219 152.551099 106.782045 152.550909 107.402870 152.550718 108.023696 152.550527 108.644522 152.550336 109.265348 152.550145 109.886174 152.549954 110.507000 152.549762 111.127826 152.549570 111.748651 152.549378 112.369477 152.549186 112.990303 152.548993 113.611129 152.548800 114.231955 152.548607 114.852781 152.548413 115.473606 152.548219 116.094432 152.548025 116.715258 152.547831 117.336084 152.547636 117.956910 152.547441 118.577736 152.547246 119.198561 152.547051 119.819387 152.546855 120.440213 152.546659 121.061039 152.546463 121.681865 152.546266 122.302691 152.546070 122.923516 152.545873 123.544342 152.545675 124.165168 152.545477 124.785994 152.545279 125.406820 152.545081 126.027646 152.544883 126.648472 152.544684 127.269297 152.544485 127.890123 152.544285 128.510949 152.544085 129.131775 152.543885 129.752601 152.543685 130.373427 152.543484 130.994252 152.543283 131.615078 152.543082 132.235904 152.542881 132.856730 152.542679 133.477556 152.542476 134.098382 152.542274 134.719207 152.542071 135.340033 152.541868 135.960859 152.541664 136.581685 152.541461 137.202511 152.541256 137.823337 152.541052 138.444163 152.540847 139.064988 152.540642 139.685814 152.540437 140.306640 152.540231 140.927466 152.540025 141.548292 152.539818 142.169118 152.539612 142.789943 152.539404 143.410769 152.539197 144.031595 152.538989 144.652421 152.538781 145.273247 152.538573 145.894073 152.538364 146.514898 152.538155 147.135724 152.537945 147.756550 152.537735 148.377376 152.537525 148.998202 152.537314 149.619028 152.537104 150.239853 152.536892 150.860679 152.536681 151.481505 152.536469 152.102331 152.536256 152.723157 152.536043 153.343983 152.535830 153.964809 152.535617 154.585634 152.535403 155.206460 152.535189 155.827286 152.534974 156.448112 152.534759 157.068938 152.534544 157.689764 152.534328 158.310589 152.534112 158.931415 152.533896 159.552241 152.533679 160.173067 152.533462 160.793893 152.533244 161.414719 152.533026 162.035544 152.532808 162.656370 152.532589 163.277196 152.532370 163.898022 152.532150 164.518848 152.531930 165.139674 152.531710 165.760500 152.531489 166.381325 152.531268 167.002151 152.531047 167.622977 152.530825 168.243803 152.530602 168.864629 152.530380 169.485455 152.530156 170.106280 152.529933 170.727106 152.529709 171.347932 152.529485 171.968758 152.529260 172.589584 152.529035 173.210410 152.528810 173.831235 152.528584 174.452061 152.528358 175.072887 152.528132 175.693713 152.527906 176.314539 152.527679 176.935365 152.527452 177.556190 152.527224 178.177016 152.526997 178.797842 152.526769 179.418668 152.526540 180.039494 152.526312 180.660320 152.526083 181.281146 152.525854 181.901971 152.525625 182.522797 152.525396 183.143623 152.525166 183.764449 152.524936 184.385275 152.524706 185.006101 152.524476 185.626926 152.524246 186.247752 152.524015 186.868578 152.523784 187.489404 152.523553 188.110230 152.523322 188.731056 152.523091 189.351881 152.522860 189.972707 152.522629 190.593533 152.522397 191.214359 152.522166 191.835185 152.521934 192.456011 152.521702 193.076837 152.521470 193.697662 152.521238 194.318488 152.521006 194.939314 152.520774 195.560140 152.520542 196.180966 152.520310 196.801792 152.520078 197.422617 152.519845 198.043443 152.519613 198.664269 152.519381 199.285095 152.519149 199.905921 152.518917 200.526747 152.518684 201.147572 152.518452 201.768398 152.518220 202.389224 152.517988 203.010050 152.517756 203.630876 152.517524 204.251702 152.517292 204.872527 152.517060 205.493353 152.516828 206.114179 152.516596 206.735005 152.516365 207.355831 152.516133 207.976657 152.515902 208.597483 152.515671 209.218308 152.515440 209.839134 152.515209 210.459960 152.514978 211.080786 152.514747 211.701612 152.514516 212.322438 152.514286 212.943263 152.514056 213.564089 152.513826 214.184915 152.513596 214.805741 152.513366 215.426567 152.513137 216.047393 152.512908 216.668218 152.512679 217.289044 152.512450 217.909870 152.512222 218.530696 152.511993 219.151522 152.511765 219.772348 152.511538 220.393174 152.511310 221.013999 152.511083 221.634825 152.510856 222.255651 152.510630 222.876477 152.510404 223.497303 152.510178 224.118129 152.509952 224.738954 152.509727 225.359780 152.509502 225.980606 152.509277 226.601432 152.509053 227.222258 152.508829 227.843084 152.508606 228.463909 152.508382 229.084735 152.508160 229.705561 152.507937 230.326387 152.507715 230.947213 152.507494 231.568039 152.507273 232.188864 152.507052 232.809690 152.506832 233.430516 152.506612 234.051342 152.506393 234.672168 152.506174 235.292994 152.505955 235.913820 152.505737 236.534645 152.505520 237.155471 152.505303 237.776297 152.505087 238.397123 152.504871 239.017949 152.504655 239.638775 152.504440 240.259600 152.504226 240.880426 152.504012 241.501252 152.503799 242.122078 152.503586 242.742904 152.503374 243.363730 152.503162 243.984555 152.502951 244.605381 152.502741 245.226207 152.502531 245.847033 152.502322 246.467859 152.502113 247.088685 152.501905 247.709511 152.501698 248.330336 152.501491 248.951162 152.501285 249.571988 152.501080 250.192814 152.500875 250.813640 152.500671 251.434466 152.500467 252.055291 152.500265 252.676117 152.500063 253.296943 152.499861 253.917769 152.499661 254.538595 152.499461 255.159421 152.499262 255.780246 152.499063 256.401072 152.498866 257.021898 152.498669 257.642724 152.498473 258.263550 152.498277 258.884376 152.498083 259.505201 152.497889 260.126027 152.497696 260.746853 152.497503 261.367679 152.497312 261.988505 152.497121 262.609331 152.496931 263.230157 152.496743 263.850982 152.496554 264.471808 152.496367 265.092634 152.496181 265.713460 152.495995 266.334286 152.495810 266.955112 152.495627 267.575937 152.495444 268.196763 152.495262 268.817589 152.495081 269.438415 152.494900 270.059241 152.494721 270.680067 152.494543 271.300892 152.494365 271.921718 152.494189 272.542544 152.494013 273.163370 152.493839 273.784196 152.493665 274.405022 152.493492 275.025848 152.493321 275.646673 152.493150 276.267499 152.492981 276.888325 152.492812 277.509151 152.492644 278.129977 152.492478 278.750803 152.492312 279.371628 152.492148 279.992454 152.491984 280.613280 152.491822 281.234106 152.491661 281.854932 152.491500 282.475758 152.491341 283.096583 152.491183 283.717409 152.491026 284.338235 152.490870 284.959061 152.490715 285.579887 152.490562 286.200713 152.490409 286.821538 152.490258 287.442364 152.490108 288.063190 152.489959 288.684016 152.489811 289.304842 152.489664 289.925668 152.489518 290.546494 152.489374 291.167319 152.489231 291.788145 152.489089 292.408971 152.488948 293.029797 152.488809 293.650623 152.488670 294.271449 152.488533 294.892274 152.488397 295.513100 152.488263 296.133926 152.488130 296.754752 152.487997 297.375578 152.487867 297.996404 152.487737 298.617229 152.487609 299.238055 152.487482 299.858881 152.487357 300.479707 152.487232 301.100533 152.487109 301.721359 152.486988 302.342185 152.486867 302.963010 152.486749 303.583836 152.486631 304.204662 152.486515 304.825488 152.486400 305.446314 152.486286 306.067140 152.486174 306.687965 152.486064 307.308791 152.485955 307.929617 152.485847 308.550443 152.485740 309.171269 152.485635 309.792095 152.485532 310.412920 152.485430 311.033746 152.485329 311.654572 152.485230 312.275398 152.485132 312.896224 152.485036 313.517050 152.484941 314.137875 152.484848 314.758701 152.484756 315.379527 152.484666 316.000353 152.484577 316.621179 152.484490 317.242005 152.484404 317.862831 152.484320 318.483656 152.484238 319.104482 152.484157 319.725308 152.484077 320.346134 152.483999 320.966960 152.483923 321.587786 152.483848 322.208611 152.483775 322.829437 152.483704 323.450263 152.483634 324.071089 152.483565 324.691915 152.483499 325.312741 152.483434 325.933566 152.483370 326.554392 152.483308 327.175218 152.483248 327.796044 152.483189 328.416870 152.483131 329.037696 152.483076 329.658522 152.483021 330.279347 152.482968 330.900173 152.482917 331.520999 152.482867 332.141825 152.482818 332.762651 152.482771 333.383477 152.482725 334.004302 152.482681 334.625128 152.482638 335.245954 152.482596 335.866780 152.482556 336.487606 152.482517 337.108432 152.482480 337.729257 152.482444 338.350083 152.482409 338.970909 152.482375 339.591735 152.482343 340.212561 152.482312 340.833387 152.482282 341.454212 152.482254 342.075038 152.482226 342.695864 152.482200 343.316690 152.482175 343.937516 152.482152 344.558342 152.482129 345.179168 152.482108 345.799993 152.482088 346.420819 152.482069 347.041645 152.482051 347.662471 152.482034 348.283297 152.482019 348.904123 152.482004 349.524948 152.481991 350.145774 152.481979 350.766600 152.481967 351.387426 152.481957 352.008252 152.481948 352.629078 152.481940 353.249903 152.481933 353.870729 152.481927 354.491555 152.481921 355.112381 152.481917 355.733207 152.481914 356.354033 152.481912 356.974858 152.481910 357.595684 152.481910 358.216510 152.481910 358.837336 152.481912 359.458162 152.481914 360.078988 152.481917 360.699814 152.481921 361.320639 152.481926 361.941465 152.481932 362.562291 152.481938 363.183117 152.481945 363.803943 152.481954 364.424769 152.481962 365.045594 152.481972 365.666420 152.481983 366.287246 152.481994 366.908072 152.482006 367.528898 152.482018 368.149724 152.482032 368.770549 152.482046 369.391375 152.482060 370.012201 152.482076 370.633027 152.482092 371.253853 152.482108 371.874679 152.482126 372.495505 152.482144 373.116330 152.482162 373.737156 152.482181 374.357982 152.482201 374.978808 152.482221 375.599634 152.482242 376.220460 152.482264 376.841285 152.482285 377.462111 152.482308 378.082937 152.482331 378.703763 152.482354 379.324589 152.482378 379.945415 152.482403 380.566240 152.482427 381.187066 152.482453 381.807892 152.482478 382.428718 152.482505 383.049544 152.482531 383.670370 152.482558 384.291195 152.482585 384.912021 152.482613 385.532847 152.482641 386.153673 152.482670 386.774499 152.482698 387.395325 152.482727 388.016151 152.482757 388.636976 152.482786 389.257802 152.482816 389.878628 152.482846 390.499454 152.482877 391.120280 152.482907 391.741106 152.482938 392.361931 152.482970 392.982757 152.483001 393.603583 152.483032 394.224409 152.483064 394.845235 152.483096 395.466061 152.483128 396.086886 152.483160 396.707712 152.483192 397.328538 152.483225 397.949364 152.483257 398.570190 152.483290 399.191016 152.483323 399.811842 152.483355 400.432667 152.483388 401.053493 152.483421 401.674319 152.483454 402.295145 152.483487 402.915971 152.483520 403.536797 152.483552 404.157622 152.483585 404.778448 152.483618 405.399274 152.483651 406.020100 152.483684 406.640926 152.483716 407.261752 152.483749 407.882577 152.483781 408.503403 152.483814 409.124229 152.483846 409.745055 152.483878 410.365881 152.483910 410.986707 152.483941 411.607532 152.483973 412.228358 152.484004 412.849184 152.484036 413.470010 152.484067 414.090836 152.484097 414.711662 152.484128 415.332488 152.484158 415.953313 152.484188 416.574139 152.484218 417.194965 152.484248 417.815791 152.484277 418.436617 152.484306 419.057443 152.484334 419.678268 152.484362 420.299094 152.484390 420.919920 152.484418 421.540746 152.484445 422.161572 152.484471 422.782398 152.484498 423.403223 152.484524 424.024049 152.484549 424.644875 152.484574 425.265701 152.484599 425.886527 152.484623 426.507353 152.484646 427.128179 152.484670 427.749004 152.484692 428.369830 152.484714 428.990656 152.484736 429.611482 152.484757 430.232308 152.484778 430.853134 152.484798 431.473959 152.484817 432.094785 152.484836 432.715611 152.484854 433.336437 152.484871 433.957263 152.484888 434.578089 152.484905 435.198914 152.484920 435.819740 152.484935 436.440566 152.484950 437.061392 152.484963 437.682218 152.484976 438.303044 152.484988 438.923869 152.485000 439.544695 152.485011 440.165521 152.485021 440.786347 152.485030 441.407173 152.485038 442.027999 152.485046 442.648825 152.485053 443.269650 152.485059 443.890476 152.485064 444.511302 152.485068 445.132128 152.485072 445.752954 152.485074 446.373780 152.485076 446.994605 152.485077 447.615431 152.485077 448.236257 152.485076 448.857083 152.485074 449.477909 152.485071 450.098735 152.485067 450.719560 152.485063 451.340386 152.485057 451.961212 152.485050 452.582038 152.485042 453.202864 152.485034 453.823690 152.485024 454.444516 152.485013 455.065341 152.485001 455.686167 152.484988 456.306993 152.484974 456.927819 152.484959 457.548645 152.484943 458.169471 152.484925 458.790296 152.484907 459.411122 152.484887 460.031948 152.484866 460.652774 152.484844 461.273600 152.484821 461.894426 152.484797 462.515251 152.484771 463.136077 152.484745 463.756903 152.484717 464.377729 152.484687 464.998555 152.484657 465.619381 152.484625 466.240206 152.484592 466.861032 152.484558 467.481858 152.484522 468.102684 152.484485 468.723510 152.484447 469.344336 152.484407 469.965162 152.484366 470.585987 152.484324 471.206813 152.484280 471.827639 152.484235 472.448465 152.484188 473.069291 152.484140 473.690117 152.484091 474.310942 152.484040 474.931768 152.483988 475.552594 152.483934 476.173420 152.483879 476.794246 152.483822 477.415072 152.483763 478.035897 152.483704 478.656723 152.483642 479.277549 152.483579 479.898375 152.483515 480.519201 152.483449 481.140027 152.483382 481.760853 152.483313 482.381678 152.483242 483.002504 152.483170 483.623330 152.483097 484.244156 152.483022 484.864982 152.482946 485.485808 152.482868 486.106633 152.482789 486.727459 152.482708 487.348285 152.482626 487.969111 152.482542 488.589937 152.482457 489.210763 152.482370 489.831588 152.482283 490.452414 152.482193 491.073240 152.482102 491.694066 152.482010 492.314892 152.481917 492.935718 152.481822 493.556543 152.481725 494.177369 152.481628 494.798195 152.481529 495.419021 152.481428 496.039847 152.481326 496.660673 152.481223 497.281499 152.481119 497.902324 152.481013 498.523150 152.480905 499.143976 152.480797 499.764802 152.480687 500.385628 152.480576 501.006454 152.480463 501.627279 152.480349 502.248105 152.480234 502.868931 152.480118 503.489757 152.480000 504.110583 152.479881 504.731409 152.479761 505.352234 152.479639 505.973060 152.479517 506.593886 152.479393 507.214712 152.479267 507.835538 152.479141 508.456364 152.479013 509.077190 152.478884 509.698015 152.478754 510.318841 152.478622 510.939667 152.478489 511.560493 152.478355 512.181319 152.478220 512.802145 152.478084 513.422970 152.477947 514.043796 152.477808 514.664622 152.477668 515.285448 152.477527 515.906274 152.477385 516.527100 152.477241 517.147925 152.477097 517.768751 152.476951 518.389577 152.476804 519.010403 152.476656 519.631229 152.476507 520.252055 152.476357 520.872880 152.476206 521.493706 152.476053 522.114532 152.475900 522.735358 152.475745 523.356184 152.475590 523.977010 152.475433 524.597836 152.475275 525.218661 152.475116 525.839487 152.474956 526.460313 152.474795 527.081139 152.474633 527.701965 152.474469 528.322791 152.474305 528.943616 152.474140 529.564442 152.473974 530.185268 152.473806 530.806094 152.473638 531.426920 152.473469 532.047746 152.473298 532.668571 152.473127 533.289397 152.472954 533.910223 152.472781 534.531049 152.472607 535.151875 152.472431 535.772701 152.472255 536.393527 152.472078 537.014352 152.471900 537.635178 152.471720 538.256004 152.471540 538.876830 152.471359 539.497656 152.471177 540.118482 152.470994 540.739307 152.470811 541.360133 152.470626 541.980959 152.470440 542.601785 152.470254 543.222611 152.470066 543.843437 152.469878 544.464262 152.469689 545.085088 152.469499 545.705914 152.469308 546.326740 152.469116 546.947566 152.468923 547.568392 152.468729 548.189217 152.468535 548.810043 152.468340 549.430869 152.468144 550.051695 152.467947 550.672521 152.467749 551.293347 152.467551 551.914173 152.467351 552.534998 152.467151 553.155824 152.466950 553.776650 152.466748 554.397476 152.466546 555.018302 152.466343 555.639128 152.466138 556.259953 152.465934 556.880779 152.465728 557.501605 152.465522 558.122431 152.465314 558.743257 152.465107 559.364083 152.464898 559.984908 152.464689 560.605734 152.464479 561.226560 152.464268 561.847386 152.464056 562.468212 152.463844 563.089038 152.463631 563.709864 152.463418 564.330689 152.463203 564.951515 152.462988 565.572341 152.462773 566.193167 152.462557 566.813993 152.462340 567.434819 152.462122 568.055644 152.461904 568.676470 152.461685 569.297296 152.461465 569.918122 152.461245 570.538948 152.461024 571.159774 152.460803 571.780599 152.460581 572.401425 152.460358 573.022251 152.460135 573.643077 152.459911 574.263903 152.459687 574.884729 152.459462 575.505554 152.459236 576.126380 152.459010 576.747206 152.458783 577.368032 152.458556 577.988858 152.458328 578.609684 152.458100 579.230510 152.457871 579.851335 152.457641 580.472161 152.457411 581.092987 152.457181 581.713813 152.456950 582.334639 152.456718 582.955465 152.456486 583.576290 152.456253 584.197116 152.456020 584.817942 152.455787 585.438768 152.455553 586.059594 152.455318 586.680420 152.455083 587.301245 152.454848 587.922071 152.454612 588.542897 152.454376 589.163723 152.454139 589.784549 152.453902 590.405375 152.453664 591.026201 152.453426 591.647026 152.453188 592.267852 152.452949 592.888678 152.452710 593.509504 152.452470 594.130330 152.452230 594.751156 152.451990 595.371981 152.451749 595.992807 152.451508 596.613633 152.451266 597.234459 152.451024 597.855285 152.450782 598.476111 152.450539 599.096936 152.450296 599.717762 152.450053 600.338588 152.449809 600.959414 152.449565 601.580240 152.449321 602.201066 152.449076 602.821891 152.448831 603.442717 152.448586 604.063543 152.448341 604.684369 152.448095 605.305195 152.447849 605.926021 152.447603 606.546847 152.447356 607.167672 152.447109 607.788498 152.446862 608.409324 152.446614 609.030150 152.446367 609.650976 152.446119 610.271802 152.445871 610.892627 152.445622 611.513453 152.445374 612.134279 152.445125 612.755105 152.444876 613.375931 152.444627 613.996757 152.444378 614.617582 152.444128 615.238408 152.443878 615.859234 152.443628 616.480060 152.443378 617.100886 152.443128 617.721712 152.442877 618.342538 152.442627 618.963363 152.442376 619.584189 152.442125 620.205015 152.441874 620.825841 152.441623 621.446667 152.441372 622.067493 152.441120 622.688318 152.440869 623.309144 152.440617 623.929970 152.440366 624.550796 152.440114 625.171622 152.439862 625.792448 152.439610 626.413273 152.439358 627.034099 152.439106 627.654925 152.438854 628.275751 152.438602 628.896577 152.438349 629.517403 152.438097 630.138228 152.437845 630.759054 152.437592 631.379880 152.437340 632.000706 152.437087 632.621532 152.436835 633.242358 152.436583" class="line reactive nofill" /></g></g><g class="titles"><text x="400.0" y="26" class="title plot_title">主题: 路由器内存利用率</text></g><g transform="translate(120, 46)" class="plot overlay"><g class="series serie-0 color-0"><g class="dots"><circle cx="12.416516817366263" cy="152.5779457346983" r="2.5" class="dot reactive tooltip-trigger" /><desc class="value">69.62</desc><desc class="x ">12.416516817366263</desc><desc class="y ">152.5779457346983</desc><desc class="x_label">10:23:01</desc></g><g class="dots"><circle cx="167.62297703444455" cy="152.53082468907297" r="2.5" class="dot reactive tooltip-trigger" /><desc class="value">69.63</desc><desc class="x ">167.62297703444455</desc><desc class="y ">152.53082468907297</desc><desc class="x_label">10:24:02</desc></g><g class="dots"><circle cx="322.82943725152285" cy="152.48370364344765" r="2.5" class="dot reactive tooltip-trigger" /><desc class="value">69.64</desc><desc class="x ">322.82943725152285</desc><desc class="y ">152.48370364344765</desc><desc class="x_label">10:25:02</desc></g><g class="dots"><circle cx="478.03589746860115" cy="152.48370364344765" r="2.5" class="dot reactive tooltip-trigger" /><desc class="value">69.64</desc><desc class="x left">478.03589746860115</desc><desc class="y left">152.48370364344765</desc><desc class="x_label">10:26:02</desc></g><g class="dots"><circle cx="633.2423576856794" cy="152.43658259782234" r="2.5" class="dot reactive tooltip-trigger" /><desc class="value">69.65</desc><desc class="x left">633.2423576856794</desc><desc class="y left">152.43658259782234</desc><desc class="x_label">10:27:02</desc></g></g></g><g transform="translate(120, 46)" class="plot text-overlay"><g class="series serie-0 color-0" /></g><g transform="translate(120, 46)" class="plot tooltip-overlay"><g transform="translate(0 0)" style="opacity: 0" class="tooltip"><rect rx="0" ry="0" width="0" height="0" class="tooltip-box" /><g class="text" /></g></g><g transform="translate(10, 56)" class="legends"><g id="activate-serie-0" class="legend reactive activate-serie"><rect x="0.0" y="1.0" width="12" height="12" class="color-0 reactive" /><text x="17.0" y="11.2">MEM利用率</text></g></g><g transform="translate(776, 56)" class="legends" /></g></svg>